<svg xmlns="http://www.w3.org/2000/svg" viewBox="0 0 400 300" width="406" height="306" class="illustration styles_illustrationTablet__1DWOa"><g id="_337_thinking_flatline" data-name="#337_thinking_flatline"><ellipse cx="198.95" cy="248.23" rx="103.78" ry="6.65" fill="#d1d3d4"></ellipse><path d="M215.61,143.52a60.41,60.41,0,0,0,5.94-4.05c4.07-3.15,5.28-5.86,6.46-10.75.79-3.3-1.7-6.41-4.15-8.76s-5.24-4.95-5.28-8.34c0-2.61,1.63-4.89,2.62-7.31,5.23-12.74-9.31-18.36-12.22-29s-6.34-19.39-19.37-16c-3.16.81-6.29,1.89-9.54,2-3,.15-5.94-.48-8.92-.52a23.18,23.18,0,0,0-20.35,12.1c-1.59,3-.65,7-2.14,9.37-3.91,6.22-13.24,4.7-11.26,14.87.71,3.62,2.26,7.43.88,10.86-1.76,4.37-7.19,5.68-11,8.48-6.21,4.58-7.83,13.8-4.86,20.93s9.67,12.2,16.95,14.79,15.13,3,22.86,3C180.67,155.26,200,152.89,215.61,143.52Z" fill="#fff"></path><path d="M162.52,155.69h-.27c-7.58,0-15.6-.38-23-3-8.18-2.91-14.46-8.39-17.22-15-3.23-7.76-1.08-17,5-21.48a34.48,34.48,0,0,1,4-2.41c2.91-1.57,5.67-3,6.8-5.87,1-2.54.33-5.41-.35-8.18-.19-.81-.39-1.62-.54-2.42-1.31-6.7,2.09-8.6,5.69-10.62,2.08-1.16,4.22-2.36,5.63-4.59a9.82,9.82,0,0,0,.95-4.2,13.37,13.37,0,0,1,1.16-5.13,23.67,23.67,0,0,1,20.49-12.35h.27c1.31,0,2.62.14,3.89.27a34.89,34.89,0,0,0,5,.24,34,34,0,0,0,7.33-1.46l2.13-.58c13.31-3.42,16.89,5.39,19.92,16.37,1.08,3.93,3.86,7.23,6.55,10.42,4.42,5.25,9,10.68,5.65,18.84-.28.69-.63,1.39-1,2.06a11.38,11.38,0,0,0-1.62,5.06c0,3.14,2.68,5.67,5,7.91l.13.11c3.55,3.4,4.94,6.4,4.27,9.2-1.2,5-2.44,7.76-6.62,11a61.09,61.09,0,0,1-6,4.08h0C202.63,151.84,185.19,155.69,162.52,155.69Zm8.36-94.39A22.73,22.73,0,0,0,151.2,73.15a12.64,12.64,0,0,0-1.06,4.8,10.4,10.4,0,0,1-1.09,4.6c-1.53,2.42-3.78,3.68-6,4.9-3.45,1.93-6.43,3.6-5.25,9.64.16.79.35,1.58.54,2.38.71,2.91,1.44,5.93.31,8.74-1.26,3.13-4.29,4.76-7.22,6.34a33.62,33.62,0,0,0-3.91,2.33c-5.76,4.25-7.78,13-4.71,20.4,2.67,6.41,8.75,11.71,16.68,14.53,7.28,2.59,15.22,3,22.71,3h.27c22.5,0,39.79-3.81,52.86-11.65h0a61,61,0,0,0,5.89-4c4-3.07,5.15-5.72,6.29-10.5.59-2.45-.72-5.17-4-8.32l-.13-.11c-2.46-2.36-5.26-5-5.29-8.56a12.27,12.27,0,0,1,1.71-5.48c.33-.66.66-1.33.94-2,3.13-7.64-1.07-12.62-5.51-17.9-2.75-3.26-5.6-6.64-6.73-10.77-3-10.88-6.29-18.94-18.81-15.72-.71.18-1.41.37-2.11.57a35.39,35.39,0,0,1-7.53,1.5,36.5,36.5,0,0,1-5.14-.25c-1.25-.13-2.54-.25-3.81-.27Z" fill="#231f20"></path><path d="M125.54,173.63s8.16-44,16.32-51.45,29.81-7.45,41.16-7.81,28,3.55,35.49,11S233.76,180,233.76,180l-15.61-1.78,9.94,26.26S193.67,223,177.7,221.89s-41.16-22.71-41.16-22.71l1.42-29.1Z" fill="#1ca7ec"></path><path d="M213.89,170.89h0a.45.45,0,0,1-.43-.48c.7-13.62-4.2-40.08-4.25-40.34a.45.45,0,1,1,.89-.17c0,.27,5,26.83,4.27,40.56A.45.45,0,0,1,213.89,170.89Z" fill="#231f20"></path><path d="M153.22,161.67a.46.46,0,0,1-.46-.45c0-.2-.31-19.73,3.21-32.42a.47.47,0,0,1,.56-.32.45.45,0,0,1,.32.56c-3.49,12.57-3.18,32-3.18,32.16a.46.46,0,0,1-.44.47Z" fill="#231f20"></path><path d="M189.45,120l1.67,16.62s-.81,9.46-11.2,7.58a21,21,0,0,1-14.56-10.66c-.49-1-.17-3.18-.23-4.28l-.53-9.75c-.26-4.89-.95-10-.8-14.87s0-10.06.19-15.14a1.2,1.2,0,0,1,.24-.83,1.07,1.07,0,0,1,.65-.28,10.45,10.45,0,0,1,4.24.11,37.17,37.17,0,0,0-1.22-10.23,19.9,19.9,0,0,1,6.57,8.54,52.37,52.37,0,0,1,10.32.51,11.33,11.33,0,0,0-.94-7,51.69,51.69,0,0,1,4,5.66c0,.29,4.63.94,4.95.65.8-.71.54-5.5.64-6.64a23.35,23.35,0,0,1,4.68,10.21c.8,3.41.71,17.52.73,21.08C198.84,116.53,195.12,120.74,189.45,120Z" fill="#fff"></path><path d="M182.52,144.87a15.07,15.07,0,0,1-2.68-.26A21.29,21.29,0,0,1,165,133.69a7.73,7.73,0,0,1-.3-3.24c0-.46,0-.88,0-1.21l-.52-9.74c-.09-1.62-.23-3.29-.36-4.91a90.32,90.32,0,0,1-.45-10c.07-2.38.08-4.83.09-7.19,0-2.6,0-5.29.1-8a1.68,1.68,0,0,1,.36-1.14,1.64,1.64,0,0,1,.91-.41,10.94,10.94,0,0,1,3.87,0,36.75,36.75,0,0,0-1.21-9.56.46.46,0,0,1,.72-.48,20.3,20.3,0,0,1,6.59,8.44,53.68,53.68,0,0,1,9.65.46,11,11,0,0,0-1-6.28.46.46,0,0,1,.77-.49,51.28,51.28,0,0,1,3.94,5.64,19.75,19.75,0,0,0,4.35.57c.39-.57.41-3.58.41-4.74,0-.69,0-1.24,0-1.56a.45.45,0,0,1,.31-.39.49.49,0,0,1,.49.13c2.18,2.5,3.69,5.81,4.77,10.42.72,3,.73,14.12.74,19.45v1.73a9.49,9.49,0,0,1-3,7.29,8.18,8.18,0,0,1-6.27,1.94l1.61,16.07a9.88,9.88,0,0,1-3.5,6.61A8.93,8.93,0,0,1,182.52,144.87ZM166.73,88.64a9.48,9.48,0,0,0-1.77.16.84.84,0,0,0-.4.14.9.9,0,0,0-.11.54c-.1,2.64-.1,5.33-.11,7.92,0,2.37,0,4.82-.09,7.21a91.4,91.4,0,0,0,.45,9.91c.13,1.62.27,3.3.36,4.93l.52,9.74c0,.35,0,.8,0,1.29a7.48,7.48,0,0,0,.2,2.82A20.37,20.37,0,0,0,180,143.71c3.13.57,5.65.13,7.51-1.29a9.09,9.09,0,0,0,3.15-5.87L189,120a.43.43,0,0,1,.14-.37.48.48,0,0,1,.38-.13,7.45,7.45,0,0,0,6.11-1.65,8.64,8.64,0,0,0,2.72-6.61v-1.73c0-4.88,0-16.3-.72-19.24a24.27,24.27,0,0,0-3.8-9.07v.26c0,2.73-.08,4.86-.76,5.47s-4.69-.23-5.27-.46a.66.66,0,0,1-.41-.34c-.69-1.14-1.43-2.26-2.21-3.34a11.72,11.72,0,0,1,.06,4.57.45.45,0,0,1-.51.37,52.33,52.33,0,0,0-10.24-.5.42.42,0,0,1-.44-.29,19.43,19.43,0,0,0-5.38-7.52,38.26,38.26,0,0,1,.91,9,.47.47,0,0,1-.18.35.45.45,0,0,1-.39.09A9.67,9.67,0,0,0,166.73,88.64Z" fill="#231f20"></path><path d="M190.13,128.14s-6.73.93-11.49-3.16-4.55-8.69-4.55-8.69,7.76,4.21,15.36,3.67Z" fill="#231f20"></path><path d="M188.37,128.67a15.51,15.51,0,0,1-10-3.36c-4.87-4.18-4.71-8.84-4.7-9a.44.44,0,0,1,.65-.37c.08,0,7.74,4.15,15.12,3.62a.44.44,0,0,1,.47.4l.68,8.18a.45.45,0,0,1-.38.47A15,15,0,0,1,188.37,128.67ZM174.57,117a11.94,11.94,0,0,0,4.35,7.61c3.89,3.34,9.22,3.21,10.73,3.1l-.6-7.32C182.79,120.74,176.61,118,174.57,117Z" fill="#231f20"></path><path d="M184.05,107a12.32,12.32,0,0,1-1.66-.12.45.45,0,0,1-.37-.51.44.44,0,0,1,.51-.37c.94.15,3.56.31,4.37-.75.55-.74-2.11-5-5-8.46a.44.44,0,1,1,.69-.55c1.48,1.82,6.23,7.89,5,9.54C186.85,106.78,185.27,107,184.05,107Z" fill="#231f20"></path><path d="M168.55,95.53a15.76,15.76,0,0,0-3.63-5.35c-1.67-1.39-4.19-2-6-.87-2,1.25-2.5,4-2.27,6.42a26.19,26.19,0,0,0,2.2,7.84,9.41,9.41,0,0,0,2.67,3.94,3.69,3.69,0,0,0,4.45.21" fill="#fff"></path><path d="M164,108.83a4.85,4.85,0,0,1-2.82-1,9.86,9.86,0,0,1-2.81-4.13,26.39,26.39,0,0,1-2.24-8c-.14-1.52-.19-5.22,2.49-6.86,2.17-1.33,4.93-.46,6.57.91a16.14,16.14,0,0,1,3.75,5.5.46.46,0,1,1-.82.4,15.45,15.45,0,0,0-3.52-5.2c-1.4-1.17-3.72-1.93-5.5-.83-2.31,1.41-2.16,4.94-2.06,6a25.21,25.21,0,0,0,2.17,7.7,9,9,0,0,0,2.53,3.76,3.25,3.25,0,0,0,3.88.22.45.45,0,0,1,.64.06.46.46,0,0,1-.05.64A3.41,3.41,0,0,1,164,108.83Z" fill="#231f20"></path><ellipse cx="176.02" cy="96.01" rx="0.98" ry="2.48" fill="#231f20"></ellipse><ellipse cx="190.83" cy="95.48" rx="0.98" ry="2.48" fill="#231f20"></ellipse><path d="M179.62,136.15s4.29-12.08,2.23-15.42-7.79-6.51-8.9-9.53.79-10.33-1.59-11.13-4.13,6-2.38,11.44c0,0-2.71-3.33-2.71-6.51s2.07-7.15-.16-8.11-5.72,6.36-4.92,12.24,8.26,14.14,7.79,15.73-41.32,41.21-45,47.7c-3.42,6-1.29,19.53,10.47,18.1S171.68,156.65,179.62,136.15Z" fill="#fff"></path><path d="M132.71,191.22a9.7,9.7,0,0,1-8.49-4.42,15.1,15.1,0,0,1-.67-14.46c2.3-4,18.11-20,30.81-32.89,7.1-7.2,13.81-14,14.19-14.75.11-.44-1.29-2.61-2.42-4.36-2.19-3.38-4.92-7.6-5.39-11.15-.65-4.79,1.49-10.67,3.69-12.34a1.79,1.79,0,0,1,1.86-.38c1.81.78,1.35,3,.9,5.24a16.9,16.9,0,0,0-.46,3.29,9.19,9.19,0,0,0,1.24,4.13c-.52-3.77.31-7.6,1.69-9a1.74,1.74,0,0,1,1.84-.52c1.72.57,1.64,3.4,1.56,6.38a15.68,15.68,0,0,0,.32,5c.55,1.5,2.48,3.18,4.35,4.8a23.08,23.08,0,0,1,4.51,4.65c2.15,3.48-2,15.31-2.19,15.81h0c-3.83,9.87-12,23.1-21.25,34.53-9.91,12.21-18.78,19.6-24.33,20.27A13.73,13.73,0,0,1,132.71,191.22Zm33-93.95a1.27,1.27,0,0,0-.72.3c-1.79,1.36-4,6.79-3.34,11.5.45,3.34,3.23,7.64,5.26,10.78,1.87,2.89,2.76,4.32,2.51,5.14s-4.11,4.67-14.4,15.1c-12,12.14-28.43,28.78-30.67,32.7A14.15,14.15,0,0,0,125,186.3c1.42,2.13,4.2,4.54,9.38,3.91,11.59-1.41,37-34,44.83-54.22,1.18-3.31,3.87-12.44,2.27-15a22.44,22.44,0,0,0-4.33-4.44c-2-1.77-4-3.45-4.61-5.18a16.39,16.39,0,0,1-.38-5.35c.07-2.41.15-5.14-.93-5.49-.11,0-.45-.16-.9.3-1.48,1.46-2.21,6.5-.9,10.56a.46.46,0,0,1-.79.43c-.11-.14-2.8-3.5-2.8-6.8a17.45,17.45,0,0,1,.48-3.47c.47-2.32.68-3.77-.36-4.22A.67.67,0,0,0,165.7,97.27Zm13.92,38.88h0Z" fill="#231f20"></path><path d="M189.18,135.44S184.89,123.36,187,120c1.89-3,5.26-4.8,7.56-7.49,2.43-2.85,2.09-7.81,3.47-11.33.28-.72.89-1.58,1.62-1.31a1.43,1.43,0,0,1,.68.71,22.55,22.55,0,0,1,2.12,6.91,31.7,31.7,0,0,1,.76,6.28,15.58,15.58,0,0,1-1.12,5.56c-.44,1.12-2.59,3.56-2.22,4.8.48,1.59,3.18,9.7,7.63,15.26s27.19,27.39,30.38,41.23c1.69,7.29.59,16.06-11.17,14.63S197.13,155.94,189.18,135.44Z" fill="#fff"></path><path d="M229.08,195.88a21.63,21.63,0,0,1-2.47-.15c-12.08-1.47-30-40-37.85-60.13h0c-.18-.5-4.34-12.32-2.18-15.81a19.93,19.93,0,0,1,4.38-4.55,26.18,26.18,0,0,0,3.22-3c1.41-1.65,1.86-4.17,2.28-6.6a24.63,24.63,0,0,1,1.11-4.59c.38-1,1.18-2,2.21-1.58a1.87,1.87,0,0,1,.92.92,22.44,22.44,0,0,1,2.16,7,30.75,30.75,0,0,1,.77,6.38,15.93,15.93,0,0,1-1.14,5.72,11.09,11.09,0,0,1-.88,1.51c-.61.94-1.52,2.36-1.33,3,.11.37,2.77,9.14,7.54,15.1.94,1.17,2.69,3.06,4.91,5.46,8.61,9.33,23,24.93,25.57,35.95.73,3.16,1.47,9-1.72,12.55C234.89,194.94,232.38,195.88,229.08,195.88Zm-39.47-60.6c9,23.22,26.31,58.23,37.11,59.54,4.22.51,7.3-.28,9.17-2.36,2.92-3.24,2.2-8.73,1.51-11.72C234.91,170,220,153.85,212,145.21c-2.23-2.42-4-4.33-4.94-5.52-4.88-6.1-7.6-15-7.71-15.41-.31-1,.62-2.48,1.44-3.75a9.81,9.81,0,0,0,.8-1.34,15.29,15.29,0,0,0,1.08-5.41,31.54,31.54,0,0,0-.75-6.19,22,22,0,0,0-2.06-6.76c-.13-.22-.28-.45-.45-.51-.4-.15-.85.56-1,1.05a23.66,23.66,0,0,0-1.06,4.42c-.45,2.55-.91,5.19-2.49,7a27.06,27.06,0,0,1-3.32,3.11,18.42,18.42,0,0,0-4.19,4.32C185.75,122.84,188.44,132,189.61,135.28Z" fill="#231f20"></path><path d="M173.09,208.76s-43.65-41.16-62.1-33-18.09,31.58-8.16,45.06,46.84,24.48,77.36,21.65,72.73-14.2,80.9-24.84,2.12-28.39-12.42-33S196.86,209.82,173.09,208.76Z" fill="#231f20"></path><path d="M170.41,243.34c-27.66,0-58.74-9.78-67.93-22.26-6.07-8.23-8.36-19.66-5.85-29.11a24.5,24.5,0,0,1,14.19-16.62c18.2-8,59.4,30.12,62.45,33,12,.47,27.73-7.07,41.64-13.72,13.67-6.53,26.57-12.72,33.89-10.39a23.67,23.67,0,0,1,15.34,15.49c2.08,6.61,1.09,13.24-2.7,18.2-8.12,10.58-50.32,22.13-81.21,25C177,243.2,173.75,243.34,170.41,243.34Zm-53.86-68.21a13.24,13.24,0,0,0-5.38,1,23.65,23.65,0,0,0-13.69,16c-2.44,9.21-.2,20.35,5.71,28.37,10.14,13.77,47.54,24.2,76.95,21.47,30.72-2.86,72.61-14.26,80.6-24.67,3.62-4.72,4.55-11.06,2.56-17.39a22.77,22.77,0,0,0-14.77-14.92c-7-2.21-19.73,3.89-33.24,10.35-14.07,6.72-30,14.34-42.22,13.8a.45.45,0,0,1-.28-.12C172.39,208.7,136.53,175.13,116.55,175.13Z" fill="#231f20"></path><path d="M146.06,237.71l28.23,13.62,12.64-31.93S146.48,191,136.54,199.18,142.86,235.23,146.06,237.71Z" fill="#231f20"></path><path d="M174.29,251.77a.41.41,0,0,1-.19,0l-28.23-13.62-.08-.05c-2.55-2-12.71-18.82-12.86-30.45-.06-4,1.07-6.91,3.33-8.77,10.08-8.28,49.26,19,50.92,20.2a.45.45,0,0,1,.16.52L174.7,251.5a.45.45,0,0,1-.41.27Zm-28-14.43,27.76,13.39,12.34-31.16c-3.63-2.51-40.43-27.56-49.57-20-2,1.68-3.06,4.4-3,8.08C134,218.69,143.83,235.34,146.29,237.34Z" fill="#231f20"></path><path d="M185.51,248.5s19.29,6.4,37.25,3.72c20.23-3,26.26-12.06,16-20.22s-52.16-1.24-52.16-1.24Z" fill="#1ca7ec"></path><path d="M213.51,253.33a101.64,101.64,0,0,1-28.15-4.4.46.46,0,0,1-.31-.46l1.07-17.74a.45.45,0,0,1,.38-.42c1.71-.29,42.19-6.86,52.52,1.33,4.07,3.23,5.76,6.69,4.88,10-1.4,5.22-9.08,9.25-21.07,11A63.68,63.68,0,0,1,213.51,253.33ZM186,248.17c2.64.82,20.34,6,36.72,3.6,11.61-1.73,19-5.51,20.31-10.37.79-2.93-.79-6.05-4.56-9-9.52-7.55-47.33-1.86-51.44-1.21Z" fill="#231f20"></path><path d="M175.94,247.15s16.66,5.25,19.86-4.33-3.73-10.47-12.42-12.42Z" fill="#fff"></path><path d="M185.3,249h-.64a36.36,36.36,0,0,1-8.85-1.45.44.44,0,0,1-.28-.25.4.4,0,0,1,0-.37L183,230.22a.45.45,0,0,1,.52-.26l1.5.33c5.12,1.13,9.55,2.1,11.29,5.16,1,1.84,1,4.3,0,7.51C194.9,247,191.13,249,185.3,249Zm-8.73-2.18c2.75.75,16.08,4,18.79-4.18,1-3,1-5.18.12-6.78-1.54-2.7-5.79-3.64-10.7-4.72l-1.14-.25Z" fill="#231f20"></path><path d="M142,235.92a.55.55,0,0,1-.24-.07c-.21-.14-21.67-13.36-34-18.87a.45.45,0,0,1-.23-.6.45.45,0,0,1,.6-.23c12.4,5.53,33.9,18.79,34.12,18.92a.45.45,0,0,1,.15.63A.47.47,0,0,1,142,235.92Z" fill="#fff"></path><path d="M130.69,228.27s-9-1.77-11.36,5,0,20,6,22.35,15.26-7.27,18.81-8.16,12.67-4.51,12.67-4.51Z" fill="#1ca7ec"></path><path d="M127.41,256.41a6.17,6.17,0,0,1-2.21-.39c-6.45-2.47-8.64-16.1-6.3-22.93,2.41-7,11.78-5.28,11.87-5.27l.14.05,26.15,14.65a.42.42,0,0,1,.23.43.45.45,0,0,1-.28.39c-.38.15-9.19,3.65-12.73,4.54-1.09.27-2.85,1.49-4.9,2.91C135.7,253.34,131.26,256.41,127.41,256.41Zm.74-27.88c-2.73,0-7,.71-8.39,4.86-1.09,3.21-1.13,8.15-.09,12.59,1.13,4.85,3.27,8.2,5.86,9.19,3.82,1.46,9.09-2.2,13.33-5.14,2.12-1.46,3.95-2.73,5.2-3,2.83-.71,9.33-3.21,11.71-4.15l-25.24-14.13A15.42,15.42,0,0,0,128.15,228.53Z" fill="#231f20"></path><path d="M183.38,230.86l-.15,0a.45.45,0,0,1-.28-.58l2.88-8.38c-2.08-2.14-20.2-20.75-32.5-29.78a.45.45,0,1,1,.54-.73c13.06,9.58,32.61,29.87,32.81,30.08a.44.44,0,0,1,.1.46l-3,8.65A.45.45,0,0,1,183.38,230.86Z" fill="#fff"></path><path d="M184.18,111.37a13.17,13.17,0,0,1-6.54-1.77.43.43,0,0,1-.13-.61.44.44,0,0,1,.61-.13,11.85,11.85,0,0,0,11.61.16.44.44,0,1,1,.43.77A12.15,12.15,0,0,1,184.18,111.37Z" fill="#231f20"></path><path d="M232.09,48.26a13.37,13.37,0,0,0-5.33,4.08c-6.54,8.33-2.32,17.77,2.87,25.6,5.58,8.42,18.68,7.65,27.61,4.33,4.2,5.51,12.73,7.77,20.15,6A24.23,24.23,0,0,0,293.2,75.52c1.72,3,6.46,4.13,10.25,3.14,13.23-3.44,15.19-20.12,5.22-27.35-2.74-2-7.27-2.55-9.82-.38-.64-3.64-4.12-7.62-8.23-9-1.19-.39-12.1-.76-11.17.54-3.1-4.34-9.17-6.81-15.16-6.91a30.84,30.84,0,0,0-16.64,5,21.92,21.92,0,0,0-7,6.47A18.25,18.25,0,0,0,232.09,48.26Z" fill="#fff"></path><path d="M272.29,89.35c-6.05,0-11.92-2.4-15.22-6.48-9.7,3.49-22.45,3.52-27.86-4.65C224.62,71.28,219.32,61,226.37,52a13.75,13.75,0,0,1,5.52-4.23h0a18.64,18.64,0,0,1,8.53-1.27,22.84,22.84,0,0,1,7-6.38,31.66,31.66,0,0,1,16.91-5c6.23.11,11.95,2.59,15.11,6.53.54-.26,1.89-.54,5.48-.53a34.6,34.6,0,0,1,5.89.39,13.45,13.45,0,0,1,8.39,8.58c2.87-1.82,7.18-1.07,9.8.83a16.12,16.12,0,0,1,6.22,16,15.46,15.46,0,0,1-11.62,12.26c-3.51.91-8.11.13-10.31-2.65a24.62,24.62,0,0,1-15.75,12.23A22,22,0,0,1,272.29,89.35Zm-15.05-7.58a.51.51,0,0,1,.4.2c3.94,5.16,12.19,7.6,19.63,5.79A23.63,23.63,0,0,0,292.75,75.3a.5.5,0,0,1,.44-.28.51.51,0,0,1,.45.25c1.66,2.92,6.32,3.78,9.68,2.91A14.44,14.44,0,0,0,314.2,66.7a15.09,15.09,0,0,0-5.82-15c-2.52-1.83-6.82-2.43-9.2-.4a.51.51,0,0,1-.5.09.5.5,0,0,1-.32-.38c-.63-3.57-4.1-7.34-7.89-8.57-1.17-.39-9.17-.55-10.52,0a.5.5,0,0,1-.91.32c-2.83-4-8.62-6.6-14.76-6.7A30.55,30.55,0,0,0,247.92,41a21.49,21.49,0,0,0-6.82,6.32.53.53,0,0,1-.46.23,17.62,17.62,0,0,0-8.36,1.17,12.67,12.67,0,0,0-5.12,3.93c-6.58,8.38-1.91,17.77,2.89,25,5.17,7.81,17.63,7.62,27,4.13A.57.57,0,0,1,257.24,81.77Z" fill="#d1d3d4"></path><path d="M251.16,92.22a7.46,7.46,0,0,1,3.64-.31,5.09,5.09,0,0,1,3.8,1.88c.78,1.23.12,3.32-1.34,3.34,2-1,4.73.5,5.3,2.7,1.19,4.59-4.73,7.45-8.59,7.16-1.93-.14-3.8-1.06-5.72-.79-3.51.49-6,.86-8.64-2.29-1.9-2.28-1.24-5.44.32-7.72a6.39,6.39,0,0,1,4.37-2.92c.56-.08,4.85.47,4.54,1.5A3.93,3.93,0,0,1,251.16,92.22Z" fill="#fff"></path><path d="M254.49,107.51a5.15,5.15,0,0,1-.56,0,15.21,15.21,0,0,1-2.35-.43,8.83,8.83,0,0,0-3.26-.37c-3.55.5-6.31.89-9.09-2.46-2.19-2.63-1.21-6.12.29-8.32a6.85,6.85,0,0,1,4.71-3.14,11,11,0,0,1,4.5,1,4.45,4.45,0,0,1,2.24-2h0a7.83,7.83,0,0,1,3.89-.33c2,.25,3.43,1,4.16,2.1a3,3,0,0,1,.11,2.83,4.42,4.42,0,0,1,1.33.37,4.67,4.67,0,0,1,2.58,3,5,5,0,0,1-1.08,4.59A10.36,10.36,0,0,1,254.49,107.51ZM249,105.65a12,12,0,0,1,2.84.44,13.7,13.7,0,0,0,2.19.4,9.19,9.19,0,0,0,7.19-2.84,3.94,3.94,0,0,0,.88-3.7,3.69,3.69,0,0,0-2-2.32,3.23,3.23,0,0,0-1.78-.29,1.85,1.85,0,0,1-1,.29.48.48,0,0,1-.49-.38.52.52,0,0,1,.27-.57,3.31,3.31,0,0,1,.82-.28,1.43,1.43,0,0,0,.33-.42,2,2,0,0,0,0-1.92c-.57-.89-1.72-1.44-3.44-1.65a6.83,6.83,0,0,0-3.4.27h0a3.51,3.51,0,0,0-2,2.24.5.5,0,0,1-.95-.29c-.3-.42-3.42-.93-4-.87a5.9,5.9,0,0,0-4,2.71c-1.3,1.91-2.18,4.92-.35,7.12,2.43,2.92,4.7,2.6,8.13,2.12A6.18,6.18,0,0,1,249,105.65Zm2.19-13.43h0Z" fill="#d1d3d4"></path><path d="M232.19,107.26a4.41,4.41,0,0,0-3-.18,2.52,2.52,0,0,0-1.76,2.24,1.79,1.79,0,0,0,2,1.77c-2.34,1.53,2.68,5.52,4.9,1.26A3.54,3.54,0,0,0,232.19,107.26Z" fill="#fff"></path><path d="M231.62,114.76a3.11,3.11,0,0,1-.43,0,3.35,3.35,0,0,1-2.81-2.23,1.68,1.68,0,0,1,.08-1,2.14,2.14,0,0,1-.6-.35,2.37,2.37,0,0,1-.9-1.81,3,3,0,0,1,2.1-2.71,4.94,4.94,0,0,1,3.31.18h0A4.49,4.49,0,0,1,235,109.3a3.92,3.92,0,0,1-.26,3.28A3.59,3.59,0,0,1,231.62,114.76Zm-2.18-4.17a.49.49,0,0,1,.46.3.5.5,0,0,1-.19.61.69.69,0,0,0-.36.77,2.38,2.38,0,0,0,2,1.47,2.54,2.54,0,0,0,2.57-1.62,2.91,2.91,0,0,0,.21-2.46,3.46,3.46,0,0,0-2.08-1.94h0a4.08,4.08,0,0,0-2.64-.17,2,2,0,0,0-1.42,1.77,1.35,1.35,0,0,0,.53,1,1,1,0,0,0,.84.25Z" fill="#d1d3d4"></path><path d="M288.27,174.4a12.08,12.08,0,0,0-1.39-6.55c-.88-1.46-2.22-2.61-2.94-4.15-1.24-2.66-.37-5.79-.66-8.71a11,11,0,0,0-3.06-6.5c-1.53-1.54-3.5-2.6-5-4.21-2.39-2.64-3.08-6.36-4.44-9.65a24.09,24.09,0,0,0-9.56-11.26c2.61,5.25-3.33,11.92-.64,17.13.85,1.65,2.48,2.85,3.11,4.6,1.51,4.22-3.53,8.8-1.91,13,.8,2.09,3,3.3,4.08,5.29,1.41,2.67.3,5.91.42,8.93.16,4.16,2.69,7.89,5.7,10.77,1.87,1.8,4,3.35,6,5,2.42,2,3.44,4,5.58.87A26.81,26.81,0,0,0,288.27,174.4Z" fill="#d1d3d4"></path><path d="M291,176.78c-.78-3.22-1.34-6.72,0-9.76,1.48-3.44,5.18-5.87,5.62-9.59.28-2.43-1-4.9-.47-7.31s2.45-4.05,4.07-5.82a24.34,24.34,0,0,0,6.29-14.89c2.34,3.09,4.71,6.25,6,9.91s1.3,8-.87,11.17a10,10,0,0,0-1.52,2.48c-.73,2.37,1.3,4.59,2.35,6.84a7.86,7.86,0,0,1-.74,8.07c-2.13,2.66-6.24,3.69-7.28,6.93a16,16,0,0,0-.37,3.67,10.77,10.77,0,0,1-7.75,9.24c-2.52.61-2.47-.39-2.92-2.5C292.75,182.37,291.66,179.62,291,176.78Z" fill="#d1d3d4"></path><path d="M283,153.61c-1.79-6.19-2.5-12.66-4.39-18.82a104.17,104.17,0,0,0-5.86-14l7.68,3.24c2.46,1,5.13,2.26,6.29,4.67,2,4.19-1.61,9.55.51,13.69.75,1.45,2.1,2.49,3,3.82,2.26,3.18,1.92,7.54.67,11.23-.53,1.59-2.85,9.8-4.93,7.52-.84-.91-.91-4.32-1.26-5.56C284.18,157.43,283.52,155.54,283,153.61Z" fill="#d1d3d4"></path><path d="M287.15,235.83c-1.52-10.11-6.32-45.77-6.37-46.13l1.32-.17c0,.36,4.84,36,6.37,46.11Z" fill="#d1d3d4"></path><path d="M289,245.39h-1.33c.09-12,5.1-57.92,8-61.07l1,.89C294.68,187.29,289.08,228.94,289,245.39Z" fill="#d1d3d4"></path><path d="M291.56,243.1l-1.33-.06c1.15-25.9-4.34-80.29-4.4-80.83l1.32-.14C287.21,162.62,292.71,217.1,291.56,243.1Z" fill="#d1d3d4"></path><path d="M274,211.45h28.58l-2,28.93a9.54,9.54,0,0,1-9.52,8.89h-5.53a9.55,9.55,0,0,1-9.53-8.89Z" fill="#fff"></path><path d="M291.06,249.77h-5.53a10.09,10.09,0,0,1-10-9.35l-2-28.93a.53.53,0,0,1,.14-.38A.5.5,0,0,1,274,211h28.58a.5.5,0,0,1,.5.54l-2,28.93A10.08,10.08,0,0,1,291.06,249.77ZM274.54,212l2,28.4a9.08,9.08,0,0,0,9,8.42h5.53a9.07,9.07,0,0,0,9-8.42l2-28.4Z" fill="#d1d3d4"></path></g></svg>