<svg xmlns="http://www.w3.org/2000/svg" viewBox="0 0 1102.9 386.9"><title>logo</title><g style="isolation:isolate"><path d="M615.9,378.4l-19.2,18.2c-13-13.8-27.6-20.6-43.9-20.6-13.7,0-25.3,4.7-34.7,14S504,411,504,424.7a51.4,51.4,0,0,0,6.3,25.6A45.1,45.1,0,0,0,528,467.8a51.3,51.3,0,0,0,25.3,6.3,53.4,53.4,0,0,0,21.8-4.4c6.5-3,13.8-8.4,21.6-16.2l18.6,19.3c-10.6,10.4-20.7,17.6-30.1,21.6s-20.2,6-32.3,6c-22.4,0-40.6-7.1-54.9-21.3s-21.3-32.3-21.3-54.4c0-14.3,3.2-27.1,9.7-38.2a72,72,0,0,1,27.9-26.8,77.8,77.8,0,0,1,39-10.2,82.7,82.7,0,0,1,62.6,28.9Z" transform="translate(-130 -195.5)" style="stroke:#000;stroke-linecap:round;stroke-miterlimit:10;stroke-width:2px"/><path d="M625.1,390.5h27.2l27.6,66.7,30.5-66.7h27.3L671.1,535.6H643.6l21.9-46.8Z" transform="translate(-130 -195.5)" style="stroke:#000;stroke-linecap:round;stroke-miterlimit:10;stroke-width:2px"/><path d="M779.3,390.5v11.7A51.4,51.4,0,0,1,795,391.4a45.1,45.1,0,0,1,17.9-3.6c13.9,0,25.7,5.2,35.4,15.7s14.5,23.9,14.5,40.3-5,29.1-15,39.7-21.9,16-35.6,16a43.4,43.4,0,0,1-17.1-3.3c-5.3-2.1-10.5-5.7-15.8-10.7v50.1H752.9V390.5Zm28.1,21.9a27.9,27.9,0,0,0-20.9,8.6c-5.6,5.7-8.3,13.2-8.3,22.5s2.7,17,8.3,22.9,12.5,8.7,20.9,8.7a27,27,0,0,0,20.5-8.9c5.6-5.9,8.4-13.5,8.4-22.7s-2.8-16.5-8.2-22.4A27.3,27.3,0,0,0,807.4,412.4Z" transform="translate(-130 -195.5)" style="stroke:#000;stroke-linecap:round;stroke-miterlimit:10;stroke-width:2px"/><path d="M885,349.5h26.5v51.8a58.7,58.7,0,0,1,15.7-10.1,39.7,39.7,0,0,1,16-3.4,36.1,36.1,0,0,1,26.7,10.9c6.2,6.3,9.2,15.6,9.2,27.9v70.2H952.9V450.2c0-12.3-.6-20.6-1.8-25s-3.2-7.6-6-9.8a17,17,0,0,0-10.5-3.2,19.7,19.7,0,0,0-13.9,5.4c-3.9,3.6-6.6,8.4-8.1,14.6-.7,3.2-1.1,10.5-1.1,21.9v42.7H885Z" transform="translate(-130 -195.5)" style="stroke:#000;stroke-linecap:round;stroke-miterlimit:10;stroke-width:2px"/><path d="M1111.4,451.4h-85.7a29.3,29.3,0,0,0,9.9,18c5.4,4.4,12.3,6.7,20.6,6.7a35.5,35.5,0,0,0,25.7-10.5l22.4,10.6a53.3,53.3,0,0,1-20.1,17.6c-7.8,3.8-17.1,5.7-27.8,5.7-16.7,0-30.2-5.3-40.7-15.8s-15.8-23.6-15.8-39.5,5.3-29.6,15.7-40.3,23.6-16.1,39.3-16.1,30.4,5.3,40.8,16.1,15.8,24.8,15.8,42.4Zm-26.7-21a26.1,26.1,0,0,0-10.4-14.5,30.4,30.4,0,0,0-18.1-5.6,31.6,31.6,0,0,0-19.5,6.3c-3.5,2.6-6.8,7.2-9.8,13.8Z" transform="translate(-130 -195.5)" style="stroke:#000;stroke-linecap:round;stroke-miterlimit:10;stroke-width:2px"/><path d="M1143.4,346.8a16.7,16.7,0,0,1,12,5,17.1,17.1,0,0,1,5,12.4,16.6,16.6,0,0,1-5,12.1,15.7,15.7,0,0,1-11.8,5,16.5,16.5,0,0,1-12.2-5.1,17.3,17.3,0,0,1-5-12.4,16.4,16.4,0,0,1,5-12A16,16,0,0,1,1143.4,346.8ZM1130,390.5h26.7V496.8H1130Z" transform="translate(-130 -195.5)" style="stroke:#000;stroke-linecap:round;stroke-miterlimit:10;stroke-width:2px"/><path d="M1174.7,390.5h22.8v13.4a28.4,28.4,0,0,1,9.9-12,24,24,0,0,1,13.4-4.1,25.4,25.4,0,0,1,10.9,2.7l-8.3,23c-3.1-1.6-5.7-2.4-7.7-2.4-4.1,0-7.6,2.6-10.4,7.6s-4.3,15.1-4.3,29.9v48.2h-26.4Z" transform="translate(-130 -195.5)" style="stroke:#000;stroke-linecap:round;stroke-miterlimit:10;stroke-width:2px"/><path d="M486.6,357,596.9,229.9S484,171.8,335.6,212.4C167.5,258.5,135,411.1,135,411.1c47.1-50.3,119.6-88.5,190.5-102.3C409.2,292.4,455,323.4,486.6,357Z" transform="translate(-130 -195.5)" style="fill:#fff;stroke:#000;stroke-miterlimit:10;stroke-width:5px"/><path d="M290,329.9s40,28.5,58.4,74c0,0-15.4,6.4-40,6.2C308.4,410.1,299,346.9,290,329.9Z" transform="translate(-130 -195.5)"/><path d="M230.5,494.4c-1.4,0,49,88,49,88C305,566,329.8,556,350.7,510.3c0,0-55.5-7.4-85.5-24.2Z" transform="translate(-130 -195.5)"/><path d="M147.4,359.9l13.7-25s-22.2-27.7-26.9-35C134.2,299.9,141.4,349.2,147.4,359.9Z" transform="translate(-130 -195.5)" style="fill:#1ca7ec;stroke:#000;stroke-miterlimit:10;stroke-width:5px"/><path d="M195.8,366.6c-1.6,0-33.1,24.9-33.1,24.9,33.8,58.1,81.1,78.2,92.4,84.3,86.9,46.6,166.2,26.9,194,23.7,0,0-51.1-88.4-62.5-109,0,0-50.1,35.2-98.2,22.1C227.9,396.1,195.8,366.6,195.8,366.6Z" transform="translate(-130 -195.5)" style="fill:#1ca7ec;stroke:#000;stroke-miterlimit:10;stroke-width:5px"/><path d="M486.6,356l14.8-17.2S450.2,260.4,314,298.9C193.2,333,135,410.1,135,410.1c47.1-50.3,119.6-88.5,190.5-102.3C409.2,291.4,455,322.4,486.6,356Z" transform="translate(-130 -195.5)" style="fill:#ccc;mix-blend-mode:multiply"/><path d="M147.4,359.9l3-5.5s-11.5-47.2-16.2-54.5C134.2,299.9,141.4,349.2,147.4,359.9Z" transform="translate(-130 -195.5)" style="opacity:0.30000000000000004;mix-blend-mode:multiply"/><path d="M165.6,388.7l-2.9,2.8c33.8,58.1,81.1,78.2,92.4,84.3,86.9,46.6,166.2,26.9,194,23.7,0,0,1.8,4-9.7-16.6,0,0-85.9,24.1-148.8,1.6C239,466,205.3,440,165.6,388.7Z" transform="translate(-130 -195.5)" style="opacity:0.30000000000000004;mix-blend-mode:multiply"/></g></svg>