<svg xmlns="http://www.w3.org/2000/svg" viewBox="0 0 400 300" width="406" height="306" class="illustration styles_illustrationTablet__1DWOa"><g id="_117_online_team_meeting_flatline" data-name="#117_online_team_meeting_flatline"><path d="M81.42,250.52H318.58a0,0,0,0,1,0,0v5.34a5,5,0,0,1-5,5H86.43a5,5,0,0,1-5-5v-5.34A0,0,0,0,1,81.42,250.52Z"></path><path d="M314.52,255h-229a4,4,0,0,1-3.84-5.35l20.58-60.74a13.3,13.3,0,0,1,12.61-9H285.17a13.3,13.3,0,0,1,12.61,9l20.58,60.74A4,4,0,0,1,314.52,255Z" fill="#fff"></path><path d="M314.52,255.43h-229a4.5,4.5,0,0,1-4.27-6l20.57-60.74a13.78,13.78,0,0,1,13-9.35H285.17a13.78,13.78,0,0,1,13.05,9.35l20.57,60.74a4.5,4.5,0,0,1-4.27,6ZM114.83,180.29A12.85,12.85,0,0,0,102.65,189L82.07,249.76a3.6,3.6,0,0,0,3.41,4.75h229a3.6,3.6,0,0,0,3.41-4.75L297.35,189a12.85,12.85,0,0,0-12.18-8.74Z" fill="#231f20"></path><path d="M294.51,219.3h-189a.48.48,0,0,1-.4-.2.53.53,0,0,1-.08-.44l9.07-30.54a.5.5,0,0,1,.48-.36H285.44a.5.5,0,0,1,.48.36L295,218.66a.53.53,0,0,1-.08.44A.48.48,0,0,1,294.51,219.3Zm-188.35-1H293.84l-8.78-29.54H114.94Z" fill="#d1d3d4"></path><path d="M235.31,246.74H164.69a.53.53,0,0,1-.39-.18.49.49,0,0,1-.09-.42l4.67-21.24a.49.49,0,0,1,.48-.39h61.28a.49.49,0,0,1,.48.39l4.67,21.24a.49.49,0,0,1-.09.42A.53.53,0,0,1,235.31,246.74Zm-70-1h69.36l-4.45-20.23H169.77Z" fill="#d1d3d4"></path><rect x="105.12" y="39.13" width="189.6" height="140.71" rx="7.04" fill="#fff"></rect><path d="M287.68,180.29H112.15a7.5,7.5,0,0,1-7.49-7.49V46.17a7.5,7.5,0,0,1,7.49-7.5H287.68a7.51,7.51,0,0,1,7.5,7.5V172.8A7.51,7.51,0,0,1,287.68,180.29ZM112.15,39.59a6.59,6.59,0,0,0-6.58,6.58V172.8a6.59,6.59,0,0,0,6.58,6.58H287.68a6.59,6.59,0,0,0,6.58-6.58V46.17a6.59,6.59,0,0,0-6.58-6.58Z" fill="#231f20"></path><rect x="111.91" y="46.74" width="175.6" height="125.29"></rect><rect x="115.42" y="56.47" width="81.36" height="48" fill="#fff"></rect><rect x="202.6" y="56.47" width="81.36" height="48" fill="#fff"></rect><rect x="159.01" y="108.36" width="81.36" height="48" fill="#fff"></rect><path d="M287.4,161.49H112a.5.5,0,0,1-.5-.5.5.5,0,0,1,.5-.5H287.4a.5.5,0,0,1,.5.5A.5.5,0,0,1,287.4,161.49Z" fill="#d1d3d4"></path><circle cx="120.28" cy="166.38" r="2.33" fill="#d1d3d4"></circle><circle cx="129.04" cy="166.38" r="2.33" fill="#d1d3d4"></circle><circle cx="137.81" cy="166.38" r="2.33" fill="#d1d3d4"></circle><circle cx="146.58" cy="166.38" r="2.33" fill="#d1d3d4"></circle><path d="M204.61,164.11a.91.91,0,0,0-.86-.08l-1.42.59a.89.89,0,0,0-.5.54v-1.1a.85.85,0,0,0-.85-.85h-5.7a.85.85,0,0,0-.85.85v4.26a.86.86,0,0,0,.85.86H201a.86.86,0,0,0,.85-.86v-1.09a.89.89,0,0,0,.5.54l1.42.59a.84.84,0,0,0,.35.07.92.92,0,0,0,.51-.15.85.85,0,0,0,.39-.72v-2.73A.85.85,0,0,0,204.61,164.11Zm-3.78,4.07h-5.4v-4h5.4Zm3.17-.8-1.21-.5v-1.37L204,165Z" fill="#a3a3a3"></path><path d="M254.58,78.76c-.24-1.58.91-3.22,1.22-4.88.43-2.34-.83-4.45-1.84-6.45s-1.11-4.16-2.39-5.81c-2.43-3.11-7.46-5.17-11.28-3.71a10.31,10.31,0,0,0-6.78,10.66,9.71,9.71,0,0,1,.23,3.26c-.48,2.28-3.32,3.94-2.78,6.21a15.24,15.24,0,0,0,1,2.15c1,2.33-.89,4.79-1.37,7.26-.42,2.17.23,4.4.93,6.5.61,1.82,1.37,3.79,3.05,4.72a7.31,7.31,0,0,0,3.47.68c5.29.08,10.87-.95,14.85-4.43S258.62,85,255.6,80.7a7,7,0,0,1-.85-1.34A2.7,2.7,0,0,1,254.58,78.76Z" fill="#fff"></path><path d="M238.67,99.81h-.58a7.7,7.7,0,0,1-3.69-.73c-1.82-1-2.64-3.1-3.26-5-.72-2.16-1.39-4.47-.95-6.73a16,16,0,0,1,.8-2.52c.6-1.59,1.16-3.08.6-4.47a5.47,5.47,0,0,0-.44-.82,5.42,5.42,0,0,1-.64-1.4c-.35-1.52.55-2.74,1.42-3.93a7,7,0,0,0,1.36-2.49,5.87,5.87,0,0,0-.11-2.27c0-.28-.09-.56-.13-.83a10.81,10.81,0,0,1,7.08-11.15c4.18-1.6,9.38.76,11.8,3.86a10.76,10.76,0,0,1,1.57,3.51,16,16,0,0,0,.87,2.37l.32.62c.92,1.81,2,3.87,1.56,6.12a12.18,12.18,0,0,1-.62,2,5.59,5.59,0,0,0-.59,2.76,2,2,0,0,0,.13.5,4.24,4.24,0,0,0,.59,1l.21.3c3.34,4.77,1.18,11.41-2.73,14.83C249.83,98.24,244.8,99.81,238.67,99.81ZM243,57.89a7.17,7.17,0,0,0-2.53.44A9.87,9.87,0,0,0,234,68.51c0,.27.08.53.12.8a6.73,6.73,0,0,1,.11,2.61,7.77,7.77,0,0,1-1.53,2.84c-.81,1.11-1.52,2.08-1.26,3.18a4.08,4.08,0,0,0,.54,1.14,7,7,0,0,1,.49.94c.71,1.72,0,3.46-.58,5.14a14.28,14.28,0,0,0-.76,2.38c-.4,2,.21,4.13.91,6.27.57,1.71,1.31,3.61,2.84,4.46a7.08,7.08,0,0,0,3.26.62c6.18.1,11.2-1.39,14.54-4.31,3.63-3.17,5.53-9.4,2.58-13.62l-.2-.28a5.27,5.27,0,0,1-.7-1.15,3.29,3.29,0,0,1-.19-.7h0a6.53,6.53,0,0,1,.64-3.22,10.66,10.66,0,0,0,.58-1.82c.36-1.94-.57-3.77-1.48-5.53l-.31-.63a15.24,15.24,0,0,1-.93-2.51,9.82,9.82,0,0,0-1.43-3.22A11.13,11.13,0,0,0,243,57.89Z" fill="#231f20"></path><path d="M234.88,104.57c2-2.84,3.54-5.28,3.54-5.28l-5.65-14.86L218,104.57h16.93Z" fill="#1ca7ec"></path><path d="M259.73,104.57c.48-7.2.62-17.21-1.77-20.85-1.48-3.36-5.41-3.36-14.39-3,0,0-9.43.87-11.66,4.71-1.38,2.39-1.68,12.1-1.7,19.09Z" fill="#1ca7ec"></path><polygon points="248.6 104.58 249.14 81.19 240.78 82.71 239.4 104.58 248.6 104.58" fill="#fff"></polygon><path d="M240.81,77.61l0,5.51a2.86,2.86,0,0,0,3.91,2.14,6.94,6.94,0,0,0,4.45-4l-.38-9.54a16.82,16.82,0,0,1-.55-5.11,12.19,12.19,0,0,1-7.28-3.14s-1.4,2.1-2,2.77A7.77,7.77,0,0,0,237.67,68a7.15,7.15,0,0,0-.52,3.55,23.07,23.07,0,0,0,.41,4.15C238.1,78.25,240.81,77.61,240.81,77.61Z" fill="#fff"></path><path d="M243.5,85.89a3.15,3.15,0,0,1-1.68-.45,3.61,3.61,0,0,1-1.49-2.24l0-5.07a3.41,3.41,0,0,1-2-.46,2.86,2.86,0,0,1-1.23-1.93,22.62,22.62,0,0,1-.43-4.23,7.73,7.73,0,0,1,.57-3.78A8.68,8.68,0,0,1,238.59,66c.58-.63,1.95-2.69,2-2.71a.48.48,0,0,1,.33-.21.46.46,0,0,1,.37.13s3.13,3,7,3a.45.45,0,0,1,.32.14.49.49,0,0,1,.13.33,15.77,15.77,0,0,0,.44,4.56,3.05,3.05,0,0,1,.11.52c0,.08.38,9.54.38,9.54a.47.47,0,0,1,0,.17,7.33,7.33,0,0,1-4.76,4.24A4.82,4.82,0,0,1,243.5,85.89Zm-2.26-2.77a2.39,2.39,0,0,0,3.33,1.7,6.57,6.57,0,0,0,4.11-3.59c-.38-9.45-.38-9.45-.38-9.46s0-.18-.07-.31a16,16,0,0,1-.48-4.37A12.43,12.43,0,0,1,241,64.2a28.52,28.52,0,0,1-1.76,2.39,8.32,8.32,0,0,0-1.19,1.57,6.78,6.78,0,0,0-.46,3.33,21.86,21.86,0,0,0,.4,4.07,2,2,0,0,0,.83,1.34,2.75,2.75,0,0,0,1.87.26.49.49,0,0,1,.39.09.46.46,0,0,1,.17.36l0,5.51Z" fill="#231f20"></path><path d="M242.76,69.69s-1.77,2.65-1.35,3.11S243,73,243,73" fill="#fff"></path><path d="M242.24,73.5a1.54,1.54,0,0,1-1.15-.4c-.17-.18-.66-.72,1.31-3.65a.43.43,0,0,1,.61-.12.44.44,0,0,1,.12.61,9.39,9.39,0,0,0-1.34,2.6,2,2,0,0,0,1.11,0,.44.44,0,0,1,.54.31.44.44,0,0,1-.32.54A3.23,3.23,0,0,1,242.24,73.5Zm-.45-.9h0Z" fill="#231f20"></path><ellipse cx="240.25" cy="69.22" rx="0.57" ry="0.3" transform="translate(161.64 306.57) rotate(-87.75)" fill="#231f20"></ellipse><ellipse cx="244.45" cy="68.7" rx="0.57" ry="0.3" transform="matrix(0.04, -1, 1, 0.04, 166.19, 310.26)" fill="#231f20"></ellipse><path d="M230.21,103.66h-.05a.44.44,0,0,1-.39-.49c.2-1.73.75-4.33,1.29-6.85s1.08-5.09,1.27-6.78a.44.44,0,0,1,.49-.39.45.45,0,0,1,.39.49c-.2,1.73-.75,4.34-1.29,6.86s-1.08,5.09-1.27,6.77A.44.44,0,0,1,230.21,103.66Z" fill="#231f20"></path><path d="M246.92,69a5.18,5.18,0,0,1,1-1.87,1.75,1.75,0,0,1,2-.47,2.16,2.16,0,0,1,.95,2,8.91,8.91,0,0,1-.48,2.65,3.19,3.19,0,0,1-.76,1.37,1.21,1.21,0,0,1-1.45.21" fill="#fff"></path><path d="M248.7,73.49a1.4,1.4,0,0,1-.8-.25.45.45,0,1,1,.51-.75.78.78,0,0,0,.89-.17,2.63,2.63,0,0,0,.63-1.18,8.12,8.12,0,0,0,.46-2.5c0-.3,0-1.31-.69-1.62a1.34,1.34,0,0,0-1.43.38,4.88,4.88,0,0,0-.92,1.71.46.46,0,0,1-.59.26.46.46,0,0,1-.27-.59,5.58,5.58,0,0,1,1.13-2,2.23,2.23,0,0,1,2.48-.56,2.51,2.51,0,0,1,1.2,2.45,9.05,9.05,0,0,1-.5,2.78,3.57,3.57,0,0,1-.88,1.57A1.87,1.87,0,0,1,248.7,73.49Z" fill="#231f20"></path><path d="M267.53,104.57c-1-5.19-2.77-13.17-3.91-15.45-1.74-3.48-7-7.15-7-7.15l-.68,22.6Z" fill="#1ca7ec"></path><path d="M255.34,103.66a.44.44,0,0,1-.44-.41l-1.06-13.63a.44.44,0,0,1,.41-.48.43.43,0,0,1,.47.41l1.06,13.63a.45.45,0,0,1-.41.48Z" fill="#231f20"></path><path d="M239.9,74.48s3,1.94,5.21-.56" fill="#fff"></path><path d="M242.35,75.64a5.2,5.2,0,0,1-2.69-.79.45.45,0,0,1-.13-.61.43.43,0,0,1,.61-.13c.11.06,2.72,1.7,4.64-.49a.44.44,0,0,1,.63,0,.43.43,0,0,1,0,.62A4,4,0,0,1,242.35,75.64Z" fill="#231f20"></path><path d="M218,62.47h-7.74a.5.5,0,0,1-.5-.5.5.5,0,0,1,.5-.5H218a.5.5,0,0,1,.5.5A.5.5,0,0,1,218,62.47Z" fill="#d1d3d4"></path><path d="M127.13,62.47h-7.74a.5.5,0,0,1-.5-.5.5.5,0,0,1,.5-.5h7.74a.5.5,0,0,1,.5.5A.5.5,0,0,1,127.13,62.47Z" fill="#d1d3d4"></path><path d="M173.51,115.2h-7.74a.5.5,0,0,1-.5-.5.5.5,0,0,1,.5-.5h7.74a.5.5,0,0,1,.5.5A.5.5,0,0,1,173.51,115.2Z" fill="#d1d3d4"></path><path d="M150.76,73.64a40.59,40.59,0,0,1-1.07-5.31,8,8,0,0,1,1.11-5.2,3.28,3.28,0,0,1,1.65-1.34,1.8,1.8,0,0,1,2,.57,4.65,4.65,0,0,1,2-1.52,10.92,10.92,0,0,1,5.8-1.11,7.87,7.87,0,0,1,5.2,2.66,22.18,22.18,0,0,0,1.55,1.93,4.32,4.32,0,0,0,3.88,1.08A9.93,9.93,0,0,1,168.6,72a19.19,19.19,0,0,1-7.39,3,12.11,12.11,0,0,1-4.19.3,5.27,5.27,0,0,1-3.6-2" fill="#fff"></path><path d="M158.15,75.81a8.06,8.06,0,0,1-1.2-.08A5.81,5.81,0,0,1,153,73.54a.51.51,0,1,1,.83-.6,4.79,4.79,0,0,0,3.26,1.77,11.78,11.78,0,0,0,4-.3,18.23,18.23,0,0,0,7.19-2.88A9.56,9.56,0,0,0,172.18,66a4.75,4.75,0,0,1-3.61-1.31,9.15,9.15,0,0,1-1-1.24c-.18-.25-.35-.5-.55-.73a7.29,7.29,0,0,0-4.86-2.47,10.26,10.26,0,0,0-5.53,1.06,4.33,4.33,0,0,0-1.77,1.34.53.53,0,0,1-.42.23.59.59,0,0,1-.43-.22,1.27,1.27,0,0,0-1.38-.37,2.82,2.82,0,0,0-1.38,1.14,7.52,7.52,0,0,0-1,4.86,26.78,26.78,0,0,0,.73,3.84c.12.46.23.93.33,1.4a.51.51,0,1,1-1,.22c-.1-.46-.22-.92-.33-1.38a27.57,27.57,0,0,1-.76-4,8.6,8.6,0,0,1,1.2-5.54,3.73,3.73,0,0,1,1.93-1.54,2.38,2.38,0,0,1,2.06.3,5.8,5.8,0,0,1,1.8-1.22,11.29,11.29,0,0,1,6.08-1.16,8.39,8.39,0,0,1,5.54,2.83c.21.26.41.52.6.79a7.77,7.77,0,0,0,.9,1.11,3.86,3.86,0,0,0,3.42.94.52.52,0,0,1,.46.12.51.51,0,0,1,.16.45,10.41,10.41,0,0,1-4.42,6.91,19.39,19.39,0,0,1-7.58,3A15.62,15.62,0,0,1,158.15,75.81Z" fill="#231f20"></path><path d="M173.53,104.57c-2-9.25-6.9-20.06-7.78-20.46-2.13-1-13.38-2.07-15.92,2.26-.8,1.36-.33,10.34.69,18.2Z" fill="#231f20"></path><path d="M154.52,104.57,152.29,84.8,164,86.37l2.63,18.2h16.12C180,95.14,173,86.4,171.67,85c-5-5.42-18.49-5-18.49-5s-11.39,2.59-14.31,8c-.73,1.36-1.48,10.8-1.57,16.64Z" fill="#1ca7ec"></path><path d="M163.51,81.65l.53,4.72s-1.91,5.71-6.07,4.74-5.68-6.31-5.68-6.31l-.06-10s3.06-1.67,2.1-8.34a20.57,20.57,0,0,0,10.8,1.4s2,7.23,1.48,10.45A3.51,3.51,0,0,1,163.51,81.65Z" fill="#fff"></path><path d="M158.88,91.74a4.73,4.73,0,0,1-1-.12c-4.41-1-6-6.44-6.06-6.67a.78.78,0,0,1,0-.14l-.06-10a.54.54,0,0,1,.27-.46s2.73-1.64,1.84-7.82A.52.52,0,0,1,154,66a.53.53,0,0,1,.53-.05,20.12,20.12,0,0,0,10.51,1.36.49.49,0,0,1,.56.37c.09.3,2,7.38,1.5,10.66a4.17,4.17,0,0,1-3,3.71l.47,4.22a.46.46,0,0,1,0,.23C163.88,88.45,161.94,91.74,158.88,91.74Zm-6.08-7c.19.58,1.71,5,5.28,5.88,3.36.78,5.16-3.57,5.43-4.3l-.51-4.6a.51.51,0,0,1,.49-.57,3,3,0,0,0,2.61-2.9c.38-2.64-1-8.22-1.36-9.81A21.42,21.42,0,0,1,155,67.27c.51,5.19-1.46,7.23-2.2,7.8Z" fill="#231f20"></path><path d="M160.62,71.88s2,3.63,1.37,4.17-2.08,0-2.08,0" fill="#fff"></path><path d="M161.16,76.8a4.36,4.36,0,0,1-1.42-.27.5.5,0,1,1,.34-.94c.5.18,1.33.31,1.58.09a14,14,0,0,0-1.48-3.56.5.5,0,1,1,.87-.48c1.44,2.64,1.87,4.24,1.28,4.78A1.69,1.69,0,0,1,161.16,76.8Z" fill="#231f20"></path><path d="M160.56,79.22h-.26a4.53,4.53,0,0,1-3.15-1.7.5.5,0,0,1,.76-.65,3.52,3.52,0,0,0,2.44,1.35,4.68,4.68,0,0,0,3.07-1.15.5.5,0,0,1,.67.75A5.87,5.87,0,0,1,160.56,79.22Z" fill="#231f20"></path><ellipse cx="158.07" cy="71.26" rx="0.93" ry="0.41" transform="translate(76.54 224.29) rotate(-86.22)" fill="#231f20"></ellipse><ellipse cx="163.62" cy="71.26" rx="0.93" ry="0.41" transform="translate(81.73 229.83) rotate(-86.22)" fill="#231f20"></ellipse><path d="M154.9,73.09a5.74,5.74,0,0,0-1.43-1.63A2,2,0,0,0,152.4,71a1.76,1.76,0,0,0-.91.27,3.39,3.39,0,0,0-1.6,2.25,2.6,2.6,0,0,0,.05,1.3,3,3,0,0,0,1.29,1.56,8.94,8.94,0,0,0,1.9.82" fill="#fff"></path><path d="M153.12,77.7a.45.45,0,0,1-.16,0,8.79,8.79,0,0,1-2-.87A3.5,3.5,0,0,1,149.44,75a3.22,3.22,0,0,1-.06-1.55,3.86,3.86,0,0,1,1.85-2.59,2,2,0,0,1,1.19-.34,2.47,2.47,0,0,1,1.36.57,6,6,0,0,1,1.56,1.77.52.52,0,0,1-.18.71.53.53,0,0,1-.71-.18,5.12,5.12,0,0,0-1.3-1.48,1.41,1.41,0,0,0-.77-.36,1.18,1.18,0,0,0-.63.2,2.86,2.86,0,0,0-1.36,1.9,2.17,2.17,0,0,0,0,1,2.48,2.48,0,0,0,1.08,1.27,8.33,8.33,0,0,0,1.78.77.51.51,0,0,1-.17,1Z" fill="#231f20"></path><path d="M176,104a.52.52,0,0,1-.5-.36c-.36-1.2-1.21-3.49-2-5.71s-1.69-4.55-2.06-5.78a.52.52,0,0,1,1-.3c.36,1.2,1.22,3.5,2,5.72s1.69,4.54,2.06,5.76a.52.52,0,0,1-.34.65Z" fill="#231f20"></path><path d="M147.05,104a.51.51,0,0,1-.52-.51v-13a.52.52,0,0,1,1,0v13A.51.51,0,0,1,147.05,104Z" fill="#231f20"></path><path d="M133.91,95s-1.46-5.73-1.46-6.34a53.15,53.15,0,0,0,0-6.06c-.23-1-1.69-1.08-2.07,1.38,0,0-.84-5.45-1.61-5.6s-2.91,1.14-3.45,2.22,2.76,15.8,2.76,15.8" fill="#fff"></path><path d="M128.08,96.9a.51.51,0,0,1-.5-.41c-1-4.48-3.28-15-2.72-16.14s3-2.71,4-2.5c.27.06.94.19,1.7,4.18a1.55,1.55,0,0,1,1.12-.62,1.24,1.24,0,0,1,1.27,1,35,35,0,0,1,0,5.3c0,.43,0,.74,0,.88,0,.41.85,3.88,1.44,6.21a.52.52,0,0,1-1,.25c-.35-1.36-1.47-5.83-1.47-6.46,0-.14,0-.47,0-.91a39.83,39.83,0,0,0,0-5c0-.11-.08-.23-.22-.25s-.66.45-.84,1.6a.51.51,0,0,1-.51.43h0a.52.52,0,0,1-.51-.43,20.58,20.58,0,0,0-1.28-5.18,5,5,0,0,0-2.81,2c-.23.85,1.27,8.61,2.8,15.46a.51.51,0,0,1-.39.62Z" fill="#231f20"></path><polygon points="138.53 104.58 134.27 93.33 126.75 94.97 127.5 104.58 138.53 104.58" fill="#1ca7ec"></polygon><path d="M130.38,84s-1.9,1.72-.79,3.4" fill="#fff"></path><path d="M129.59,87.88a.53.53,0,0,1-.44-.23c-1.06-1.62.11-3.37.88-4.07a.51.51,0,0,1,.73,0,.52.52,0,0,1,0,.73c-.06.06-1.56,1.45-.71,2.74a.53.53,0,0,1-.15.72A.6.6,0,0,1,129.59,87.88Z" fill="#231f20"></path><path d="M225,139.47s5.16-7.68,5.07-5.89a9,9,0,0,1-.86,3.28s5.93-2.63,6.3-1.41-4.13,4.36-4.5,4.86-1.8,2.84-1.8,2.84" fill="#fff"></path><path d="M229.23,143.61a.48.48,0,0,1-.23-.07.46.46,0,0,1-.16-.63c.06-.1,1.45-2.37,1.83-2.88a9,9,0,0,1,1.05-.91c2.95-2.42,3.47-3.25,3.39-3.53-.39-.25-3.06.52-5.69,1.69a.45.45,0,0,1-.52-.11.45.45,0,0,1-.07-.52,9.19,9.19,0,0,0,.76-2.5,53.07,53.07,0,0,0-4.18,5.58.46.46,0,0,1-.76-.51c4.49-6.68,5.17-6.45,5.5-6.34a.64.64,0,0,1,.41.72,8.89,8.89,0,0,1-.49,2.41c1.68-.69,4.44-1.67,5.44-1.21a.82.82,0,0,1,.47.52c.34,1.11-1.47,2.69-3.69,4.5-.38.32-.81.67-.89.77-.29.38-1.38,2.15-1.78,2.8A.44.44,0,0,1,229.23,143.61Z" fill="#231f20"></path><path d="M224.85,137.79s-8.09,10.91-9.1,10.77-10.82-14.36-10.82-14.36l0,.28c-1.52-2-4.41-2.83-10.68-2,0,0-12.29.29-15,4.71-1.55,2.55-7,11.65-9.59,19.38h53.47a128.37,128.37,0,0,0,7.39-13.35Z" fill="#1ca7ec"></path><path d="M187,114c2.84-5.72,10.86-5.87,15.36-1.91s4.76,11.45,4.75,16.93a22.25,22.25,0,0,1-23.43.39C184.19,126.5,186.08,115.89,187,114Z" fill="#fff"></path><path d="M195.07,133a22.18,22.18,0,0,1-11.62-3.18.46.46,0,0,1-.21-.47c.24-1.37,2.32-13.44,3.36-15.53h0a8.71,8.71,0,0,1,6.3-4.68,11.65,11.65,0,0,1,9.77,2.63c4.34,3.81,4.92,10.87,4.91,17.27a.47.47,0,0,1-.21.38A22.35,22.35,0,0,1,195.07,133Zm-10.88-3.8a21.93,21.93,0,0,0,22.47-.41c0-6.13-.58-12.81-4.59-16.34a10.73,10.73,0,0,0-9-2.41,7.81,7.81,0,0,0-5.66,4.18h0C186.64,115.78,185.05,124.22,184.19,129.19Z" fill="#231f20"></path><path d="M188.27,133s-1,5.28-.72,7.18c.33,2.59.19,6.71,5.84,6.52,4.44-.16,9.31-13.77,9.31-13.77S194.59,131.51,188.27,133Z" fill="#231f20"></path><path d="M193,147.09c-5.17,0-5.56-3.69-5.82-6.15l-.09-.75c-.25-1.95.68-7.1.72-7.32a.45.45,0,0,1,.34-.35c6.33-1.44,14.27-.13,14.61-.08a.45.45,0,0,1,.3.22.43.43,0,0,1,0,.37c-.51,1.42-5.11,13.9-9.72,14.06Zm-4.37-13.77a34.78,34.78,0,0,0-.67,6.76c0,.24.06.5.09.76.28,2.59.6,5.52,5.3,5.37,3.25-.12,7.23-9,8.73-13C200.25,133,193.85,132.22,188.65,133.32Z" fill="#231f20"></path><path d="M189.23,122.71a3.28,3.28,0,0,0-.67-1.23,1.14,1.14,0,0,0-1.28-.31,1.07,1.07,0,0,0-.54.87,2.37,2.37,0,0,0,.17,1,4.17,4.17,0,0,0,1,1.67,2.38,2.38,0,0,0,1.79.7" fill="#fff"></path><path d="M189.58,125.87a2.84,2.84,0,0,1-1.92-.82,4.42,4.42,0,0,1-1.12-1.83,2.84,2.84,0,0,1-.2-1.22,1.51,1.51,0,0,1,.76-1.18,1.53,1.53,0,0,1,1.75.38,3.78,3.78,0,0,1,.75,1.37.4.4,0,0,1-.23.51.4.4,0,0,1-.51-.23,3.16,3.16,0,0,0-.58-1.09.76.76,0,0,0-.82-.23.7.7,0,0,0-.33.55,2.09,2.09,0,0,0,.16.88,3.72,3.72,0,0,0,.91,1.51,2.06,2.06,0,0,0,1.49.6.39.39,0,0,1,.43.37.41.41,0,0,1-.37.42Z" fill="#231f20"></path><path d="M191.72,129l-.56,5.59a2.92,2.92,0,0,0,3.77,2.55,7,7,0,0,0,4.89-3.59l.53-9.72c0-.41-1.49-2.12-1.09-5.67a8.69,8.69,0,0,1-6.08-3.46s-1.62,2-2.3,2.62a8.19,8.19,0,0,0-1.44,1.56c-1.07,1.64-1,4.3-.78,6.16C188.88,126.59,189.78,129,191.72,129Z" fill="#fff"></path><path d="M194.05,137.68A3.28,3.28,0,0,1,192,137a3.73,3.73,0,0,1-1.3-2.41l.52-5.21c-1.93-.34-2.8-2.81-3-4.32-.18-1.28-.46-4.48.85-6.47a8.88,8.88,0,0,1,1.51-1.65c.65-.59,2.24-2.55,2.26-2.57a.52.52,0,0,1,.38-.17.49.49,0,0,1,.36.21,8.23,8.23,0,0,0,5.74,3.25.53.53,0,0,1,.31.17.47.47,0,0,1,.1.34,8.21,8.21,0,0,0,.83,4.88,1.48,1.48,0,0,1,.25.76c0,.1-.52,9.73-.52,9.73a.47.47,0,0,1,0,.17,7.52,7.52,0,0,1-5.23,3.84A5.54,5.54,0,0,1,194.05,137.68Zm-2.44-3.05a2.9,2.9,0,0,0,.95,1.69,2.85,2.85,0,0,0,2.28.37,6.64,6.64,0,0,0,4.53-3.26c.52-9.64.52-9.64.52-9.66s-.09-.14-.16-.29a9,9,0,0,1-1-4.93,9.13,9.13,0,0,1-5.6-3.12c-.53.64-1.48,1.77-2,2.23a7.72,7.72,0,0,0-1.37,1.48c-1.13,1.72-.87,4.65-.7,5.83.18,1.33.93,3.57,2.55,3.57h.05a.45.45,0,0,1,.33.15.42.42,0,0,1,.12.35l-.56,5.59Z" fill="#231f20"></path><path d="M194.75,119.54s-2.05,2.52-1.66,3,1.61.31,1.61.31" fill="#fff"></path><path d="M194.17,123.36a1.81,1.81,0,0,1-1.44-.53c-.14-.19-.59-.78,1.68-3.57a.44.44,0,0,1,.62-.07.46.46,0,0,1,.07.63,9.69,9.69,0,0,0-1.62,2.52,2.14,2.14,0,0,0,1.15.1.43.43,0,0,1,.5.36.44.44,0,0,1-.36.51A3.3,3.3,0,0,1,194.17,123.36Zm-.69-1h0Z" fill="#231f20"></path><ellipse cx="192.4" cy="120.09" rx="0.58" ry="0.31" transform="translate(47.87 294.87) rotate(-82.38)" fill="#231f20"></ellipse><ellipse cx="197.22" cy="120.48" rx="0.58" ry="0.31" transform="translate(74.45 316.29) rotate(-89.33)" fill="#231f20"></ellipse><path d="M199.16,121.69a3.71,3.71,0,0,1,.63-1.33,1.77,1.77,0,0,1,1.45-.74,1.16,1.16,0,0,1,.88.47,1.62,1.62,0,0,1,.23.67,3.49,3.49,0,0,1-1.4,3.51,1.26,1.26,0,0,1-1.32,0" fill="#fff"></path><path d="M200.22,124.87a1.33,1.33,0,0,1-.83-.27.4.4,0,1,1,.48-.63.89.89,0,0,0,.89,0,3.14,3.14,0,0,0,1.2-3.1,1.15,1.15,0,0,0-.17-.5.72.72,0,0,0-.57-.3,1.38,1.38,0,0,0-1.12.58,3.7,3.7,0,0,0-.56,1.2.41.41,0,0,1-.5.27.39.39,0,0,1-.26-.5,4.37,4.37,0,0,1,.69-1.46,2.2,2.2,0,0,1,1.79-.89,1.53,1.53,0,0,1,1.19.65,1.88,1.88,0,0,1,.29.83,3.89,3.89,0,0,1-1.6,3.92A2,2,0,0,1,200.22,124.87Z" fill="#231f20"></path><path d="M191.67,125l5.39.15s-.72,2.87-3,2.73S191.67,125,191.67,125Z" fill="#231f20"></path><path d="M181.16,155.29h0a.52.52,0,0,1-.5-.51c0-.41,1.78-9.94,2.54-14a.52.52,0,0,1,.61-.41.51.51,0,0,1,.41.6c-1,5.3-2.49,13.36-2.53,13.85A.52.52,0,0,1,181.16,155.29Z" fill="#231f20"></path><path d="M203.69,156.18a.52.52,0,0,1-.52-.52V140.31a.52.52,0,1,1,1,0v15.35A.51.51,0,0,1,203.69,156.18Z" fill="#231f20"></path></g></svg>