<svg xmlns="http://www.w3.org/2000/svg" viewBox="0 0 400 300" width="406" height="306" class="illustration styles_illustrationTablet__1DWOa"><g id="_006" data-name="006"><path d="M39.38,213.81v7.56c0,2.18,3.06,3.94,4.52,4.35S232,281.53,239.44,281.33s10.11-1,11.7-2.07S354,220.58,356.67,218.92s2.85-2.71,2.95-4c.27-3.57,1.2-11.6,1.2-11.6Z" fill="#fff"></path><path d="M239.4,281.79c-6.53,0-122.94-34.13-191.86-54.51l-3.77-1.11c-1.69-.48-4.85-2.38-4.85-4.8v-7.56a.46.46,0,0,1,.44-.46L360.8,202.84a.4.4,0,0,1,.36.15.45.45,0,0,1,.11.37c0,.08-.93,8-1.19,11.57-.11,1.48-.4,2.66-3.16,4.38-1.38.86-28.82,16.52-55.36,31.65-24.29,13.86-49.4,28.19-50.17,28.68-1.51,1-4,1.93-11.94,2.15ZM39.84,214.26v7.11c0,1.81,2.68,3.48,4.18,3.91l3.78,1.11C164.92,261,234.69,280.87,239.38,280.87h0c7.71-.22,10.07-1.09,11.47-2,.79-.51,24.8-14.21,50.21-28.7,26.53-15.14,54-30.79,55.33-31.64,2.58-1.61,2.65-2.56,2.73-3.66.22-3,.93-9.24,1.14-11.09Z" fill="#d1d3d4"></path><path d="M148,165,41.35,211.78c-2.28,1-1.91,3.64.59,4.23l194.41,49.66A19,19,0,0,0,249.6,264l109.88-58.41c2.12-1.15,1.48-3.71-1-4.16L150.1,164.72A3.82,3.82,0,0,0,148,165Z" fill="#fff"></path><path d="M240.83,266.66a19.85,19.85,0,0,1-4.59-.54L41.83,216.46A3,3,0,0,1,39.38,214a2.67,2.67,0,0,1,1.78-2.64L147.8,164.54a4.11,4.11,0,0,1,2.38-.27L358.52,201a3,3,0,0,1,2.66,2.35A2.56,2.56,0,0,1,359.7,206L249.81,264.45A19,19,0,0,1,240.83,266.66ZM149.44,165.12a3,3,0,0,0-1.27.27h0L41.53,212.2a1.77,1.77,0,0,0-1.23,1.72,2,2,0,0,0,1.75,1.65l194.41,49.66a18.5,18.5,0,0,0,12.92-1.6l109.88-58.41a1.69,1.69,0,0,0,1-1.7,2.19,2.19,0,0,0-1.92-1.6L150,165.18A2.78,2.78,0,0,0,149.44,165.12ZM148,165h0Z" fill="#d1d3d4"></path><polygon points="336.27 204.7 238.22 255.42 69.35 215.06 156.43 174.47 336.27 204.7" fill="#fff"></polygon><path d="M238.22,255.88h-.11L69.24,215.5a.45.45,0,0,1-.35-.4.46.46,0,0,1,.27-.46l87.08-40.59a.5.5,0,0,1,.27,0l179.84,30.24a.45.45,0,0,1,.38.38.46.46,0,0,1-.24.48l-98.06,50.72A.54.54,0,0,1,238.22,255.88Zm-167.48-41,167.42,40,96.68-50-178.34-30Z" fill="#d1d3d4"></path><path d="M228.46,55.35c-.44-.28-1.11-.53-1.41-.11s0,.85.29,1.19a37.48,37.48,0,0,0,4.54,4.8,1.26,1.26,0,0,0,.86.43c.52,0,.8-.68.73-1.21C233.12,57.89,230.46,56.67,228.46,55.35Z" fill="#fff"></path><path d="M232.7,62.11a1.7,1.7,0,0,1-1.12-.54,37.11,37.11,0,0,1-4.6-4.86c-.67-.84-.53-1.41-.3-1.73.4-.55,1.19-.56,2,0h0l.95.61c1.85,1.14,3.94,2.43,4.26,4.81a1.74,1.74,0,0,1-.35,1.3,1.16,1.16,0,0,1-.81.42Zm-5.17-6.64a.16.16,0,0,0-.11,0c0,.07,0,.32.28.64a36.49,36.49,0,0,0,4.48,4.74,1.21,1.21,0,0,0,.53.31s.08,0,.16-.09a.86.86,0,0,0,.14-.6c-.26-1.95-2.07-3.07-3.83-4.16l-1-.61A1.36,1.36,0,0,0,227.53,55.47Z" fill="#231f20"></path><path d="M245.35,72.16l-2.64-2.88s.11-4.06-.42-4.91-9.75-6.9-9.67-6.67.61,7.9.61,7.9l9.82,12Z" fill="#fff"></path><path d="M243.05,78a.46.46,0,0,1-.35-.17l-9.82-12a.46.46,0,0,1-.1-.26c-.21-3-.54-7.48-.6-7.83a.41.41,0,0,1,.25-.52c.26-.12.38-.18,5.14,3,3.11,2.11,4.83,3.39,5.1,3.82.54.85.52,4,.5,5l2.52,2.74a.46.46,0,0,1,.08.49l-2.3,5.4a.46.46,0,0,1-.35.28Zm-9.37-12.6,9.25,11.27,1.89-4.44-2.45-2.66a.47.47,0,0,1-.12-.32c.05-1.63,0-4.15-.35-4.65s-6.6-4.78-8.74-6.1C233.25,59.48,233.4,61.43,233.68,65.42Z" fill="#231f20"></path><path d="M267.21,65.6l-9,18L245.89,69.89l-6,9.21s21.09,29.3,25.69,27S279,82.63,279,82.63Z" fill="#1ca7ec"></path><path d="M283.07,131.8l-22,66.46s-21.64-2.92-21.94-3.82,13.62-4.13,13.62-4.13l17.63-64.12" fill="#fff"></path><path d="M261.11,198.76H261c-22-3-22.22-3.79-22.34-4.15a.69.69,0,0,1,.05-.49c.57-1,8.66-3.05,13.64-4.22l17.55-63.84a.5.5,0,0,1,1,.27l-17.64,64.12a.49.49,0,0,1-.36.36,111.72,111.72,0,0,0-12.78,3.54c2.76.78,13.53,2.4,20.63,3.37l21.84-66.07a.5.5,0,0,1,.63-.32.51.51,0,0,1,.32.63l-22,66.47A.51.51,0,0,1,261.11,198.76Zm-21.58-4.65Z" fill="#231f20"></path><path d="M306.94,126.8l4.57,74.77s-21.74,4.72-21.83,4.16,11.72-9,11.72-9l-8.88-69" fill="#fff"></path><path d="M289.83,206.24a.68.68,0,0,1-.42-.08.57.57,0,0,1-.22-.36c-.05-.36-.12-.86,11.68-9.26L292,127.79a.5.5,0,1,1,1-.13l8.88,69.05a.51.51,0,0,1-.21.47c-3.47,2.47-8.74,6.32-10.76,8,3.38-.48,13.37-2.55,20.06-4l-4.55-74.35a.5.5,0,0,1,.47-.52.48.48,0,0,1,.53.46L312,201.54a.49.49,0,0,1-.39.52C295,205.68,290.91,206.24,289.83,206.24Z" fill="#231f20"></path><path d="M248.2,190l2.93,4.48,11.46,1.35-1.13,4.39s-25.23-3.15-25.81-5.46S248.2,190,248.2,190Z" fill="#231f20"></path><path d="M277.93,57.78s-7.92,1.89-10.31,6.8.47,31.19.47,31.19l35.17,1.51s3.6-19.37,1.84-27.67S296.3,50.24,277.93,57.78Z" fill="#1ca7ec"></path><path d="M278,54.17l.25,7.66s.94,4.25,5.55,2.76a9.64,9.64,0,0,0,6-5.73l-1.05-13.24a3.84,3.84,0,0,1-1.86-2.14,6.55,6.55,0,0,1-.45-2.14c0-.28,0-1.94.26-2.06a5.74,5.74,0,0,1-5.28-.63,10.58,10.58,0,0,1-2.17-2.21,2.74,2.74,0,0,1-.81-1.83q-1.92,1.88-3.66,3.93a12.24,12.24,0,0,0-1.66,2.38,10.19,10.19,0,0,0-.52,5,32.64,32.64,0,0,0,.8,5.74C274.29,55.21,278,54.17,278,54.17Z" fill="#fff"></path><path d="M282,65.36a4.07,4.07,0,0,1-2.06-.52,4.79,4.79,0,0,1-2.1-2.91l-.25-7.21a4.66,4.66,0,0,1-2.89-.48,3.82,3.82,0,0,1-1.74-2.5,32.37,32.37,0,0,1-.81-5.82,10.52,10.52,0,0,1,.56-5.2,12.42,12.42,0,0,1,1.72-2.47c1.16-1.38,2.4-2.71,3.69-4a.44.44,0,0,1,.51-.08.44.44,0,0,1,.26.45,2.37,2.37,0,0,0,.72,1.5,10.23,10.23,0,0,0,2.07,2.13,5.36,5.36,0,0,0,4.85.58h0a.45.45,0,0,1,.59.26.44.44,0,0,1-.12.51,6.64,6.64,0,0,0-.1,1.69,5.84,5.84,0,0,0,.41,2,3.53,3.53,0,0,0,1.62,1.9.45.45,0,0,1,.28.38l1,13.23a.37.37,0,0,1,0,.18A10,10,0,0,1,284,65,6.33,6.33,0,0,1,282,65.36Zm-3.26-3.55a3.5,3.5,0,0,0,4.95,2.35,9.31,9.31,0,0,0,5.65-5.36l-1-12.88a4.53,4.53,0,0,1-1.85-2.27,6.9,6.9,0,0,1-.48-2.3A9.54,9.54,0,0,1,286,40a6.22,6.22,0,0,1-4.85-.94,11.05,11.05,0,0,1-2.27-2.31,4.61,4.61,0,0,1-.74-1.18q-1.57,1.59-3,3.3a11.19,11.19,0,0,0-1.59,2.28,9.59,9.59,0,0,0-.48,4.74,31.34,31.34,0,0,0,.79,5.66,2.89,2.89,0,0,0,1.31,1.92,4.08,4.08,0,0,0,2.75.29.49.49,0,0,1,.39.07.47.47,0,0,1,.18.36l.26,7.65Zm0,0h0Zm8.12-22.1h0Z" fill="#231f20"></path><path d="M286,45.07a2.61,2.61,0,0,1,.8-1.49,4.7,4.7,0,0,1,1.38-.83,2,2,0,0,1,.85-.22,1.59,1.59,0,0,1,.59.17,2,2,0,0,1,1.07,1,2.53,2.53,0,0,1,.14,1.16,5.45,5.45,0,0,1-.22,1.27A3.29,3.29,0,0,1,288.94,48a3.34,3.34,0,0,1-2.5.14" fill="#fff"></path><path d="M287.52,48.68a3.68,3.68,0,0,1-1.22-.21.41.41,0,0,1-.24-.51.4.4,0,0,1,.51-.24,2.87,2.87,0,0,0,2.19-.12A2.91,2.91,0,0,0,290.22,46a4.42,4.42,0,0,0,.2-1.17,2.1,2.1,0,0,0-.11-1,1.7,1.7,0,0,0-.86-.76,1.08,1.08,0,0,0-.45-.13,1.68,1.68,0,0,0-.67.18,4.25,4.25,0,0,0-1.27.76,2.21,2.21,0,0,0-.68,1.27.4.4,0,0,1-.78-.13,3,3,0,0,1,.92-1.72,4.87,4.87,0,0,1,1.49-.9,2.3,2.3,0,0,1,1-.26,1.9,1.9,0,0,1,.75.21A2.47,2.47,0,0,1,291,43.49a2.8,2.8,0,0,1,.17,1.35,5,5,0,0,1-.24,1.37,3.62,3.62,0,0,1-3.45,2.47Z" fill="#231f20"></path><path d="M278.22,57.93a7.39,7.39,0,0,0,5-2.13,5.4,5.4,0,0,0,1.54-4.23s-3.64,3-6.76,2.6Z" fill="#231f20"></path><path d="M278.22,58.37h0a.43.43,0,0,1-.44-.42l-.19-3.76a.41.41,0,0,1,.14-.34.44.44,0,0,1,.35-.12c2.91.37,6.39-2.47,6.43-2.5a.44.44,0,0,1,.43-.07.45.45,0,0,1,.28.33,5.77,5.77,0,0,1-1.64,4.6A7.76,7.76,0,0,1,278.22,58.37Zm.27-3.73.15,2.82a6.72,6.72,0,0,0,4.28-2,5.47,5.47,0,0,0,1.44-3.06,11.18,11.18,0,0,1-5.76,2.21Z" fill="#231f20"></path><path d="M278.44,42.9s-2.31,3.77-1.7,4.39,2.23.13,2.23.13" fill="#fff"></path><path d="M277.76,48a1.86,1.86,0,0,1-1.34-.44c-.7-.72.51-3.08,1.65-4.93a.44.44,0,0,1,.61-.15.45.45,0,0,1,.14.61c-1,1.7-1.85,3.52-1.74,3.89.26.24,1.21.14,1.76,0a.44.44,0,0,1,.55.3.44.44,0,0,1-.29.55A5.22,5.22,0,0,1,277.76,48Z" fill="#231f20"></path><ellipse cx="282.55" cy="42.93" rx="0.86" ry="0.61" transform="translate(191.29 313.76) rotate(-80.02)" fill="#231f20"></ellipse><ellipse cx="275.06" cy="44.08" rx="0.86" ry="0.61" transform="translate(183.97 307.33) rotate(-80.02)" fill="#231f20"></ellipse><path d="M276.07,49.38s2.34,3.18,6.1-.12" fill="#fff"></path><path d="M278.86,51.2l-.42,0a4.19,4.19,0,0,1-2.73-1.54.45.45,0,0,1,.1-.62.46.46,0,0,1,.62.09,3.28,3.28,0,0,0,2.12,1.19,4.51,4.51,0,0,0,3.33-1.37.44.44,0,0,1,.62,0,.45.45,0,0,1,0,.63A5.59,5.59,0,0,1,278.86,51.2Z" fill="#231f20"></path><path d="M299.71,97s8.49,9.44,10.85,19.85c5,21.9,3.59,64.61,3.59,64.61l-63.5-10.73,15.9-75.47Z" fill="#231f20"></path><path d="M313.54,202.58l-.66-4.51-13.29,3.67L297,198.32s-9.72,7.06-8.4,8.58S304.33,205.65,313.54,202.58Z" fill="#231f20"></path><path d="M306,117.45c.16.46,1.69,3.87,1.46,6.29s-1.27,7.36-.58,7.47,2.19.24,2.65-5.29c0,0,1,10.93,2.53,8.63s-.46-8.17-.46-8.17,1.73,7.94,2.76,7.37-.46-7.48-.46-7.48,1.15,7.59,2.42,6.79-.12-7.48-.12-7.48,1,8.74,2.42,7.13-2.76-17-2.76-17" fill="#fff"></path><path d="M311.67,135.33l-.18,0c-1-.24-1.61-3.19-2-6.08a4,4,0,0,1-1.17,2.11,1.79,1.79,0,0,1-1.47.33c-.86-.15-.74-1.43-.16-5.35.15-1,.29-1.92.35-2.63.19-2-.93-4.81-1.3-5.74-.06-.17-.11-.29-.13-.36a.46.46,0,0,1,.29-.58.45.45,0,0,1,.57.29c0,.06.07.17.12.31.43,1.09,1.57,4,1.36,6.17-.07.73-.21,1.68-.35,2.67a23.62,23.62,0,0,0-.43,4.34.78.78,0,0,0,.59-.17c.47-.37,1.08-1.48,1.35-4.74a.46.46,0,0,1,.46-.41h0a.45.45,0,0,1,.45.41c.35,3.65,1.08,7.78,1.66,8.48a.21.21,0,0,1,0-.06c.64-1,.55-2.86.26-4.59-.33-1.22-.61-2.43-.79-3.23a.47.47,0,0,1,.33-.54.45.45,0,0,1,.55.3,24.46,24.46,0,0,1,.8,3.21,15.38,15.38,0,0,0,1.38,3.76,13.46,13.46,0,0,0-.22-4c-.25-1.11-.43-2.2-.54-2.92a.45.45,0,0,1,.37-.52.46.46,0,0,1,.53.35c.21,1,.41,2,.56,3a9.79,9.79,0,0,0,1.21,3.46c.3-.31.35-1.66.18-3.43-.25-1.24-.43-2.54-.55-3.57a.46.46,0,0,1,.9-.15c.14.71.41,2.1.56,3.54a9.92,9.92,0,0,0,1,3.39c.72-1.19-.88-9.28-2.84-16.61a.46.46,0,0,1,.32-.56.46.46,0,0,1,.56.33c1,3.67,4.09,15.77,2.67,17.44a.85.85,0,0,1-.92.32c-.32-.1-.61-.48-.87-1a1.73,1.73,0,0,1-.62,1.15.81.81,0,0,1-.77.06,1.7,1.7,0,0,1-.64-.7c-.07.68-.24,1.16-.57,1.35a.73.73,0,0,1-.63,0,2.64,2.64,0,0,1-.92-1.27,4.13,4.13,0,0,1-.59,1.9A.94.94,0,0,1,311.67,135.33Zm-.08-.9Z" fill="#231f20"></path><path d="M303.14,63.67l17.91,51.63-17.25,4.83s-8.06-37.73-8.29-41S303.14,63.67,303.14,63.67Z" fill="#1ca7ec"></path><path d="M304,63.05a.48.48,0,0,1-.29-.11.45.45,0,0,1-.05-.62c1.71-2,1.33-5,.08-7a12.57,12.57,0,0,0-6.17-4.58,9,9,0,0,0-5-.88.44.44,0,0,1-.47-.25.44.44,0,0,1,.1-.52c3.28-2.89,4.75-7.25,3.67-10.84a10.51,10.51,0,0,0-7.4-6.69,17.42,17.42,0,0,0-10.4.79.44.44,0,0,1-.44-.07,6.87,6.87,0,1,0-6.39,11.85.45.45,0,0,1,.3.56.45.45,0,0,1-.56.29,7.74,7.74,0,0,1-1.36-14.26,8,8,0,0,1,8.38.72,18.26,18.26,0,0,1,10.7-.74,11.29,11.29,0,0,1,8,7.29c1.07,3.57-.15,7.82-3,10.9a11.29,11.29,0,0,1,4.22,1c3.13,1.28,5.29,2.89,6.58,4.92,1.43,2.26,1.84,5.75-.14,8.07A.46.46,0,0,1,304,63.05Z" fill="#231f20"></path><path d="M289,42.53s-.41-10.18-5.82-11.79a13.84,13.84,0,0,1,5.33.37S292.07,37.75,289,42.53Z" fill="#231f20"></path><path d="M289,43h-.12a.44.44,0,0,1-.32-.41c0-.1-.46-9.89-5.5-11.39a.45.45,0,0,1-.32-.45.46.46,0,0,1,.39-.41,14.38,14.38,0,0,1,5.53.39.45.45,0,0,1,.24.21c.15.28,3.62,6.93.47,11.87A.45.45,0,0,1,289,43Zm-4.12-11.9c3.11,2.15,4.1,7.25,4.42,9.85,1.42-3.91-.66-8.55-1.1-9.45A11.54,11.54,0,0,0,284.9,31.07Z" fill="#231f20"></path><path d="M267,93.88h-.1a.44.44,0,0,1-.33-.53l5.75-25.08a.44.44,0,0,1,.53-.33.45.45,0,0,1,.34.53l-5.76,25.08A.44.44,0,0,1,267,93.88Z" fill="#231f20"></path><path d="M298.66,96a.45.45,0,0,1-.44-.35l-5.06-25.16a.44.44,0,0,1,.35-.52.44.44,0,0,1,.52.35l5.06,25.15a.45.45,0,0,1-.34.53Z" fill="#231f20"></path><path d="M262.46,87.82a.42.42,0,0,1-.32-.13L245.57,70.2a.44.44,0,1,1,.64-.61l16.57,17.49a.43.43,0,0,1,0,.62A.42.42,0,0,1,262.46,87.82Z" fill="#231f20"></path><polygon points="242.62 68.06 233.1 68.06 223.56 47.43 233.07 47.43 242.62 68.06" fill="#231f20"></polygon><path d="M242.71,69.28s.34-5.58,0-6-3.5-4.2-3.79-3.39a6.69,6.69,0,0,0,.69,3.74c.46.8,1.9,3,1.9,3" fill="#fff"></path><path d="M242.71,69.74h0a.47.47,0,0,1-.43-.49,39.56,39.56,0,0,0,.1-5.81,20,20,0,0,0-3-3.13,7.2,7.2,0,0,0,.72,3c.44.78,1.86,2.94,1.88,3a.45.45,0,0,1-.13.63.47.47,0,0,1-.64-.13c0-.09-1.45-2.21-1.91-3s-1.08-3.1-.72-4.12a.61.61,0,0,1,.51-.41c1.11-.13,4.08,3.68,4.1,3.72.24.39.25,2.51,0,6.31A.45.45,0,0,1,242.71,69.74Z" fill="#231f20"></path><path d="M229.22,61a1.66,1.66,0,0,1,1.23-1.35,2,2,0,0,1,1.72.75c1.14,1.2,2.31,4.76.17,5.62S228.92,62.51,229.22,61Z" fill="#fff"></path><path d="M231.74,66.59a1.93,1.93,0,0,1-1.27-.49c-1.34-1.1-1.95-3.91-1.69-5.2a2.09,2.09,0,0,1,1.59-1.71,2.4,2.4,0,0,1,2.13.89,6,6,0,0,1,1.41,4.64,2.24,2.24,0,0,1-1.4,1.71A2,2,0,0,1,231.74,66.59Zm-1.07-6.51h-.14a1.24,1.24,0,0,0-.86,1h0a5.86,5.86,0,0,0,1.38,4.32,1,1,0,0,0,1.12.19,1.36,1.36,0,0,0,.85-1.06,5.13,5.13,0,0,0-1.19-3.82A1.84,1.84,0,0,0,230.67,60.08Zm-1.45.91h0Z" fill="#231f20"></path><path d="M265,63.91a.44.44,0,0,1-.38-.22,9.64,9.64,0,0,1,5.79-14.08.46.46,0,0,1,.55.31.46.46,0,0,1-.31.55,8.76,8.76,0,0,0-5.27,12.78.44.44,0,0,1-.38.66Z" fill="#231f20"></path><path d="M267.52,112.12a.58.58,0,0,1-.19,0,.49.49,0,0,1-.27-.65l5.52-13.2a.5.5,0,0,1,.54-.3.51.51,0,0,1,.42.46l.61,8a.49.49,0,0,1-.46.53.5.5,0,0,1-.53-.46l-.46-5.92L268,111.81A.51.51,0,0,1,267.52,112.12Z" fill="#fff"></path><path d="M233.48,113.23s1.16-26.9,1.67-27.31,17.78,1.91,17.78,1.91l-3.82,25.67Z" fill="#231f20"></path><path d="M205.8,233.43s-.3,6.3,2.36,7.42c6,2.53,26.81-9.17,24.19-12.32s-9.52-1.31-9.52-1.31" fill="#fff"></path><path d="M210.2,241.68a5.81,5.81,0,0,1-2.24-.37c-2.89-1.22-2.69-7.23-2.66-7.91a.48.48,0,0,1,.52-.47.5.5,0,0,1,.48.52c-.08,1.66.14,6.13,2,6.94,4.77,2,20-5.68,23.2-10.06.35-.48.71-1.12.41-1.48-2.38-2.86-8.94-1.16-9-1.14a.5.5,0,0,1-.26-1c.3-.08,7.24-1.88,10,1.47.4.48.65,1.33-.38,2.71C229.29,235.06,216.7,241.68,210.2,241.68Z" fill="#231f20"></path><path d="M175.41,227.84s-3.32,10.48,1.92,10.83c8.37.55,26.55-10.75,21.83-13.63s-17.73.18-17.73.18" fill="#fff"></path><path d="M178,239.19c-.23,0-.45,0-.67,0a3.16,3.16,0,0,1-2.54-1.4c-2-3,.09-9.79.18-10.08a.5.5,0,0,1,.63-.32.49.49,0,0,1,.32.63c0,.06-2.06,6.63-.3,9.21a2.21,2.21,0,0,0,1.78,1c5.72.38,20.5-6.72,22-11.41a1,1,0,0,0-.45-1.29c-4.49-2.74-17.23.2-17.35.23a.5.5,0,0,1-.23-1c.54-.13,13.27-3.07,18.1-.12a2,2,0,0,1,.88,2.45C198.92,231.41,185.48,239.18,178,239.19Z" fill="#231f20"></path><path d="M171,116.92s-7.69,23.06-2.45,24.45,15.72-5.94,15.72-5.94L181,113.6Z" fill="#fff"></path><path d="M170.06,142a6.16,6.16,0,0,1-1.58-.19,2.4,2.4,0,0,1-1.5-1.26c-2.63-4.88,3.37-23,3.63-23.78a.42.42,0,0,1,.29-.29l9.95-3.32a.42.42,0,0,1,.38,0,.45.45,0,0,1,.22.32l3.32,21.84a.47.47,0,0,1-.19.44C184.18,136.09,175.65,142,170.06,142Zm1.34-24.73c-.68,2.09-5.91,18.58-3.61,22.85a1.46,1.46,0,0,0,.92.8c4.56,1.22,13.55-4.66,15.11-5.71l-3.19-21Z" fill="#231f20"></path><path d="M176.28,94.91s-6.81,16.94-7.86,24.28l9.26.18Z" fill="#1ca7ec"></path><path d="M217.68,139.63l5.15,87.59s.44,2.36-7.6,5.16-9.43,1.05-9.43,1.05-4.37-40.18-6.64-63.76l-8,58.17s-5.59,7.33-15.72,0l3.14-88.91Z" fill="#231f20"></path><path d="M204.79,91.37l-.26-9.56s3.93,2.23,5-2.36-2-13.75-2-13.75l-5.9.52a59.13,59.13,0,0,1,.17,6.87,16.54,16.54,0,0,1-2.91,8.09c-1.35,1.8-3.54,1.29-5.77,1.29l-.4,7.86Z" fill="#fff"></path><path d="M204.79,91.83h0l-12.05-1a.45.45,0,0,1-.41-.48l.39-7.86a.45.45,0,0,1,.46-.43l1.24,0c1.72.08,3.21.14,4.16-1.13A15.83,15.83,0,0,0,201.37,73c.07-.61,0-5.88-.12-6.6a.66.66,0,0,1-.06-.2.46.46,0,0,1,.42-.47h0l5.9-.53a.47.47,0,0,1,.47.31c.12.38,3,9.35,2,14a3.49,3.49,0,0,1-5,3l.24,8.84a.5.5,0,0,1-.14.35A.47.47,0,0,1,204.79,91.83Zm-11.57-1.92,11.1,1-.24-9.06a.44.44,0,0,1,.22-.4.45.45,0,0,1,.46,0,3.54,3.54,0,0,0,2.75.3,3.15,3.15,0,0,0,1.56-2.36c.89-3.91-1.32-11.47-1.85-13.17l-5.06.45c.22,1.85.12,6.46.12,6.51a16.75,16.75,0,0,1-3,8.32C198,83.11,196.16,83,194.34,83c-.25,0-.51,0-.77,0Z" fill="#231f20"></path><path d="M220.47,141.72s-1.92-37-9.65-49.56c-5.45-8.86-26.07-8.73-33.67.44s-2.79,52.62-2.79,52.62S210.78,156.4,220.47,141.72Z" fill="#1ca7ec"></path><path d="M190.18,83.4a.43.43,0,0,1-.19,0,12.31,12.31,0,0,1-5.45-4.83,8,8,0,0,1-.46-7.24,12.21,12.21,0,0,1,1.16-1.87,9.4,9.4,0,0,0,1.31-2.34,8.81,8.81,0,0,0,.26-2.84,13.32,13.32,0,0,1,.14-2.43,7.67,7.67,0,0,1,3.35-4.87,11.84,11.84,0,0,1,5.59-1.84c.32,0,.63-.05,1-.06a9.68,9.68,0,0,0,5.73-1.93,14.31,14.31,0,0,1,3.68-1.75,7.3,7.3,0,1,1,2.64,14.34.45.45,0,0,1-.49-.39.43.43,0,0,1,.39-.49,6.41,6.41,0,1,0-2.32-12.6A13.23,13.23,0,0,0,203,53.87a13.57,13.57,0,0,1-3.82,1.77,13.24,13.24,0,0,1-2.31.28L196,56a11,11,0,0,0-5.18,1.69,6.81,6.81,0,0,0-3,4.3,11.23,11.23,0,0,0-.12,2.26,9.72,9.72,0,0,1-.31,3.12A9.63,9.63,0,0,1,186,69.92a11.66,11.66,0,0,0-1.08,1.75,7.12,7.12,0,0,0,.44,6.43,11.45,11.45,0,0,0,5.06,4.46.44.44,0,0,1,.2.59A.43.43,0,0,1,190.18,83.4Z" fill="#231f20"></path><path d="M202.67,73.94a5.4,5.4,0,0,0-1.81-2.37,2.32,2.32,0,0,0-2.79.09,2.24,2.24,0,0,0-.53,2.08,4.81,4.81,0,0,0,1,2A5.6,5.6,0,0,0,202.13,78" fill="#fff"></path><path d="M202.13,78.46h0A5.92,5.92,0,0,1,198.23,76a5.38,5.38,0,0,1-1.14-2.16,2.69,2.69,0,0,1,.66-2.51,2.8,2.8,0,0,1,3.36-.14,5.91,5.91,0,0,1,2,2.56.47.47,0,0,1-.23.61.46.46,0,0,1-.6-.23A5.13,5.13,0,0,0,200.62,72a1.87,1.87,0,0,0-2.23,0,1.8,1.8,0,0,0-.41,1.66,4.43,4.43,0,0,0,1,1.78,5.21,5.21,0,0,0,3.24,2.11.46.46,0,0,1-.05.92Z" fill="#231f20"></path><path d="M212.7,111.07s.26,7.6,2.09,7.47S231,107.4,231,107.4s1.05-7.6,2.23-7.86.92,5.62.91,5.76c0-.46,3-3.59,3.75-4.57a26,26,0,0,1,4.44-5.36c.5.35.41,1.11.25,1.7a24.33,24.33,0,0,1-2.19,5.27,6,6,0,0,1,1.17-1.85,1.26,1.26,0,0,1,1.17-.54,1.17,1.17,0,0,1,.64.65c1.55,3.11-1.39,7.8-3.2,10.21-3.93,5.24-19.39,22.35-28.82,24.45s-12.58-17.9-12.58-17.9" fill="#fff"></path><path d="M210,135.87a6.38,6.38,0,0,1-3.67-1.18c-5.85-4-7.91-16.72-8-17.26a.45.45,0,0,1,.38-.52.45.45,0,0,1,.52.38c0,.12,2.09,12.88,7.61,16.64a5.44,5.44,0,0,0,4.42.88c9.44-2.09,25-19.53,28.55-24.28,1.45-1.92,4.65-6.73,3.16-9.72q-.18-.36-.36-.42c-.16,0-.43.1-.7.4a5.38,5.38,0,0,0-.52.66c-.19.38-.39.75-.6,1.12a.45.45,0,0,1-.59.19.46.46,0,0,1-.23-.59,6.35,6.35,0,0,1,.63-1.18,23.54,23.54,0,0,0,1.55-4,2.29,2.29,0,0,0,.09-.9,24.74,24.74,0,0,0-3.47,4.23l-.5.71c-.29.41-1,1.15-1.63,1.93a23.92,23.92,0,0,0-2,2.46.43.43,0,0,1-.47.38.46.46,0,0,1-.43-.48h0c.1-2.41-.09-4.77-.42-5.25-.54.52-1.37,4.19-1.82,7.43a.44.44,0,0,1-.17.3c-2.43,1.86-14.62,11.1-16.49,11.23a1.21,1.21,0,0,1-.88-.32c-1.45-1.31-1.69-7-1.71-7.59a.46.46,0,0,1,.91,0c.08,2.27.53,6.15,1.41,6.94.11.09.18.1.2.09,1.23-.09,10.31-6.7,15.85-10.93.42-3,1.29-7.77,2.56-8.06a.78.78,0,0,1,.68.18c.68.57.82,2.87.82,4.55.32-.38.75-.87,1.31-1.51s1.31-1.48,1.58-1.85l.49-.7a23,23,0,0,1,4-4.74.44.44,0,0,1,.54,0c.41.27.81.88.44,2.2a23,23,0,0,1-.78,2.3,1.15,1.15,0,0,1,.62,0,1.54,1.54,0,0,1,.92.88c1.65,3.32-1.32,8.12-3.25,10.68-3.6,4.81-19.4,22.47-29.08,24.63A6.73,6.73,0,0,1,210,135.87Z" fill="#231f20"></path><path d="M195.76,118.15a.48.48,0,0,1-.24-.07.44.44,0,0,1-.21-.36l-.52-18a.43.43,0,0,1,.43-.45.42.42,0,0,1,.45.43l.51,17.3,16.08-6.83a.45.45,0,0,1,.35.82l-16.68,7.07A.38.38,0,0,1,195.76,118.15Z" fill="#231f20"></path><path d="M197.07,168.07a.5.5,0,0,1-.43-.24c-.21-.35-5-8.56-5.66-15.23a.49.49,0,0,1,.44-.54.48.48,0,0,1,.55.44c.68,6.45,5.48,14.74,5.53,14.82a.51.51,0,0,1-.18.68A.47.47,0,0,1,197.07,168.07Z" fill="#fff"></path><path d="M209.31,77.14s-1.28,1.59-2.72.47" fill="#fff"></path><path d="M207.66,78.47a2.18,2.18,0,0,1-1.35-.5.46.46,0,1,1,.57-.72,1.48,1.48,0,0,0,2.07-.4.46.46,0,0,1,.65-.07.47.47,0,0,1,.07.64A2.75,2.75,0,0,1,207.66,78.47Z" fill="#231f20"></path><path d="M112.63,163.05l-.54,44.06s21.53,3.64,22.08,2.88-11.78-8-11.78-8l1.73-36.31" fill="#fff"></path><path d="M133.33,210.54c-2,0-7.15-.54-21.33-2.93a.5.5,0,0,1-.41-.5l.54-44.06a.5.5,0,0,1,.5-.5h0a.52.52,0,0,1,.5.51l-.54,43.63c7.07,1.19,17.83,2.84,20.69,2.91a112.69,112.69,0,0,0-11.15-7.17.5.5,0,0,1-.24-.46l1.73-36.3a.5.5,0,0,1,.53-.48.49.49,0,0,1,.47.52l-1.72,36c4.41,2.59,11.53,6.93,11.77,8.07a.7.7,0,0,1-.1.49C134.5,210.39,134.38,210.54,133.33,210.54Z" fill="#231f20"></path><path d="M126.86,203.1l-4.14,3.41-11.34-2.11-.23,4.52s25,4.49,26.27,2.45S126.86,203.1,126.86,203.1Z" fill="#231f20"></path><path d="M133.94,166.17l.63,41.56s21.53,3.64,22.08,2.88-11.78-8-11.78-8l2.82-38" fill="#fff"></path><path d="M155.81,211.16c-2,0-7.14-.54-21.33-2.94a.48.48,0,0,1-.41-.48l-.63-41.56a.5.5,0,0,1,.5-.51h0a.49.49,0,0,1,.5.49l.62,41.15c7.07,1.19,17.83,2.84,20.7,2.91a112.69,112.69,0,0,0-11.15-7.17.5.5,0,0,1-.24-.47l2.82-38.05a.49.49,0,0,1,.53-.46.5.5,0,0,1,.47.54l-2.8,37.73c4.41,2.59,11.52,6.92,11.76,8.07a.71.71,0,0,1-.1.49C157,211,156.86,211.16,155.81,211.16Z" fill="#231f20"></path><path d="M149.34,203.72l-4.14,3.41L133.86,205l-.23,4.52s25,4.49,26.27,2.45S149.34,203.72,149.34,203.72Z" fill="#231f20"></path><path d="M106.16,101.26c-3.83,25.87,2.15,86,2.15,86l18.37-.4L132,129.44l.32,57.33,16,.72s6.71-40.08,5.75-63.72-5.75-26.58-5.75-26.58Z" fill="#231f20"></path><path d="M125.48,56.05s-12.16-.06-17.67,7.37-5.75,11.73-5.75,11.73l11,3.47-1.44,22.28,37.85-2.75-.72-19.88,6.94-2.4s-3.83-17.48-19.64-18.68S125.48,56.05,125.48,56.05Z" fill="#1ca7ec"></path><path d="M136.7,50.93s-.42,7.61-.42,7.61-.94,4.25-5.55,2.76a9.67,9.67,0,0,1-6-5.73s1.37-18.59,1.49-19.94c.76.4,2.93,1.37,3.77,1.09s1.11-2.86,1.25-3.69a9.73,9.73,0,0,1,1.23,3.67l3.16.26a8.89,8.89,0,0,0,.71-3.49,8,8,0,0,1,1.1,3.47c.89.05,4.24-.31,4.76.44.75,1.12.91,8.52-1.26,11S136.7,50.93,136.7,50.93Z" fill="#fff"></path><path d="M132.56,62.07a6.33,6.33,0,0,1-2-.34,10,10,0,0,1-6.26-6,.37.37,0,0,1,0-.18c0-.76,1.37-18.6,1.49-19.94a.44.44,0,0,1,.24-.36.47.47,0,0,1,.43,0c1,.55,2.84,1.23,3.4,1.05.17-.06.51-.52.89-3l.06-.35a.45.45,0,0,1,.84-.15,10.21,10.21,0,0,1,1.24,3.48l2.46.2a8.34,8.34,0,0,0,.55-3,.46.46,0,0,1,.33-.45.47.47,0,0,1,.52.21,8.34,8.34,0,0,1,1.12,3.25l.61,0c2-.07,3.63-.06,4.11.66.89,1.31,1,8.94-1.29,11.55a7.51,7.51,0,0,1-4.17,2.65c0,.66-.14,2.44-.4,7.23a4.84,4.84,0,0,1-2.12,3A4.07,4.07,0,0,1,132.56,62.07Zm-7.33-6.57a9.26,9.26,0,0,0,5.64,5.37,4,4,0,0,0,3.29-.11,3.88,3.88,0,0,0,1.67-2.32s.41-7.41.42-7.53a.46.46,0,0,1,.44-.44,6.23,6.23,0,0,0,3.94-2.39c2-2.33,1.81-9.56,1.22-10.44-.29-.36-2.58-.28-3.33-.26-.46,0-.85,0-1.08,0A.44.44,0,0,1,137,37a7.56,7.56,0,0,0-.36-1.75,9.06,9.06,0,0,1-.58,1.92.47.47,0,0,1-.46.28l-3.16-.26a.47.47,0,0,1-.41-.4,9.7,9.7,0,0,0-.57-2.24c-.25,1.29-.61,2.38-1.31,2.63-.88.3-2.6-.39-3.52-.81C126.38,39.78,125.32,54.18,125.23,55.5Z" fill="#231f20"></path><path d="M127,41.06a2.68,2.68,0,0,0-.79-1.49,5,5,0,0,0-1.38-.83,2,2,0,0,0-.85-.22,1.59,1.59,0,0,0-.6.17,2,2,0,0,0-1.06,1,2.4,2.4,0,0,0-.14,1.16,4.57,4.57,0,0,0,.22,1.27A3.29,3.29,0,0,0,124.07,44a3.33,3.33,0,0,0,2.5.14" fill="#fff"></path><path d="M125.48,44.67A3.63,3.63,0,0,1,122,42.21a5.19,5.19,0,0,1-.24-1.38,2.81,2.81,0,0,1,.18-1.35,2.45,2.45,0,0,1,1.25-1.15,1.79,1.79,0,0,1,1.78.05,5,5,0,0,1,1.49.9,3.06,3.06,0,0,1,.92,1.72.41.41,0,0,1-.33.46.4.4,0,0,1-.46-.33,2.24,2.24,0,0,0-.68-1.27,4.56,4.56,0,0,0-1.26-.76,1.68,1.68,0,0,0-.67-.18,1,1,0,0,0-.45.13,1.72,1.72,0,0,0-.87.76,2.12,2.12,0,0,0-.11,1,4.38,4.38,0,0,0,.21,1.16,2.84,2.84,0,0,0,3.64,1.76.41.41,0,0,1,.51.24.39.39,0,0,1-.24.51A3.64,3.64,0,0,1,125.48,44.67Z" fill="#231f20"></path><path d="M136.4,53.92s-3.17.73-5.09-1.42a5.35,5.35,0,0,1-1.53-4.22s3.77,3.19,6.89,2.8Z" fill="#231f20"></path><path d="M135.13,54.49A5.47,5.47,0,0,1,131,52.8a5.82,5.82,0,0,1-1.64-4.6.44.44,0,0,1,.29-.33.42.42,0,0,1,.43.07s3.67,3.05,6.56,2.7a.48.48,0,0,1,.36.12.45.45,0,0,1,.13.36L136.84,54a.42.42,0,0,1-.34.38A5.79,5.79,0,0,1,135.13,54.49Zm1.27-.57h0Zm-6.19-4.75a5.37,5.37,0,0,0,1.43,3A5.07,5.07,0,0,0,136,53.55l.19-2C133.86,51.58,131.39,50,130.21,49.17Z" fill="#231f20"></path><path d="M136.12,39.61s2.31,3.77,1.7,4.39-2.23.12-2.23.12" fill="#fff"></path><path d="M136.8,44.75a5.22,5.22,0,0,1-1.34-.2.44.44,0,0,1,.26-.85c.55.16,1.5.27,1.79,0a12.06,12.06,0,0,0-1.77-3.85.44.44,0,0,1,.15-.61.43.43,0,0,1,.6.15c1.14,1.85,2.36,4.21,1.65,4.93A1.86,1.86,0,0,1,136.8,44.75Z" fill="#231f20"></path><ellipse cx="132.01" cy="39.64" rx="0.61" ry="0.86" transform="translate(-4.87 23.49) rotate(-9.98)" fill="#231f20"></ellipse><ellipse cx="139.5" cy="40.79" rx="0.61" ry="0.86" transform="translate(-4.96 24.8) rotate(-9.98)" fill="#231f20"></ellipse><path d="M138.49,46.09s-2.34,3.18-6.1-.12" fill="#fff"></path><path d="M135.7,47.91a5.56,5.56,0,0,1-3.6-1.61.44.44,0,0,1,.58-.66A4.5,4.5,0,0,0,136,47a3.3,3.3,0,0,0,2.11-1.18.44.44,0,0,1,.62-.1.45.45,0,0,1,.1.62,4.23,4.23,0,0,1-2.73,1.54Z" fill="#231f20"></path><path d="M122.1,49.53h0l-4.21,0a.45.45,0,0,1-.32-.14.44.44,0,0,1-.11-.33l.83-12.75c.19-2.85.51-5.86,2.16-8.65a7.88,7.88,0,0,1,4-3.68,4.49,4.49,0,0,1,5.22,1.46.45.45,0,0,1-.13.61.44.44,0,0,1-.61-.13,3.62,3.62,0,0,0-4.18-1.11,7.07,7.07,0,0,0-3.55,3.3,18,18,0,0,0-2,8.26l-.8,12.28,3.74,0a.44.44,0,1,1,0,.88Z" fill="#231f20"></path><path d="M143.7,53.54a29.74,29.74,0,0,1-3.78-.24.44.44,0,0,1,.11-.88,28.9,28.9,0,0,0,5.88.15,75.74,75.74,0,0,0,1.64-11.21,27.65,27.65,0,0,0-.54-9,11.93,11.93,0,0,0-4.9-7.17c-2.35-1.48-8.08-1.2-10.58.52A.44.44,0,0,1,131,25c2.53-1.75,8.71-2.33,11.56-.54a12.79,12.79,0,0,1,5.27,7.69,28.47,28.47,0,0,1,.57,9.31,75.1,75.1,0,0,1-1.73,11.65.42.42,0,0,1-.39.34Q145,53.54,143.7,53.54Z" fill="#231f20"></path><polygon points="167.69 90.96 133.44 90.96 138.23 67.01 172.48 67.01 167.69 90.96" fill="#231f20"></polygon><rect x="116.11" y="90.8" width="51.42" height="2.52" fill="#231f20"></rect><path d="M164.82,90.74h-29.7a.5.5,0,0,1-.5-.5.5.5,0,0,1,.5-.5h29.7a.5.5,0,0,1,.49.5A.49.49,0,0,1,164.82,90.74Z" fill="#fff"></path><path d="M102.06,75.15s-5.35,27.47-1,31.14,43.12-5.11,43.12-5.11l1.12-7.67-31.62-.63.88-13.9" fill="#fff"></path><path d="M105.9,107.65c-4,0-4.79-.69-5.17-1-1.91-1.63-2.33-7.47-1.26-17.35.79-7.26,2.13-14.16,2.14-14.22a.47.47,0,0,1,.54-.37.46.46,0,0,1,.36.54c-1.47,7.57-4.56,27.83-1.19,30.7s31.45-2.67,42.41-5.14l1-6.84-31.1-.63a.47.47,0,0,1-.33-.14.54.54,0,0,1-.12-.34L114.06,79a.45.45,0,0,1,.49-.43A.44.44,0,0,1,115,79l-.85,13.42,31.15.63a.42.42,0,0,1,.33.16.44.44,0,0,1,.11.36l-1.12,7.67a.46.46,0,0,1-.35.37c-.1,0-9.83,2.22-20,3.94C114.82,107.17,109.24,107.65,105.9,107.65Z" fill="#231f20"></path><path d="M141.58,93.47s11.82-1.63,11.66-.91S149.33,95,149.33,95s8-2.71,8.78-2-2.24,2.87-4.87,4.31a33,33,0,0,1-14.77,4.59" fill="#fff"></path><path d="M138.47,102.32a.46.46,0,0,1,0-.92,32.24,32.24,0,0,0,14.46-4.48l.11,0c3.07-1.68,4.76-3.21,4.76-3.62-.56-.2-4.77.93-8.31,2.13a.45.45,0,0,1-.33-.84,23.92,23.92,0,0,0,3.21-1.71h0c-1.74,0-6.43.5-10.7,1.1a.46.46,0,1,1-.13-.91c11.36-1.57,11.85-1,12-.83a.61.61,0,0,1,.13.47,1.33,1.33,0,0,1-.4.57c2.46-.69,4.59-1.1,5.13-.61a.84.84,0,0,1,.27.74c-.17,1.48-4.39,3.85-5.23,4.31l-.11.06a33,33,0,0,1-14.86,4.58Z" fill="#231f20"></path><path d="M132.64,130.42a.25.25,0,0,1-.12,0,.48.48,0,0,1-.36-.6l3.67-14.53a.5.5,0,0,1,.61-.36.51.51,0,0,1,.36.6L133.12,130A.49.49,0,0,1,132.64,130.42Z" fill="#fff"></path><path d="M169.64,75a3.29,3.29,0,0,0-1.85-.83.72.72,0,0,0-.55.16c-.26.27-.07.72.14,1,.62,1,1.28,1.89,2,2.79a6.3,6.3,0,0,0-2.48-1.27,1.41,1.41,0,0,0-1,0,1.07,1.07,0,0,0-.41,1.27,3.07,3.07,0,0,0,.83,1.17l1.54,1.58a4.45,4.45,0,0,0-2.27-1,1.16,1.16,0,0,0-1,.23c-.38.42,0,1.09.36,1.5a5.92,5.92,0,0,0,1.62,1.18l-1.23-.52a1,1,0,0,0-.67-.13c-.51.13-.53.85-.38,1.35a3.73,3.73,0,0,0,2.58,2.77,3.68,3.68,0,0,0,2.78-.86A6.49,6.49,0,0,0,169.64,75Z" fill="#fff"></path><path d="M167.36,86.81a3.29,3.29,0,0,1-.54,0,4.18,4.18,0,0,1-2.92-3.09,2,2,0,0,1,.07-1.44,1.06,1.06,0,0,1,.51-.45,1.32,1.32,0,0,1,1.19-2.3l.22,0a3.2,3.2,0,0,1-.82-1.23,1.53,1.53,0,0,1,.64-1.81,1.86,1.86,0,0,1,1.29,0,5.68,5.68,0,0,1,.7.22l-.71-1c-.56-.88-.29-1.39-.07-1.61a1.18,1.18,0,0,1,.89-.3,3.77,3.77,0,0,1,2.11.93h0a7.21,7.21,0,0,1,2.86,5.8A6.81,6.81,0,0,1,170,85.82,4.56,4.56,0,0,1,167.36,86.81Zm-2.5-4.18h0a1,1,0,0,0,0,.78A3.29,3.29,0,0,0,167,85.86a3.35,3.35,0,0,0,2.43-.77,5.94,5.94,0,0,0,2.45-4.69,6.33,6.33,0,0,0-2.51-5.07h0a3,3,0,0,0-1.59-.74.44.44,0,0,0-.2,0,.91.91,0,0,0,.19.47c.62,1,1.28,1.88,2,2.76a.46.46,0,0,1-.66.63,5.67,5.67,0,0,0-2.29-1.17,1,1,0,0,0-.65,0c-.21.1-.27.46-.19.72a2.77,2.77,0,0,0,.73,1l1.53,1.58a.44.44,0,0,1,0,.62.45.45,0,0,1-.62,0,4.05,4.05,0,0,0-2-.87.76.76,0,0,0-.58.09c-.14.16.07.59.34.87a5.34,5.34,0,0,0,1.5,1.09.45.45,0,0,1,.21.6.44.44,0,0,1-.59.23l-1.23-.52A1.12,1.12,0,0,0,164.86,82.63Z" fill="#231f20"></path><line x1="114.44" y1="77.39" x2="115.08" y2="66.05" fill="#fff"></line><path d="M114.44,77.84h0a.46.46,0,0,1-.43-.48L114.62,66a.46.46,0,1,1,.91.06l-.64,11.33A.44.44,0,0,1,114.44,77.84Z" fill="#231f20"></path><line x1="315.88" y1="221.13" x2="288.57" y2="235.49" fill="#fff"></line><path d="M288.57,236a.45.45,0,0,1-.41-.25.46.46,0,0,1,.19-.62l27.31-14.36a.47.47,0,0,1,.63.2.47.47,0,0,1-.2.62L288.78,235.9A.54.54,0,0,1,288.57,236Z" fill="#d1d3d4"></path><ellipse cx="100.39" cy="192.14" rx="6.21" ry="2.21" fill="#e6e7e8"></ellipse><line x1="240.5" y1="268.49" x2="241.3" y2="279.05" fill="#fff"></line><path d="M241.3,279.51a.46.46,0,0,1-.46-.43l-.8-10.56a.46.46,0,0,1,.92-.07l.8,10.56a.46.46,0,0,1-.43.5Z" fill="#d1d3d4"></path></g></svg>