<svg id="_170_group_video_call_flatline" data-name="#170_group_video_call_flatline" xmlns="http://www.w3.org/2000/svg" viewBox="0 0 400 300" width="406" height="306" class="illustration styles_illustrationTablet__1DWOa"><ellipse cx="200" cy="261.57" rx="81.94" ry="4.79" fill="#d1d3d4"></ellipse><rect x="123.29" y="33.64" width="150.85" height="227.39" rx="8.18" fill="#fff"></rect><path d="M266,261.54H131.46a8.68,8.68,0,0,1-8.67-8.68v-211a8.69,8.69,0,0,1,8.67-8.68H266a8.69,8.69,0,0,1,8.67,8.68v211A8.68,8.68,0,0,1,266,261.54ZM131.46,34.14a7.69,7.69,0,0,0-7.67,7.68v211a7.69,7.69,0,0,0,7.67,7.68H266a7.69,7.69,0,0,0,7.67-7.68v-211A7.69,7.69,0,0,0,266,34.14Z" fill="#231f20"></path><path d="M221.36,68.77a7.65,7.65,0,0,1,5.85-.81,22.65,22.65,0,0,1,4.49,1.73c.41.19,3.86,2.54,3.92,2.49s2.68-1.8,5.2-.84c3.37,1.28,5.65,6.93,7,10,2.45,5.38,5.44,11.21,11,13.35-9,11.08-25,14.43-39,11.75a6.27,6.27,0,0,1-3.09-1.25c-1.08-1-1.34-2.59-1.54-4.06-.8-6-1.56-12.1-.77-18.14.55-4.29,2.07-9.15,5-12.47A8.86,8.86,0,0,1,221.36,68.77Z" fill="#fff"></path><path d="M229.06,107.77a50.2,50.2,0,0,1-9.38-.89,6.55,6.55,0,0,1-3.34-1.38c-1.17-1.08-1.47-2.67-1.69-4.35-.71-5.32-1.6-11.94-.78-18.27.4-3,1.59-8.71,5.11-12.73a8.79,8.79,0,0,1,2.13-1.8h0a8.15,8.15,0,0,1,6.22-.88,23.59,23.59,0,0,1,4.58,1.77c.22.1.92.56,2,1.29.56.38,1.3.86,1.66,1.08a6.61,6.61,0,0,1,5.39-.73c3.28,1.24,5.48,6.15,6.94,9.4l.36.81c2.51,5.49,5.39,11,10.68,13.08a.51.51,0,0,1,.3.34.5.5,0,0,1-.09.44C252.55,103.14,241.31,107.77,229.06,107.77Zm-3.85-39.56a6.86,6.86,0,0,0-3.59,1h0a8.08,8.08,0,0,0-1.89,1.6c-3.35,3.82-4.49,9.29-4.87,12.21-.81,6.2.07,12.75.78,18,.2,1.49.45,2.9,1.38,3.75a5.69,5.69,0,0,0,2.84,1.13c15.07,2.89,29.95-1.45,38.13-11.06-5.23-2.36-8.1-7.87-10.6-13.34l-.36-.81c-1.39-3.1-3.49-7.78-6.38-8.88-2.26-.86-4.72.77-4.75.79-.31.2-.31.2-2.5-1.24-.74-.48-1.75-1.14-1.92-1.22a22.16,22.16,0,0,0-4.38-1.7A8.27,8.27,0,0,0,225.21,68.21Zm-3.85.56h0Z" fill="#231f20"></path><path d="M254.13,158.53A59.33,59.33,0,0,0,256.5,151a11.6,11.6,0,0,0-.82-7.71,4.7,4.7,0,0,0-2.2-2.2,2.6,2.6,0,0,0-2.92.53,7,7,0,0,0-2.63-2.51,16,16,0,0,0-8.25-2.49,10.74,10.74,0,0,0-6.78,2.17c-1.68,1.42-2.46,3.66-3,5.72a16.26,16.26,0,0,0-.62,6c.65,5.09,5.16,6.88,9.48,8.27a17.83,17.83,0,0,0,6,1.08,7.78,7.78,0,0,0,5.53-2.33" fill="#fff"></path><path d="M244.44,160.4a19.35,19.35,0,0,1-5.82-1.11c-4.6-1.48-9.15-3.36-9.83-8.69a16.79,16.79,0,0,1,.63-6.23c.5-2,1.31-4.43,3.15-6a11.14,11.14,0,0,1,7.1-2.29h0a16.34,16.34,0,0,1,8.51,2.56,8.28,8.28,0,0,1,2.48,2.16,3.23,3.23,0,0,1,3-.21,5.15,5.15,0,0,1,2.45,2.42,12.22,12.22,0,0,1,.88,8.06,39.77,39.77,0,0,1-1.7,5.66c-.24.64-.47,1.29-.69,1.94a.52.52,0,0,1-.65.33.5.5,0,0,1-.32-.65c.22-.66.45-1.32.68-2a38,38,0,0,0,1.66-5.51,11.24,11.24,0,0,0-.76-7.36,4.35,4.35,0,0,0-1.95-2A2.08,2.08,0,0,0,251,142a.51.51,0,0,1-.84-.1,6.65,6.65,0,0,0-2.45-2.31,15.35,15.35,0,0,0-8-2.41h0a10.12,10.12,0,0,0-6.45,2.05c-1.6,1.35-2.32,3.51-2.81,5.45a15.49,15.49,0,0,0-.6,5.84c.6,4.73,4.83,6.46,9.11,7.84a17.94,17.94,0,0,0,5.87,1.05,7.23,7.23,0,0,0,5.16-2.15.5.5,0,0,1,.73,0,.51.51,0,0,1,0,.72,8.24,8.24,0,0,1-5.9,2.5Z" fill="#231f20"></path><path d="M250.89,201c1.38-10.35,2.3-20.6,1.15-22.56-3.93-6.69-21.66-2.6-24.95-1.1-1.28.58-.51,11.06-2.6,23.66Z" fill="#231f20"></path><polygon points="234.98 172.07 198.71 166.96 198.71 185.34 221.38 189.6 234.98 172.07" fill="#1ca7ec"></polygon><path d="M262.59,201V182.69A83.91,83.91,0,0,0,247.38,174s-24.52-3.29-30.82,0c-2.56,1.32-3.8,13.33-6.89,27h19.66l4.87-23.52,15.88.51-5.25,23Z" fill="#1ca7ec"></path><path d="M235.57,168.21l-1.37,9.24s.64,6.11,6.82,5.34A12.39,12.39,0,0,0,250,177l1.88-17s-4.19-2.89-1.78-12.43a30,30,0,0,1-15.88.39s-3.93,10.19-3.74,14.94S235.57,168.21,235.57,168.21Z" fill="#fff"></path><path d="M240,183.38a6,6,0,0,1-3.83-1.25,7.37,7.37,0,0,1-2.46-4.63.56.56,0,0,1,0-.13l1.3-8.75a6.08,6.08,0,0,1-5.07-5.7c-.2-4.8,3.61-14.73,3.77-15.15a.5.5,0,0,1,.6-.31,29.73,29.73,0,0,0,15.59-.38.52.52,0,0,1,.52.11.51.51,0,0,1,.15.51c-2.28,9,1.53,11.85,1.57,11.88a.51.51,0,0,1,.22.47l-1.87,17a.6.6,0,0,1-.06.19,12.81,12.81,0,0,1-9.33,6.07A8.51,8.51,0,0,1,240,183.38Zm-5.26-5.93a6.48,6.48,0,0,0,2.08,3.88,5.41,5.41,0,0,0,4.16.95,12,12,0,0,0,8.49-5.46l1.83-16.6c-.89-.8-3.68-4-1.94-11.89a30.91,30.91,0,0,1-14.85.23c-.73,2-3.71,10.27-3.54,14.32.17,4.25,4.5,4.8,4.68,4.82a.55.55,0,0,1,.35.2.54.54,0,0,1,.1.39Z" fill="#231f20"></path><path d="M234.85,173.05s2.36.75,5.3-1.51,2.89-3.76,2.89-3.76a11.32,11.32,0,0,1-7.47.43Z" fill="#231f20"></path><path d="M235.88,173.66a4.56,4.56,0,0,1-1.18-.14.51.51,0,0,1-.34-.55l.72-4.83a.47.47,0,0,1,.23-.35.46.46,0,0,1,.41,0,10.9,10.9,0,0,0,7.11-.41.49.49,0,0,1,.47,0,.47.47,0,0,1,.23.4c0,.18,0,1.84-3.07,4.18A7.52,7.52,0,0,1,235.88,173.66Zm-1-.62h0Zm.57-.39a6.22,6.22,0,0,0,4.43-1.5,8.54,8.54,0,0,0,2.4-2.54,11.79,11.79,0,0,1-6.27.24Z" fill="#231f20"></path><path d="M241.12,154.76s-3.42,5-2.63,5.84,3,.33,3,.33" fill="#fff"></path><path d="M240.1,161.6a2.63,2.63,0,0,1-2-.67c-.86-1,.94-4,2.6-6.45a.5.5,0,1,1,.82.56c-1.59,2.32-2.83,4.77-2.65,5.26.42.46,1.87.3,2.51.15a.5.5,0,0,1,.24,1A7.18,7.18,0,0,1,240.1,161.6Z" fill="#231f20"></path><path d="M240.57,165h-.24a8.16,8.16,0,0,1-5.13-2.53.5.5,0,1,1,.74-.67,7.26,7.26,0,0,0,4.44,2.2,5.36,5.36,0,0,0,3.91-1.64.5.5,0,0,1,.71,0,.49.49,0,0,1,0,.7A6.39,6.39,0,0,1,240.57,165Z" fill="#231f20"></path><ellipse cx="245.08" cy="154.11" rx="1.36" ry="0.59" transform="translate(81.64 393.07) rotate(-87.79)" fill="#231f20"></ellipse><ellipse cx="236.51" cy="153.15" rx="1.36" ry="0.59" transform="translate(74.36 383.59) rotate(-87.79)" fill="#231f20"></ellipse><path d="M248.22,157.1a8,8,0,0,1,2.32-2.14,2.81,2.81,0,0,1,1.62-.52,2.58,2.58,0,0,1,1.28.53,4.94,4.94,0,0,1,2,3.5,3.81,3.81,0,0,1-.27,1.89,4.31,4.31,0,0,1-2.11,2.06,12.51,12.51,0,0,1-2.88.9" fill="#fff"></path><path d="M250.16,163.84a.53.53,0,0,1-.5-.4.52.52,0,0,1,.39-.62,13.19,13.19,0,0,0,2.76-.86,3.83,3.83,0,0,0,1.87-1.81,3.44,3.44,0,0,0,.23-1.63,4.41,4.41,0,0,0-1.77-3.13,2.05,2.05,0,0,0-1-.44,2.34,2.34,0,0,0-1.31.45,8,8,0,0,0-2.18,2,.52.52,0,0,1-.83-.61,8.92,8.92,0,0,1,2.47-2.27,3.39,3.39,0,0,1,1.92-.6,3,3,0,0,1,1.55.64,5.45,5.45,0,0,1,2.2,3.87,4.39,4.39,0,0,1-.31,2.13,4.88,4.88,0,0,1-2.36,2.32,12.94,12.94,0,0,1-3,.94Z" fill="#231f20"></path><path d="M262.59,190.9c-1.82,2.35-4.22,6-6.8,10.07h6.8Z" fill="#1ca7ec"></path><path d="M210.66,196.38,214.52,178" fill="#fff"></path><path d="M210.66,196.9h-.11a.52.52,0,0,1-.39-.61L214,177.85a.52.52,0,0,1,1,.21l-3.85,18.43A.53.53,0,0,1,210.66,196.9Z" fill="#231f20"></path><path d="M206.59,144.8S217.66,135,218.9,135s3.85,2.48,3.38,3-4.08,5.92-4.08,5.92,4.23-.86,4.24.16-5.85,3.81-5.85,3.81l-9.3,7.19Z" fill="#fff"></path><path d="M207.29,155.6a.5.5,0,0,1-.21,0,.53.53,0,0,1-.31-.43l-.69-10.29a.52.52,0,0,1,.17-.42c3.37-3,11.35-9.92,12.65-9.94h0c1.27,0,3.33,1.8,3.82,2.86a.87.87,0,0,1-.06,1c-.28.31-2,2.8-3.36,4.87,1.21-.18,2.73-.27,3.32.21a.82.82,0,0,1,.33.65c0,1.11-3.3,2.92-6.1,4.26l-9.26,7.16A.51.51,0,0,1,207.29,155.6ZM207.13,145l.61,9.07,8.53-6.6.1-.06a25.45,25.45,0,0,0,5.48-3.26,10.49,10.49,0,0,0-3.54.27.54.54,0,0,1-.54-.22.55.55,0,0,1,0-.58c.36-.52,3.33-4.95,4-5.86-.22-.61-2.08-2.26-2.89-2.26h0C218.08,135.68,212.29,140.45,207.13,145Z" fill="#231f20"></path><polygon points="198.71 166.96 212.21 152.02 205.72 142.24 199.08 147.34 198.71 166.96" fill="#1ca7ec"></polygon><path d="M218.2,144.44a.46.46,0,0,1-.23-.06,6,6,0,0,0-4.64-.08.52.52,0,0,1-.41-1,6.92,6.92,0,0,1,5.52.11.52.52,0,0,1-.24,1Z" fill="#231f20"></path><path d="M199.18,183.59s-4.19-6.39-15.45-12.4S156,169.72,150,173.28s-13.64,12.95-13.64,12.95v14.62h62.15Z" fill="#1ca7ec"></path><path d="M165.52,135c-1.06.21-6.87-1-9.6,4.46s-7.84,29.85-7.84,29.85L191.2,167s-7.82-5.6-6.73-8,5.46-5.11,3.21-8.77-8.73-5.77-7.88-10S172.51,133.64,165.52,135Z" fill="#fff"></path><path d="M148.08,169.8a.49.49,0,0,1-.38-.18.51.51,0,0,1-.11-.43c.21-1,5.15-24.48,7.88-30,2.41-4.85,7.13-4.76,9.16-4.72a6.29,6.29,0,0,0,.8,0h0c5.41-1,11.34,0,13.77,2.46a3.55,3.55,0,0,1,1.09,3.29c-.46,2.31,1.66,4,3.91,5.79a16.46,16.46,0,0,1,3.91,3.85c1.78,2.89-.15,5.24-1.69,7.13a10.47,10.47,0,0,0-1.49,2.11c-.64,1.42,3.45,5.2,6.56,7.43a.5.5,0,0,1-.26.9L148.1,169.8Zm15.84-34.3c-2.14,0-5.65.34-7.55,4.17-2.43,4.88-6.84,25.22-7.67,29.09l41.09-2.22c-2.33-1.8-6.77-5.61-5.77-7.82a11.44,11.44,0,0,1,1.62-2.33c1.49-1.82,3-3.69,1.61-6a15.7,15.7,0,0,0-3.67-3.59c-2.39-1.89-4.86-3.85-4.27-6.76a2.55,2.55,0,0,0-.82-2.39c-2.18-2.2-7.84-3.16-12.87-2.19h0a5,5,0,0,1-1,0Zm1.6-.51h0Z" fill="#231f20"></path><path d="M173.33,164.79l.6,8.38s-.81,3.91-6.52,3-6.83-4.69-6.83-4.69L160,155.81s8.4-5.36,6.46-14.27c0,0,4,4.86,12.19,3.14,0,0,.76,10,.43,14.37S173.33,164.79,173.33,164.79Z" fill="#fff"></path><path d="M169,176.81a10.6,10.6,0,0,1-1.7-.14c-5.94-.95-7.18-4.88-7.23-5a.32.32,0,0,1,0-.13l-.56-15.67a.53.53,0,0,1,.23-.44c.09,0,8.09-5.29,6.25-13.75a.5.5,0,0,1,.87-.42c.16.19,3.88,4.61,11.7,3a.48.48,0,0,1,.4.09.49.49,0,0,1,.2.36c0,.41.76,10.07.43,14.45-.3,4-4.41,5.64-5.74,6.07l.57,8a.57.57,0,0,1,0,.13S173.62,176.81,169,176.81Zm-8-5.42c.17.46,1.43,3.5,6.42,4.29,4.82.77,5.8-2.08,5.94-2.55l-.6-8.3a.52.52,0,0,1,.38-.53s5.1-1.32,5.39-5.29a129.16,129.16,0,0,0-.39-13.73c-5.7,1-9.32-1-11-2.37.75,7.43-5.37,12.23-6.68,13.16Z" fill="#231f20"></path><path d="M162.64,155.15a3.64,3.64,0,0,0-1.4-1.85,6.5,6.5,0,0,0-2-.83,2.59,2.59,0,0,0-1.2-.12,2.44,2.44,0,0,0-.77.35,2.83,2.83,0,0,0-1.24,1.53,3.34,3.34,0,0,0,.06,1.6,6.46,6.46,0,0,0,.57,1.67,4.45,4.45,0,0,0,6,1.84" fill="#fff"></path><path d="M160.54,160.38a5,5,0,0,1-4.37-2.65,7.32,7.32,0,0,1-.61-1.79,4,4,0,0,1-.05-1.85,3.31,3.31,0,0,1,1.44-1.8,2.76,2.76,0,0,1,1-.43,3.22,3.22,0,0,1,1.42.12,7.11,7.11,0,0,1,2.19.9,4.16,4.16,0,0,1,1.59,2.12.49.49,0,0,1-.32.63.5.5,0,0,1-.63-.32,3.1,3.1,0,0,0-1.2-1.6,6,6,0,0,0-1.89-.76,2.25,2.25,0,0,0-1-.11,1.61,1.61,0,0,0-.59.28,2.37,2.37,0,0,0-1,1.24,2.87,2.87,0,0,0,.06,1.36,6.09,6.09,0,0,0,.52,1.55,3.93,3.93,0,0,0,5.37,1.63.5.5,0,1,1,.48.88A5,5,0,0,1,160.54,160.38Z" fill="#231f20"></path><path d="M171.94,151.28s3.42,4,2.82,4.86-2.61.56-2.61.56" fill="#fff"></path><path d="M172.88,157.25a6.35,6.35,0,0,1-.8-.05.51.51,0,0,1-.43-.57.5.5,0,0,1,.56-.42c.7.09,1.85,0,2.14-.36.06-.41-1.24-2.42-2.8-4.25a.5.5,0,0,1,.06-.7.5.5,0,0,1,.71.06c1.68,2,3.53,4.52,2.84,5.47A2.8,2.8,0,0,1,172.88,157.25Z" fill="#231f20"></path><ellipse cx="175.61" cy="150.1" rx="1.02" ry="0.73" transform="matrix(0.01, -1, 1, 0.01, 24.53, 324.87)" fill="#231f20"></ellipse><ellipse cx="167.91" cy="150.1" rx="1.02" ry="0.73" transform="matrix(0.01, -1, 1, 0.01, 16.88, 317.18)" fill="#231f20"></ellipse><path d="M174.53,159l-6.61-2.27a4.2,4.2,0,0,0,1.14,4.78C171.62,164.05,174.53,159,174.53,159Z" fill="#fff"></path><path d="M170.62,162.72a2.64,2.64,0,0,1-1.91-.85,4.73,4.73,0,0,1-1.23-5.36.5.5,0,0,1,.61-.25l6.6,2.27a.51.51,0,0,1,.31.3.48.48,0,0,1,0,.42c-.07.13-1.84,3.16-4,3.45A2,2,0,0,1,170.62,162.72Zm-2.39-5.35a3.76,3.76,0,0,0,1.18,3.78,1.62,1.62,0,0,0,1.42.56c1.14-.15,2.31-1.53,2.94-2.44Z" fill="#231f20"></path><line x1="185.47" y1="200.85" x2="185.47" y2="186.42" fill="#fff"></line><path d="M185.47,201.35a.5.5,0,0,1-.5-.5V186.42a.51.51,0,0,1,.5-.5.5.5,0,0,1,.5.5v14.43A.5.5,0,0,1,185.47,201.35Z" fill="#231f20"></path><line x1="150.36" y1="200.85" x2="151.69" y2="185" fill="#fff"></line><path d="M150.36,201.35h0a.5.5,0,0,1-.46-.54L151.2,185a.51.51,0,0,1,.54-.46.5.5,0,0,1,.45.54l-1.33,15.86A.49.49,0,0,1,150.36,201.35Z" fill="#231f20"></path><path d="M134.44,114.25a153.07,153.07,0,0,1,16.23-9.63c11.26-6,28.3-4.4,34.28-.83s13.65,12.95,13.65,12.95v14.62H134.44Z" fill="#1ca7ec"></path><path d="M160.86,120.68c1.32,1.1,7.34,2.18,8.72,1.82,3.67-.94,7.57-2.25,9.82-5.43a16.89,16.89,0,0,0,2.36-6.2c.57-2.55,1-5.26.27-7.77-2.48-8.46-15.51-9.32-22-5.9C150.73,102.12,154.3,115.22,160.86,120.68Z" fill="#fff"></path><path d="M168.81,123.07c-2.25,0-7-.92-8.27-2-4.37-3.64-7.14-10.19-6.58-15.59a10.73,10.73,0,0,1,5.84-8.71c4.51-2.38,11.37-2.6,16.3-.52a10.58,10.58,0,0,1,6.41,6.72c.76,2.6.32,5.39-.26,8a17.58,17.58,0,0,1-2.44,6.38c-2.31,3.25-6.22,4.63-10.1,5.63A4.2,4.2,0,0,1,168.81,123.07Zm-.29-27.24a18,18,0,0,0-8.25,1.82,9.72,9.72,0,0,0-5.31,7.92c-.53,5.09,2.08,11.28,6.22,14.72h0c1.15,1,7,2.06,8.28,1.73,3.7-1,7.42-2.25,9.53-5.24a16.53,16.53,0,0,0,2.28-6c.56-2.5,1-5.14.28-7.52a9.59,9.59,0,0,0-5.84-6.07A18.67,18.67,0,0,0,168.52,95.83Z" fill="#231f20"></path><path d="M155.57,166c-.4-.56-1.67-1.57-4.41,8.09,0,0,1-13-2.08-13s-3.81,1.92-4.09,5.87,0,9.41,0,9.41l-10.66,10.7v13.71h6.38c5-8.24,12.7-20.86,13.18-22.28C154.61,176.42,156,166.57,155.57,166Z" fill="#fff"></path><path d="M140.71,201.35h-6.38a.51.51,0,0,1-.51-.52V187.12a.48.48,0,0,1,.15-.36l10.49-10.54c-.05-1.09-.23-5.78,0-9.25s.77-6.35,4.61-6.35a1.65,1.65,0,0,1,1.23.58c1.33,1.43,1.56,5.7,1.53,9,1.44-4.13,2.36-4.88,3-5a1.1,1.1,0,0,1,1.12.53h0c.66.94-1.08,11.43-1.62,13-.48,1.41-7.46,12.95-13.23,22.38A.52.52,0,0,1,140.71,201.35Zm-5.86-1h5.57c7.91-12.94,12.64-20.93,13-21.94a66.43,66.43,0,0,0,1.72-12.13.22.22,0,0,0-.08-.07s-1.15.19-3.38,8a.52.52,0,0,1-1-.18c.23-2.82.46-10.48-1.09-12.15a.61.61,0,0,0-.47-.25c-2.48,0-3.28,1.21-3.58,5.39-.27,3.87,0,9.3,0,9.35a.5.5,0,0,1-.15.4l-10.5,10.54Z" fill="#231f20"></path><path d="M262.68,124c-.89-7.84-2-16.42-2.92-18.28-1.72-3.59-12.61-5.28-12.61-5.28l-5.8-.77,4.8,31.67h16.53Z" fill="#fff"></path><path d="M262.68,130.92H246.54l-4.65-30.68,5.19.69c3,.46,10.95,2.26,12.27,5,.78,1.64,2,9.69,3.33,22.25v-8.09c-.84-6.91-1.75-13-2.51-14.55-1.8-3.76-12.5-5.46-13-5.54l-5.8-.76a.46.46,0,0,0-.39.13.47.47,0,0,0-.13.39l4.81,31.67a.45.45,0,0,0,.45.39h16.53Z" fill="#231f20"></path><path d="M256.48,247.27H140.93a7,7,0,0,1-7-7V54.4a7,7,0,0,1,7-7H256.48a7,7,0,0,1,7,7V240.28A7,7,0,0,1,256.48,247.27ZM140.93,48.41a6,6,0,0,0-6,6V240.28a6,6,0,0,0,6,6H256.48a6,6,0,0,0,6-6V54.4a6,6,0,0,0-6-6Z" fill="#231f20"></path><circle cx="198.6" cy="223.64" r="15.38" fill="#1ca7ec"></circle><path d="M203.19,40.75H182.26a.5.5,0,0,1,0-1h20.93a.5.5,0,0,1,0,1Z" fill="#d1d3d4"></path><path d="M210,40.75h-3.66a.5.5,0,0,1,0-1H210a.5.5,0,0,1,0,1Z" fill="#d1d3d4"></path><path d="M160.4,235.47a11.83,11.83,0,1,1,11.83-11.83A11.84,11.84,0,0,1,160.4,235.47Zm0-22.66a10.83,10.83,0,1,0,10.83,10.83A10.84,10.84,0,0,0,160.4,212.81Z" fill="#d1d3d4"></path><path d="M161.2,226.77h-1.6a2.5,2.5,0,0,1-2.49-2.49v-4.72a2.49,2.49,0,0,1,2.49-2.49h1.6a2.48,2.48,0,0,1,2.49,2.49v4.72A2.49,2.49,0,0,1,161.2,226.77Zm-1.6-8.7a1.49,1.49,0,0,0-1.49,1.49v4.72a1.49,1.49,0,0,0,1.49,1.49h1.6a1.49,1.49,0,0,0,1.49-1.49v-4.72a1.49,1.49,0,0,0-1.49-1.49Z" fill="#d1d3d4"></path><path d="M160.4,229.68a.5.5,0,0,1-.5-.5v-2.91a.5.5,0,0,1,.5-.5.5.5,0,0,1,.5.5v2.91A.5.5,0,0,1,160.4,229.68Z" fill="#d1d3d4"></path><path d="M163.19,222.42h-5.58a.51.51,0,0,1-.5-.5.5.5,0,0,1,.5-.5h5.58a.5.5,0,0,1,.5.5A.5.5,0,0,1,163.19,222.42Z" fill="#d1d3d4"></path><path d="M163.19,230.21h-5.58a.5.5,0,0,1-.5-.5.51.51,0,0,1,.5-.5h5.58a.5.5,0,0,1,.5.5A.5.5,0,0,1,163.19,230.21Z" fill="#d1d3d4"></path><path d="M236.79,235.47a11.83,11.83,0,1,1,11.83-11.83A11.85,11.85,0,0,1,236.79,235.47Zm0-22.66a10.83,10.83,0,1,0,10.83,10.83A10.84,10.84,0,0,0,236.79,212.81Z" fill="#d1d3d4"></path><path d="M238,227.77h-6.46a1.7,1.7,0,0,1-1.7-1.69V221.2a1.7,1.7,0,0,1,1.7-1.69H238a1.69,1.69,0,0,1,1.69,1.69v4.88A1.69,1.69,0,0,1,238,227.77Zm-6.46-7.26a.69.69,0,0,0-.7.69v4.88a.69.69,0,0,0,.7.69H238a.69.69,0,0,0,.69-.69V221.2a.69.69,0,0,0-.69-.69Z" fill="#d1d3d4"></path><path d="M243.27,226.57a.45.45,0,0,1-.16,0l-2.5-.86a.5.5,0,0,1-.33-.47v-3.6a.49.49,0,0,1,.33-.47l2.5-.86a.48.48,0,0,1,.45.06.52.52,0,0,1,.21.41v5.32a.49.49,0,0,1-.5.5Zm-2-1.72,1.49.52v-3.92l-1.49.51Z" fill="#d1d3d4"></path><path d="M198.6,219.32a31,31,0,0,0-3.48.2c-2,.23-5,.37-6.17,2.29a6.59,6.59,0,0,0-.74,4.34,1.26,1.26,0,0,0,.9,1.09,6.85,6.85,0,0,0,3.48.08,1.37,1.37,0,0,0,1.09-1.36c0-.63,0-1.28,0-1.91s.18-.87.57-.89c1.58-.1,1.89-.26,3.48-.26,2,0,2.77.14,4.8.25.89,0,1,.18.92,1.2a9.94,9.94,0,0,0,.08,1.73,1.35,1.35,0,0,0,1,1.23,7,7,0,0,0,3.36,0A1.31,1.31,0,0,0,209,226a8.58,8.58,0,0,0,0-1.68,4.64,4.64,0,0,0-1.61-3.46c-1.29-.94-3.29-1.09-4.82-1.3A33.59,33.59,0,0,0,198.6,219.32Z" fill="#fff"></path><path d="M262.86,201.32H134.33a.5.5,0,1,1,0-1H262.86a.5.5,0,0,1,0,1Z" fill="#231f20"></path><path d="M198.71,201.32a.5.5,0,0,1-.5-.5V61.9a.5.5,0,0,1,1,0V200.82A.5.5,0,0,1,198.71,201.32Z" fill="#231f20"></path><path d="M262.86,62.4H134.33a.51.51,0,0,1-.5-.5.5.5,0,0,1,.5-.5H262.86a.5.5,0,0,1,.5.5A.5.5,0,0,1,262.86,62.4Z" fill="#231f20"></path><path d="M155.8,56.94l0-3.59h0l-1.32,3.59h-.86l-1.28-3.59h0l0,3.59h-1.16V51.87h1.75l1.15,3.25h0l1.11-3.25H157v5.07Z" fill="#d1d3d4"></path><path d="M160,57.48a2.9,2.9,0,0,1-.24.5,1.64,1.64,0,0,1-.32.37,1.18,1.18,0,0,1-.43.23,1.69,1.69,0,0,1-.58.08l-.34,0a1.31,1.31,0,0,1-.31-.06l.13-1,.19,0,.19,0a.52.52,0,0,0,.4-.13.9.9,0,0,0,.2-.35l.12-.3-1.49-3.51h1.3l.8,2.3h0l.71-2.3h1.25Z" fill="#d1d3d4"></path><path d="M167.53,57a4.58,4.58,0,0,1-1.08.12,3.19,3.19,0,0,1-1.13-.19,2.57,2.57,0,0,1-.88-.55,2.52,2.52,0,0,1-.58-.84,2.94,2.94,0,0,1-.2-1.09,2.82,2.82,0,0,1,.21-1.11,2.38,2.38,0,0,1,.58-.84,2.53,2.53,0,0,1,.88-.53,2.92,2.92,0,0,1,1.08-.19,3.42,3.42,0,0,1,1.12.18,2.62,2.62,0,0,1,.84.49l-.78.89a1.19,1.19,0,0,0-.47-.34,1.6,1.6,0,0,0-.67-.14,1.45,1.45,0,0,0-.59.12,1.58,1.58,0,0,0-.48.33,1.69,1.69,0,0,0-.31.5,1.91,1.91,0,0,0-.11.64,1.87,1.87,0,0,0,.1.64,1.44,1.44,0,0,0,.3.51,1.32,1.32,0,0,0,.49.33,1.69,1.69,0,0,0,.66.12,2.71,2.71,0,0,0,.41,0,1.36,1.36,0,0,0,.36-.1v-.92h-1V54h2.09v2.68A3.85,3.85,0,0,1,167.53,57Z" fill="#d1d3d4"></path><path d="M171.66,54.34l-.16,0h-.14a.82.82,0,0,0-.4.09.8.8,0,0,0-.26.21.73.73,0,0,0-.14.26.85.85,0,0,0,0,.25v1.83h-1.18V53.38h1.13v.51h0a1.16,1.16,0,0,1,.38-.44,1,1,0,0,1,.59-.18h.14l.11,0Z" fill="#d1d3d4"></path><path d="M175.83,55.14a2.07,2.07,0,0,1-.15.8,1.83,1.83,0,0,1-1.06,1,2.19,2.19,0,0,1-.77.14,2.14,2.14,0,0,1-.76-.14,1.94,1.94,0,0,1-.64-.38,2,2,0,0,1-.42-.6,1.91,1.91,0,0,1-.16-.8,1.78,1.78,0,0,1,.16-.78,1.7,1.7,0,0,1,1.06-1,2.13,2.13,0,0,1,.76-.13,2.19,2.19,0,0,1,.77.13,1.81,1.81,0,0,1,.63.37,1.77,1.77,0,0,1,.43.6A1.94,1.94,0,0,1,175.83,55.14Zm-1.13,0a1.26,1.26,0,0,0,0-.33.92.92,0,0,0-.17-.29.71.71,0,0,0-.27-.21.8.8,0,0,0-.36-.08.87.87,0,0,0-.37.08.75.75,0,0,0-.26.21.9.9,0,0,0-.16.29,1.26,1.26,0,0,0-.05.33,1.27,1.27,0,0,0,.05.34.9.9,0,0,0,.17.3.75.75,0,0,0,.26.21.87.87,0,0,0,.37.08.83.83,0,0,0,.36-.08.71.71,0,0,0,.27-.21,1.08,1.08,0,0,0,.16-.3A1.27,1.27,0,0,0,174.7,55.14Z" fill="#d1d3d4"></path><path d="M178.93,56.94v-.49h0a1.24,1.24,0,0,1-.17.23.94.94,0,0,1-.25.18,1,1,0,0,1-.3.13,1.08,1.08,0,0,1-.36,0,1.21,1.21,0,0,1-.6-.13,1.11,1.11,0,0,1-.41-.33,1.45,1.45,0,0,1-.22-.47,2.33,2.33,0,0,1-.07-.53V53.37h1.19v1.94a1.27,1.27,0,0,0,0,.28.61.61,0,0,0,.08.25A.52.52,0,0,0,178,56a.54.54,0,0,0,.27.06.56.56,0,0,0,.47-.23,1,1,0,0,0,.16-.54V53.37h1.17v3.57Z" fill="#d1d3d4"></path><path d="M185,55.14a2.46,2.46,0,0,1-.11.72,1.92,1.92,0,0,1-.34.61,1.54,1.54,0,0,1-.53.41,1.53,1.53,0,0,1-.72.16,1.44,1.44,0,0,1-.62-.13,1.12,1.12,0,0,1-.46-.36h0v2.11H181V53.37h1.12v.44h0a1.48,1.48,0,0,1,.46-.38,1.45,1.45,0,0,1,.68-.16,1.6,1.6,0,0,1,.7.15,1.68,1.68,0,0,1,.54.41,1.93,1.93,0,0,1,.33.6A2.12,2.12,0,0,1,185,55.14Zm-1.14,0a1.26,1.26,0,0,0-.05-.33.9.9,0,0,0-.16-.29.75.75,0,0,0-.26-.21.87.87,0,0,0-.37-.08.86.86,0,0,0-.36.08.75.75,0,0,0-.26.21.88.88,0,0,0-.18.29,1,1,0,0,0-.06.34,1,1,0,0,0,.06.34.88.88,0,0,0,.18.29.75.75,0,0,0,.26.21.86.86,0,0,0,.36.08.87.87,0,0,0,.37-.08.75.75,0,0,0,.26-.21,1,1,0,0,0,.16-.3A1.27,1.27,0,0,0,183.81,55.14Z" fill="#d1d3d4"></path><path d="M251.33,58.31a.5.5,0,0,1-.5-.5V51.43a.5.5,0,0,1,.5-.5.51.51,0,0,1,.5.5v6.38A.5.5,0,0,1,251.33,58.31Z" fill="#d1d3d4"></path><path d="M255,55.12h-7.56a.5.5,0,0,1-.5-.5.5.5,0,0,1,.5-.5H255a.5.5,0,0,1,.5.5A.5.5,0,0,1,255,55.12Z" fill="#d1d3d4"></path><path d="M145.24,58.55a.53.53,0,0,1-.27-.08l-4.61-3.07a.5.5,0,0,1,0-.83L145,51.5a.5.5,0,0,1,.55.83l-4,2.65,4,2.66a.5.5,0,0,1,.14.69A.52.52,0,0,1,145.24,58.55Z" fill="#d1d3d4"></path><path d="M216.69,131.38l4.08-30.13a17.17,17.17,0,0,0-12.36,6.19c-3.38,4.14-6.9,16.26-8.88,23.94Z" fill="#fff"></path><path d="M216.69,131.84H199.53a.47.47,0,0,1-.37-.18.49.49,0,0,1-.08-.39c2.27-8.77,5.66-20.06,9-24.12a17.55,17.55,0,0,1,12.71-6.35.45.45,0,0,1,.35.15.52.52,0,0,1,.11.36l-4.08,30.13A.47.47,0,0,1,216.69,131.84Zm-16.57-.92h16.17l4-29.18a16.9,16.9,0,0,0-11.49,6C205.47,111.75,202,123.74,200.12,130.92Z" fill="#231f20"></path><path d="M213.9,119.76a.45.45,0,0,1-.45-.45V109.19a.46.46,0,1,1,.91,0v10.12A.45.45,0,0,1,213.9,119.76Z" fill="#231f20"></path><path d="M254.56,131.38l-1.35-11.58s-11.79-4.82-6-20.09c0,0-12-3.32-28.35.9,0,0,.87,11.86-6.49,20.75a29.63,29.63,0,0,0-.68,10Z" fill="#1ca7ec"></path><path d="M263,131.88H134.44a.5.5,0,0,1,0-1H263a.5.5,0,0,1,0,1Z" fill="#231f20"></path><path d="M274.13,61.9H275a1.71,1.71,0,0,1,1.71,1.71V90.44A1.71,1.71,0,0,1,275,92.15h-.87a0,0,0,0,1,0,0V61.9A0,0,0,0,1,274.13,61.9Z" fill="#fff"></path><path d="M275,92.65h-.87a.5.5,0,0,1-.5-.5V61.9a.5.5,0,0,1,.5-.5H275a2.21,2.21,0,0,1,2.21,2.21V90.44A2.21,2.21,0,0,1,275,92.65Zm-.37-1H275a1.21,1.21,0,0,0,1.21-1.21V63.61A1.21,1.21,0,0,0,275,62.4h-.37Z" fill="#231f20"></path><path d="M274.13,96.83H275a1.71,1.71,0,0,1,1.71,1.71v26.83a1.71,1.71,0,0,1-1.71,1.71h-.87a0,0,0,0,1,0,0V96.83A0,0,0,0,1,274.13,96.83Z" fill="#fff"></path><path d="M275,127.58h-.87a.5.5,0,0,1-.5-.5V96.83a.5.5,0,0,1,.5-.5H275a2.21,2.21,0,0,1,2.21,2.21v26.83A2.21,2.21,0,0,1,275,127.58Zm-.37-1H275a1.21,1.21,0,0,0,1.21-1.21V98.54A1.21,1.21,0,0,0,275,97.33h-.37Z" fill="#231f20"></path><path d="M164.1,65.92c-6.3,1.11-12,4.92-11.86,12a15.68,15.68,0,0,0,5.64,11.18c4.74,4.14,11.77,5.79,17.63,3.49a14.51,14.51,0,0,0,9-12.33c.23-4.25-1.65-11.24-6.12-12.78-1.71-.59-3.83.76-3.83.76C173.77,65.76,166.73,65.46,164.1,65.92Z" fill="#fff"></path><path d="M169.86,94.06a18.88,18.88,0,0,1-12.28-4.64,15.94,15.94,0,0,1-5.79-11.52c-.12-6.41,4.46-11.06,12.23-12.43,2.1-.37,9.13-.35,10.77,2.12a5.11,5.11,0,0,1,3.78-.56c4.79,1.65,6.67,8.87,6.43,13.23A15,15,0,0,1,175.67,93,15.81,15.81,0,0,1,169.86,94.06ZM166.63,66.2a15,15,0,0,0-2.45.17h0c-2.73.48-11.63,2.74-11.48,11.52a15.1,15.1,0,0,0,5.48,10.85c4.8,4.18,11.7,5.55,17.16,3.4a14.09,14.09,0,0,0,8.75-11.93c.23-4.24-1.66-10.88-5.82-12.32-1.48-.52-3.41.71-3.43.72a.45.45,0,0,1-.68-.24C173.64,66.81,169.66,66.2,166.63,66.2Zm-2.53-.28h0Z" fill="#231f20"></path><path d="M175.28,99.28l.06,9.21s-.93,5.15-6.54,3.58a11.6,11.6,0,0,1-7.44-6.6s-.47-19.4-.58-25.26c6.81-.1,14.3-4.49,14.3-4.49s2.34,3.52,3.36,4.63a13.46,13.46,0,0,1,2.1,2.78c1,1.77.91,4,.87,5.94a37.64,37.64,0,0,1-.7,6.94C179.82,100.35,175.28,99.28,175.28,99.28Z" fill="#fff"></path><path d="M170.79,112.83a7.9,7.9,0,0,1-2.11-.32,12,12,0,0,1-7.75-6.89.58.58,0,0,1,0-.14s-.46-19.41-.57-25.26a.41.41,0,0,1,.12-.32.45.45,0,0,1,.33-.14c6.6-.11,14-4.39,14.07-4.43a.46.46,0,0,1,.61.14s2.33,3.5,3.32,4.57A14.69,14.69,0,0,1,181,82.91c1,1.9,1,4.27.92,6.17a39,39,0,0,1-.71,7,4.44,4.44,0,0,1-1.93,3,5.51,5.51,0,0,1-3.49.7l0,8.67a5.61,5.61,0,0,1-2.36,3.62A4.84,4.84,0,0,1,170.79,112.83Zm-9-7.45a11.18,11.18,0,0,0,7.11,6.25,4.29,4.29,0,0,0,6-3.22l-.07-9.13a.47.47,0,0,1,.18-.36.48.48,0,0,1,.39-.09,4.86,4.86,0,0,0,3.35-.48,3.61,3.61,0,0,0,1.53-2.43,38.27,38.27,0,0,0,.68-6.86c0-1.89.09-4-.81-5.72a13.26,13.26,0,0,0-2-2.68c-.84-.93-2.54-3.4-3.16-4.33-1.58.87-7.77,4.08-13.69,4.33C161.37,86.75,161.78,104,161.82,105.38Z" fill="#231f20"></path><path d="M175.23,103.8a8.82,8.82,0,0,1-6.14-2.32,6.42,6.42,0,0,1-2.05-5s4,2.71,8.24,2.8Z" fill="#231f20"></path><path d="M175.07,104.25a9.13,9.13,0,0,1-6.3-2.46,6.91,6.91,0,0,1-2.17-5.38.44.44,0,0,1,.26-.34.45.45,0,0,1,.42,0s4,2.64,8,2.73a.44.44,0,0,1,.43.45l-.05,4.52a.45.45,0,0,1-.42.44Zm.16-.45h0Zm-7.75-6.54a6.46,6.46,0,0,0,1.92,3.91,8.18,8.18,0,0,0,5.39,2.19l.05-3.66A17.79,17.79,0,0,1,167.48,97.26Z" fill="#231f20"></path><path d="M171.67,84.58s3,4.43,2.26,5.2-2.68.26-2.68.26" fill="#fff"></path><path d="M172.55,90.64a5.68,5.68,0,0,1-1.41-.18.44.44,0,0,1-.32-.53.43.43,0,0,1,.54-.32c.56.14,1.85.3,2.24-.13.15-.4-.92-2.59-2.3-4.65a.46.46,0,0,1,.12-.62.45.45,0,0,1,.62.13c1.44,2.15,3,4.89,2.21,5.74A2.28,2.28,0,0,1,172.55,90.64Z" fill="#231f20"></path><ellipse cx="175.57" cy="83.2" rx="0.51" ry="0.96" transform="translate(-3.14 6.97) rotate(-2.25)" fill="#231f20"></ellipse><ellipse cx="167.02" cy="82.94" rx="0.96" ry="0.51" transform="translate(79.15 247.43) rotate(-88.3)" fill="#231f20"></ellipse><path d="M162.67,86.2c-1-1.38-2.51-3.87-4.55-3.12a3.48,3.48,0,0,0-1.37,1c-1.64,1.94-1.39,4.52-.31,6.64.93,1.84,3.86,4.63,5.86,2.32" fill="#fff"></path><path d="M160.53,94.4l-.34,0c-1.88-.24-3.55-2.22-4.16-3.42-1.33-2.63-1.2-5.3.37-7.14A3.82,3.82,0,0,1,158,82.66c2.22-.83,3.8,1.44,4.84,2.94l.24.34a.44.44,0,0,1-.11.63.46.46,0,0,1-.64-.11l-.24-.34c-1.17-1.68-2.34-3.14-3.77-2.61a3.1,3.1,0,0,0-1.19.9c-1.31,1.55-1.4,3.85-.24,6.14.65,1.28,2.15,2.76,3.45,2.92a1.8,1.8,0,0,0,1.66-.7.45.45,0,0,1,.64,0,.47.47,0,0,1,.05.65A2.79,2.79,0,0,1,160.53,94.4Z" fill="#231f20"></path><path d="M172,95a4.89,4.89,0,0,1-.54,0c-3-.34-5.05-3.4-5.14-3.53a.45.45,0,0,1,.13-.62.44.44,0,0,1,.61.13s1.94,2.85,4.51,3.14a4.55,4.55,0,0,0,3.66-1.45.44.44,0,1,1,.6.64A5.54,5.54,0,0,1,172,95Z" fill="#231f20"></path><path d="M149.45,131.86a.5.5,0,0,1-.5-.5V116.93a.5.5,0,0,1,1,0v14.43A.5.5,0,0,1,149.45,131.86Z" fill="#231f20"></path><path d="M186.15,131.88a.49.49,0,0,1-.49-.41l-2.85-15.06a.48.48,0,0,1,.4-.58.49.49,0,0,1,.58.39l2.85,15.07a.5.5,0,0,1-.4.58Z" fill="#231f20"></path><path d="M226.9,99.57l-.6,8.39s.82,3.9,6.52,3,6.84-4.69,6.84-4.69l.55-15.68s-8.4-5.36-6.46-14.27c0,0-3.95,4.87-12.19,3.14,0,0-.76,10-.43,14.37S226.9,99.57,226.9,99.57Z" fill="#fff"></path><path d="M231.21,111.59c-4.6,0-5.39-3.49-5.4-3.53a.66.66,0,0,1,0-.14l.57-8c-1.33-.42-5.44-2-5.74-6.07-.33-4.37.4-14,.43-14.44a.57.57,0,0,1,.2-.37.58.58,0,0,1,.41-.09c7.84,1.65,11.65-2.92,11.69-3a.5.5,0,0,1,.88.42c-1.84,8.46,6.16,13.69,6.24,13.74a.53.53,0,0,1,.23.44l-.55,15.68a.5.5,0,0,1,0,.12c0,.17-1.29,4.1-7.24,5A10.57,10.57,0,0,1,231.21,111.59Zm-4.4-3.68c.13.47,1.11,3.32,5.93,2.55,5-.79,6.26-3.82,6.42-4.28l.54-15.33c-1.3-.93-7.43-5.72-6.68-13.15-1.68,1.35-5.3,3.38-11,2.36a132.17,132.17,0,0,0-.39,13.74c.3,4,5.34,5.28,5.39,5.29a.5.5,0,0,1,.38.52Z" fill="#231f20"></path><path d="M237.6,89.94A3.69,3.69,0,0,1,239,88.08a6.5,6.5,0,0,1,2-.83,2.73,2.73,0,0,1,1.2-.12,2.18,2.18,0,0,1,.77.36A2.84,2.84,0,0,1,244.24,89a3.38,3.38,0,0,1-.06,1.61,6.5,6.5,0,0,1-.56,1.66,4.44,4.44,0,0,1-6.06,1.84" fill="#fff"></path><path d="M239.69,95.16a4.87,4.87,0,0,1-2.36-.6.49.49,0,0,1-.21-.67.5.5,0,0,1,.68-.2,3.95,3.95,0,0,0,5.37-1.64,6.25,6.25,0,0,0,.53-1.54,3,3,0,0,0,.06-1.37,2.46,2.46,0,0,0-1-1.24,2.07,2.07,0,0,0-.6-.28,2.46,2.46,0,0,0-1,.12,5.92,5.92,0,0,0-1.88.75,3.18,3.18,0,0,0-1.21,1.61.5.5,0,0,1-.63.31.51.51,0,0,1-.32-.63,4.23,4.23,0,0,1,1.59-2.11,6.83,6.83,0,0,1,2.2-.9,3.22,3.22,0,0,1,1.42-.13,2.7,2.7,0,0,1,.95.43,3.29,3.29,0,0,1,1.44,1.81,3.79,3.79,0,0,1-.05,1.84,6.92,6.92,0,0,1-.61,1.79A5,5,0,0,1,241.12,95,5,5,0,0,1,239.69,95.16Z" fill="#231f20"></path><path d="M228.3,86.06s-3.43,4-2.82,4.87,2.61.56,2.61.56" fill="#fff"></path><path d="M227.36,92a2.86,2.86,0,0,1-2.29-.81c-.69-1,1.17-3.51,2.85-5.48a.49.49,0,0,1,.7-.06.51.51,0,0,1,.06.71c-1.56,1.83-2.85,3.84-2.77,4.29.26.36,1.42.4,2.11.31a.5.5,0,0,1,.56.43.49.49,0,0,1-.43.56A6.29,6.29,0,0,1,227.36,92Z" fill="#231f20"></path><ellipse cx="224.63" cy="84.89" rx="0.73" ry="1.02" transform="translate(-0.47 1.24) rotate(-0.32)" fill="#231f20"></ellipse><ellipse cx="232.32" cy="84.89" rx="0.73" ry="1.02" transform="translate(-0.47 1.29) rotate(-0.32)" fill="#231f20"></ellipse><path d="M225.7,93.79l6.61-2.27a4.17,4.17,0,0,1-1.14,4.77C228.61,98.83,225.7,93.79,225.7,93.79Z" fill="#fff"></path><path d="M229.62,97.51l-.35,0c-2.16-.3-3.93-3.32-4-3.45a.5.5,0,0,1,0-.43.52.52,0,0,1,.31-.29l6.61-2.27a.49.49,0,0,1,.6.24,4.71,4.71,0,0,1-1.22,5.36A2.69,2.69,0,0,1,229.62,97.51Zm-3.15-3.45c.62.91,1.8,2.28,2.94,2.44a1.65,1.65,0,0,0,1.41-.56A3.8,3.8,0,0,0,232,92.15Z" fill="#231f20"></path><path d="M235.11,87.79H231.2a2.65,2.65,0,0,1-2.65-2.64V82.48a.51.51,0,0,1,.5-.5h8.2a.5.5,0,0,1,.5.5v2.67A2.64,2.64,0,0,1,235.11,87.79ZM229.55,83v2.17a1.65,1.65,0,0,0,1.65,1.64h3.91a1.65,1.65,0,0,0,1.64-1.64V83Z" fill="#231f20"></path><path d="M225.4,87.79h-3.91a2.65,2.65,0,0,1-2.65-2.64V82.48a.51.51,0,0,1,.5-.5h8.2a.5.5,0,0,1,.5.5v2.67A2.64,2.64,0,0,1,225.4,87.79ZM219.84,83v2.17a1.65,1.65,0,0,0,1.65,1.64h3.91A1.65,1.65,0,0,0,227,85.15V83Z" fill="#231f20"></path><path d="M229.67,83h-4.28a.5.5,0,0,1-.5-.5.51.51,0,0,1,.5-.5h4.28a.5.5,0,0,1,.5.5A.5.5,0,0,1,229.67,83Z" fill="#231f20"></path><path d="M226.9,99.57s4.36.22,6.44-.87c0,0-1.92,4.9-6.72,5.92Z" fill="#231f20"></path><path d="M226.62,105.12a.49.49,0,0,1-.32-.12.48.48,0,0,1-.17-.4l.27-5a.47.47,0,0,1,.52-.47c.05,0,4.25.19,6.19-.82a.5.5,0,0,1,.57.07.51.51,0,0,1,.13.55c-.09.21-2.08,5.16-7.08,6.23Zm.75-5-.21,3.88a9.47,9.47,0,0,0,5.16-4.36A19.8,19.8,0,0,1,227.37,100.09Z" fill="#231f20"></path><path d="M169,110.94s-7.78,8.24-7.38,16.31l13.11,1.5s-2.39-14.31-.91-17.89Z" fill="#fff"></path><path d="M174.7,129.25h0l-13.12-1.5a.5.5,0,0,1-.44-.48c-.4-8.19,7.19-16.33,7.52-16.67a.52.52,0,0,1,.35-.16l4.82-.08a.52.52,0,0,1,.42.22.47.47,0,0,1,.05.47c-1.41,3.41.92,17.48.95,17.62a.54.54,0,0,1-.14.43A.48.48,0,0,1,174.7,129.25Zm-12.63-2.45,12,1.38c-.43-2.71-1.92-12.86-1-16.81l-3.91.07C168.18,112.57,162,119.76,162.07,126.8Z" fill="#231f20"></path><path d="M168.14,120.31h-.08a.51.51,0,0,1-.42-.57,17.7,17.7,0,0,1,3.07-7.67.5.5,0,0,1,.79.62,16.89,16.89,0,0,0-2.87,7.2A.5.5,0,0,1,168.14,120.31Z" fill="#d1d3d4"></path><path d="M175.92,114a.65.65,0,0,1-.19,0,.5.5,0,0,1-.27-.66,29.23,29.23,0,0,0,1.74-4.85,9.22,9.22,0,0,0-.09-4.92.51.51,0,0,1,.32-.64.5.5,0,0,1,.63.32,10.11,10.11,0,0,1,.11,5.46,28.5,28.5,0,0,1-1.79,5A.5.5,0,0,1,175.92,114Z" fill="#d1d3d4"></path></svg>