<?xml version="1.0" ?><!DOCTYPE svg  PUBLIC '-//W3C//DTD SVG 1.1//EN'  'http://www.w3.org/Graphics/SVG/1.1/DTD/svg11.dtd'><svg id="Lager_1" style="enable-background:new -265 388.9 64 64;" version="1.1" viewBox="-265 388.9 64 64" xml:space="preserve" xmlns="http://www.w3.org/2000/svg" xmlns:xlink="http://www.w3.org/1999/xlink"><g><path d="M-210.6,411.3h-44.8c-0.9,0-1.6-0.7-1.6-1.6v-9.6c0-0.9,0.7-1.6,1.6-1.6h44.8c0.9,0,1.6,0.7,1.6,1.6v9.6   C-209,410.6-209.7,411.3-210.6,411.3z"/><path d="M-236.2,427.3h-19.2c-0.9,0-1.6-0.7-1.6-1.6v-9.6c0-0.9,0.7-1.6,1.6-1.6h19.2c0.9,0,1.6,0.7,1.6,1.6v9.6   C-234.6,426.6-235.3,427.3-236.2,427.3z"/><path d="M-210.6,427.3h-19.2c-0.9,0-1.6-0.7-1.6-1.6v-9.6c0-0.9,0.7-1.6,1.6-1.6h19.2c0.9,0,1.6,0.7,1.6,1.6v9.6   C-209,426.6-209.7,427.3-210.6,427.3z"/><path d="M-245.8,443.3h-9.6c-0.9,0-1.6-0.7-1.6-1.6v-9.6c0-0.9,0.7-1.6,1.6-1.6h9.6c0.9,0,1.6,0.7,1.6,1.6v9.6   C-244.2,442.6-244.9,443.3-245.8,443.3z"/><path d="M-226.6,443.3h-12.8c-0.9,0-1.6-0.7-1.6-1.6v-9.6c0-0.9,0.7-1.6,1.6-1.6h12.8c0.9,0,1.6,0.7,1.6,1.6v9.6   C-225,442.6-225.7,443.3-226.6,443.3z"/><path d="M-210.6,443.3h-9.6c-0.9,0-1.6-0.7-1.6-1.6v-9.6c0-0.9,0.7-1.6,1.6-1.6h9.6c0.9,0,1.6,0.7,1.6,1.6v9.6   C-209,442.6-209.7,443.3-210.6,443.3z"/></g></svg>