<svg xmlns="http://www.w3.org/2000/svg" viewBox="0 0 400 300" width="406" height="306" class="illustration styles_illustrationTablet__1DWOa"><g id="_285_conversation_flatline" data-name="#285_conversation_flatline"><path d="M189.51,100.7v68.42A30.49,30.49,0,0,1,159,199.6H90.85l-16,23.16-4.38,6.32V199.6H63.86a30.48,30.48,0,0,1-30.41-28.28c-.05-.72-.08-1.46-.08-2.2V100.7A30.46,30.46,0,0,1,63.86,70.23H159A30.48,30.48,0,0,1,189.51,100.7Z" fill="#fff"></path><path d="M159,70.23a30.48,30.48,0,0,1,30.49,30.47v68.42A30.49,30.49,0,0,1,159,199.6H90.85l-16,23.16-4.38,6.32V199.6H63.86a30.48,30.48,0,0,1-30.41-28.28c-.05-.72-.08-1.46-.08-2.2V100.7A30.46,30.46,0,0,1,63.86,70.23H159m0-1H63.86A31.52,31.52,0,0,0,32.34,100.7v68.42c0,.77,0,1.53.08,2.28a31.61,31.61,0,0,0,31.44,29.23H69.4v28.45a1,1,0,0,0,1,1,1,1,0,0,0,.85-.44l4.38-6.32,15.73-22.72H159a31.51,31.51,0,0,0,31.52-31.51V100.7A31.55,31.55,0,0,0,159,69.19Z" fill="#231f20"></path><path d="M371.58,118.55V187A30.47,30.47,0,0,1,343,217.38v29.55l-1.8-2.6L324,219.39l-1.35-1.94H245.93A30.49,30.49,0,0,1,215.44,187V118.55a30.48,30.48,0,0,1,30.49-30.47H341.1A30.47,30.47,0,0,1,371.58,118.55Z" fill="#fff"></path><path d="M341.1,88.08a30.47,30.47,0,0,1,30.48,30.47V187A30.47,30.47,0,0,1,343,217.38v29.55l-1.8-2.6L324,219.39l-1.35-1.94H245.93A30.49,30.49,0,0,1,215.44,187V118.55a30.48,30.48,0,0,1,30.49-30.47H341.1m0-1H245.93a31.55,31.55,0,0,0-31.52,31.51V187a31.55,31.55,0,0,0,31.52,31.51h76.13l1,1.5,17.28,24.94,1.8,2.6a1,1,0,0,0,.85.44,1.1,1.1,0,0,0,.31,0,1,1,0,0,0,.72-1V218.34A31.56,31.56,0,0,0,372.62,187V118.55A31.55,31.55,0,0,0,341.1,87Z" fill="#231f20"></path><path d="M47,105.44l.87-11.86s4.19-11.68,3.67-13.25S47.34,80,45.6,86.78c0,0-3-15.52-4.36-15.87s-2.79.7-2.62,3,1.05,6.27,1.05,6.27-2.09-9.41-3.84-8.54,0,9.85,0,9.85-1.91-8.8-3.31-7.76,1,9.42,1,9.42-4.13-10.7-5-7.79S32,88.87,32.17,92.71s.7,20.4.7,20.4Z" fill="#fff"></path><path d="M32.87,113.63a.59.59,0,0,1-.26-.07.54.54,0,0,1-.26-.43c0-.17-.52-16.61-.69-20.4a41.17,41.17,0,0,0-1.74-7.3C28.67,81.1,27.48,77,28,75.18c.23-.74.67-.86.92-.87h0c.8,0,1.81,1.45,2.81,3.42-.31-2-.34-3.87.42-4.44a.91.91,0,0,1,.87-.13c.52.19,1,1,1.47,2.07,0-1.94.18-3.64,1.05-4.08a1,1,0,0,1,.94,0A4.44,4.44,0,0,1,38.1,73.3a3.2,3.2,0,0,1,1-2.39,2.48,2.48,0,0,1,2.23-.5c1.29.32,3,7.53,4.35,14.26,1.36-3.67,3.37-5.41,4.85-5.47a1.4,1.4,0,0,1,1.46,1c.54,1.63-2.89,11.39-3.64,13.52l-.87,11.79a.51.51,0,0,1-.27.41l-14.12,7.67A.59.59,0,0,1,32.87,113.63ZM29.06,75.39l0,.09c-.47,1.53.78,5.85,1.88,9.66a41.59,41.59,0,0,1,1.78,7.55c.15,3.29.56,16.15.67,19.57l13.14-7.14.85-11.58a.31.31,0,0,1,0-.13c2-5.66,3.95-12,3.66-12.92,0-.07-.08-.27-.45-.25-1.08,0-3.26,1.88-4.49,6.67a.55.55,0,0,1-.52.39.53.53,0,0,1-.49-.42C43.73,79.76,41.84,72,41,71.38a1.47,1.47,0,0,0-1.24.31,2.48,2.48,0,0,0-.66,2.15c.17,2.2,1,6.17,1,6.2a.51.51,0,1,1-1,.23c-.94-4.24-2.42-8.14-3.1-8.2-.84.42-.54,5.14.27,9.29a.52.52,0,1,1-1,.21c-.8-3.66-1.94-7-2.55-7.41-.51.64.07,4.66,1.28,8.81a.52.52,0,0,1-.33.64.51.51,0,0,1-.64-.3C31.73,79.8,29.85,75.93,29.06,75.39ZM47,105.44h0Z" fill="#231f20"></path><path d="M190.45,147.11s6-4,7.13-6.42,1.11-7.33,2.3-9.63,3.26,1.09,2,7.75c0,0,8.69-14.34,9.58-12.6s0,2-2.23,6.62c0,0,1.74-5,3.67-3.82s-2.92,7.3-2.92,7.3,3.83-5.54,4.93-3.47-3.94,7.2-3.94,7.2,5.28-6.58,5.56-4.17-6,10.58-19,20.9" fill="#fff"></path><path d="M197.54,157.22a.46.46,0,0,1-.36-.17.45.45,0,0,1,.07-.64c13.23-10.54,19-18.45,18.8-20.49a.32.32,0,0,0,0-.15c-.32,0-1.43.9-2.73,2.28a30,30,0,0,1-2,2.31.46.46,0,0,1-.69-.61c.49-.6,1.24-1.5,2.06-2.37,1.28-1.67,2.29-3.47,1.84-4.32-.12-.21-.22-.22-.28-.22-.72-.06-2,1.31-3.08,2.65-.4.57-.71,1-.81,1.1a.46.46,0,0,1-.74-.54c.14-.2.44-.63.85-1.14,1.26-1.79,2.62-4.15,2.43-5.18a.45.45,0,0,0-.21-.33.64.64,0,0,0-.6-.06,2.48,2.48,0,0,0-1,.9c-.4.72-.87,1.6-1.43,2.79a.45.45,0,0,1-.59.22.45.45,0,0,1-.25-.57,12.44,12.44,0,0,1,1.5-3c0-.08.09-.17.14-.24.91-1.67,1.11-2,.69-2.93-1.19.63-5.35,6.71-8.86,12.49a.45.45,0,0,1-.55.19.47.47,0,0,1-.29-.52c1-5.06-.06-7.72-.65-7.92-.12-.05-.33.2-.46.47a17.17,17.17,0,0,0-1.14,4.73,20.08,20.08,0,0,1-1.16,4.89c-1.18,2.56-7,6.44-7.29,6.6a.45.45,0,1,1-.5-.76c.06,0,5.89-3.9,7-6.23a19.28,19.28,0,0,0,1.07-4.64,17.9,17.9,0,0,1,1.24-5c.57-1.12,1.29-1,1.57-.91,1.16.4,1.94,2.94,1.57,6.74,2.73-4.38,7.14-11.11,8.61-11.08a.71.71,0,0,1,.61.4,2.49,2.49,0,0,1,.14,2.41,1.59,1.59,0,0,1,1.12.2,1.38,1.38,0,0,1,.65.95,5,5,0,0,1-.69,2.75,2.17,2.17,0,0,1,1.2-.39,1.22,1.22,0,0,1,1,.71,3.07,3.07,0,0,1-.26,2.66,1.75,1.75,0,0,1,1.29-.37,1,1,0,0,1,.65.9c.31,2.69-6.28,11.07-19.14,21.3A.42.42,0,0,1,197.54,157.22Z" fill="#231f20"></path><path d="M85.71,66.09a53.55,53.55,0,0,0-3.49,14.49l2.4-3.86c-1.48,2.38-.82,7.07-.66,9.75a48.34,48.34,0,0,0,2.17,11.8,25.86,25.86,0,0,1,1.68-5.63l3.13,7.8a21,21,0,0,0,2.9,5.56c4.38,5.43,14.25,5.84,20.51,4.49,5.23-1.12,14.39-5.47,13.36-12.36l.45,3a26.8,26.8,0,0,0,3.46-19.25L136.19,88a36.21,36.21,0,0,0-4.54-20.87c-3.57-6.33-7.53-9.82-13.88-13.4-1.83-1-4.7-1.56-5.57.36-4.43-3-10.51-3-15.33-.64s-8.44,6.72-10.7,11.58C86,65.4,85.85,65.74,85.71,66.09Z" fill="#fff"></path><path d="M107.94,111.68c-5.63,0-11.4-1.52-14.5-5.35a21.81,21.81,0,0,1-3-5.69L87.81,94a25,25,0,0,0-1.17,4.33.52.52,0,0,1-.48.43.51.51,0,0,1-.52-.36,49.24,49.24,0,0,1-2.2-11.93c0-.41-.06-.85-.09-1.33A33.22,33.22,0,0,1,83.22,80l-.57.9a.51.51,0,0,1-.94-.33,55.2,55.2,0,0,1,3.52-14.63h0c.15-.35.31-.7.47-1A24.32,24.32,0,0,1,96.64,53c5.09-2.47,11.07-2.31,15.4.38a2.55,2.55,0,0,1,1.29-.89,6.44,6.44,0,0,1,4.69.81c6.86,3.86,10.67,7.54,14.08,13.6a36.91,36.91,0,0,1,4.61,21.17.52.52,0,0,1-.38.45.51.51,0,0,1-.55-.19l-3.32-4.46a27.27,27.27,0,0,1-3.86,17.52.53.53,0,0,1-.55.24.59.59,0,0,1-.14-.06c-1.71,5.06-8.61,8.38-13.45,9.42A31.79,31.79,0,0,1,107.94,111.68ZM87.81,92.13h0a.5.5,0,0,1,.47.32l3.13,7.8a20.92,20.92,0,0,0,2.82,5.43c4.35,5.38,14.34,5.52,20,4.31,5.51-1.19,13.9-5.43,13-11.77h0a.52.52,0,1,1,1-.15h0l.23,1.53A26.24,26.24,0,0,0,131.11,82a.52.52,0,0,1,.3-.57.51.51,0,0,1,.62.16l3.74,5a35.89,35.89,0,0,0-4.57-19.19c-3.31-5.87-7-9.44-13.68-13.2a5.44,5.44,0,0,0-3.87-.73,1.52,1.52,0,0,0-1,.85.53.53,0,0,1-.33.29.51.51,0,0,1-.43-.08c-4.06-2.77-9.87-3-14.82-.6A23.29,23.29,0,0,0,86.63,65.28l-.45,1h0a49.78,49.78,0,0,0-3.13,12l1.14-1.82a.51.51,0,0,1,.87.55h0c-1.17,1.87-.89,5.46-.68,8.08,0,.49.07,1,.09,1.36a49.33,49.33,0,0,0,1.58,9.75,27.2,27.2,0,0,1,1.29-3.75A.51.51,0,0,1,87.81,92.13Zm-2.1-26h0Z" fill="#231f20"></path><path d="M138.82,199.6H92.65c-3-32.22-7.23-84.63-2.88-91.21a10.23,10.23,0,0,1,3.5-3.17,15.06,15.06,0,0,1,1.93-1,33.68,33.68,0,0,1,11.71-2,63.7,63.7,0,0,1,10,.59H117a43.32,43.32,0,0,1,8.34,1.84c.42.16.78.31,1.06.45C130.35,107.2,136.7,175.55,138.82,199.6Z" fill="#fff"></path><path d="M151.22,199.6H90.85l-3.58,5.16-12.46,18q-1.07-9.7-1.94-18.42c-2.09-20.61-3.5-37.19-4.15-50.48,0-.1,0-.22,0-.33-1.16-24,.15-37.21,4.3-44a20.29,20.29,0,0,1,6.17-6.35A28.15,28.15,0,0,1,90.4,99.09a34.94,34.94,0,0,1,4.71-.4c1,0,1.53,0,1.53,0s3.37-.2,8.21-.26l1.83,0c4.28,0,9.41,0,14.3.44,2.36.19,4.67.45,6.8.79l.16,0c.32.06.63.11.94.18a24,24,0,0,1,7.45,2.36c.93.54,1.83,2.07,2.7,4.37a1,1,0,0,0,.07.17,62.35,62.35,0,0,1,2,7c3.34,14.15,6.06,38.57,7.91,58.81.46,5.09.87,9.92,1.23,14.25.28,3.47.52,6.63.72,9.34C151.06,197.4,151.15,198.55,151.22,199.6Z" fill="#1ca7ec"></path><polygon points="95.3 109.78 117.12 156.77 117.78 113.89 95.3 109.78" fill="#fff"></polygon><path d="M117.12,157.28a.51.51,0,0,1-.47-.3L94.83,110a.51.51,0,0,1,.06-.53.49.49,0,0,1,.5-.19l22.49,4.11a.51.51,0,0,1,.42.51l-.66,42.87a.53.53,0,0,1-.41.5ZM96.19,110.47l20.45,44,.62-40.19Z" fill="#231f20"></path><path d="M116.87,100.29l.92,13.6s-3.58,7.94-12.43,5.39-10.06-9.5-10.06-9.5-.45-25.67-.42-26.25c0-.77,5.9-5.14,6.73-6.21a28.31,28.31,0,0,0,5-9.92l.08,3.88a17.93,17.93,0,0,0,5.61-7.57c1.3,2.95,4.43,4.54,7.13,6.3,6.67,4.33,7.49,15.43,6,22.7C124,99.59,116.87,100.29,116.87,100.29Z" fill="#fff"></path><path d="M108.72,120.3a12.8,12.8,0,0,1-3.5-.52c-9-2.61-10.38-9.61-10.43-9.91-.05-2.71-.46-25.78-.43-26.36s.94-1.44,4.06-4A29.93,29.93,0,0,0,101.2,77a28,28,0,0,0,4.87-9.74.52.52,0,0,1,1,.12l0,2.81a17.23,17.23,0,0,0,4.64-6.68.53.53,0,0,1,.47-.33.5.5,0,0,1,.48.31c1,2.37,3.43,3.86,5.73,5.3.41.26.82.51,1.21.77,7.09,4.61,7.63,16.42,6.26,23.24-1.22,6.09-6.81,7.6-8.51,7.92l.88,13.13a.55.55,0,0,1,0,.25C118.22,114.18,115.37,120.3,108.72,120.3Zm-2.6-49.88a29.51,29.51,0,0,1-4.1,7.22,28.37,28.37,0,0,1-2.94,2.62,28.23,28.23,0,0,0-3.7,3.38c0,.46.28,17.3.44,26.13,0,.19,1.28,6.59,9.68,9a9.64,9.64,0,0,0,11.76-5l-.9-13.46a.51.51,0,0,1,.46-.55c.28,0,6.81-.76,8.1-7.17s.85-17.85-5.81-22.17c-.39-.26-.79-.51-1.2-.76-2.11-1.33-4.29-2.69-5.6-4.77A18.3,18.3,0,0,1,107,71.69a.52.52,0,0,1-.84-.4Z" fill="#231f20"></path><path d="M117.12,107a11.61,11.61,0,0,1-9-3.38c-3.77-4-3.34-6.16-3.34-6.16s6.2,3.76,12.11,2.84Z" fill="#231f20"></path><path d="M116.34,107.52a11.91,11.91,0,0,1-8.6-3.57c-3.84-4-3.52-6.35-3.47-6.6a.51.51,0,0,1,.29-.35.47.47,0,0,1,.46,0c.06,0,6.12,3.65,11.78,2.77a.5.5,0,0,1,.39.11.47.47,0,0,1,.18.36l.25,6.7a.5.5,0,0,1-.44.52C117.13,107.49,116.83,107.52,116.34,107.52Zm-11-9.18c.21.91.9,2.59,3.12,4.92a11.21,11.21,0,0,0,8.14,3.26l-.21-5.66C111.77,101.37,107.18,99.3,105.34,98.34Z" fill="#231f20"></path><path d="M115.55,78.1s3.84,8,2.49,9.13-4.48-.22-4.48-.22" fill="#fff"></path><path d="M116.49,88.17a9.12,9.12,0,0,1-3.13-.7.49.49,0,0,1-.26-.65.5.5,0,0,1,.65-.27c.74.31,3.07,1,4,.29.54-.45-.71-4.51-2.63-8.53a.5.5,0,0,1,.9-.43c1.21,2.52,3.85,8.51,2.36,9.73A2.86,2.86,0,0,1,116.49,88.17Z" fill="#231f20"></path><ellipse cx="110.46" cy="76.48" rx="2.01" ry="0.88" transform="translate(21.41 177.07) rotate(-83.18)" fill="#231f20"></ellipse><ellipse cx="120.75" cy="77.32" rx="2.01" ry="0.88" transform="translate(29.65 188.04) rotate(-83.18)" fill="#231f20"></ellipse><path d="M102,80.13a12.26,12.26,0,0,0-2.9-3.66,3.86,3.86,0,0,0-5,0,5.63,5.63,0,0,0-1.74,2.79c-1.37,4.68,1.4,7.85,5.4,9.47" fill="#fff"></path><path d="M97.75,89.27a.43.43,0,0,1-.19,0c-4.92-2-7-5.66-5.7-10.09a6.11,6.11,0,0,1,1.91-3,4.35,4.35,0,0,1,5.71,0,12.86,12.86,0,0,1,3,3.81.53.53,0,0,1-.23.7.51.51,0,0,1-.69-.22,11.67,11.67,0,0,0-2.77-3.51,3.36,3.36,0,0,0-4.39,0,5.1,5.1,0,0,0-1.57,2.53c-1.61,5.48,3,8,5.1,8.85a.51.51,0,0,1-.2,1Z" fill="#231f20"></path><path d="M115.08,95.46c-2.87,0-3.7-3.22-3.74-4.92a.46.46,0,0,1,.17-.39.49.49,0,0,1,.4-.12l7.36,1.15a.56.56,0,0,1,.35.23.53.53,0,0,1,0,.41A5,5,0,0,1,115.08,95.46Zm-2.69-4.34c.14,1.11.69,3.34,2.69,3.34a3.85,3.85,0,0,0,3.42-2.39Z" fill="#231f20"></path><path d="M139,106.48s22,46.1,25.7,47c6.55,1.57,30.22-11.81,30.22-11.81l7.84,13.77s-24.26,31.16-41.55,26.71c-12.83-3.31-25.86-32.57-25.86-32.57Z" fill="#1ca7ec"></path><path d="M79.18,103.19S77.9,98.29,50,137.73c0-24.36,1.05-36,1.05-36l-20.25,2.71s-8.78,68.56,8,71,35.71-30.2,35.71-30.2Z" fill="#1ca7ec"></path><path d="M37.45,98a.52.52,0,0,1-.52-.52c0-6.3,8.07-10.92,8.41-11.12a.52.52,0,0,1,.71.2.51.51,0,0,1-.2.7c-.08,0-7.89,4.53-7.89,10.22A.51.51,0,0,1,37.45,98Z" fill="#231f20"></path><path d="M151,196.66a.51.51,0,0,1-.51-.48c-1.84-29.07-9.78-81.83-9.86-82.36a.5.5,0,0,1,.43-.58.52.52,0,0,1,.59.43c.08.53,8,53.33,9.86,82.44a.51.51,0,0,1-.48.55Z" fill="#231f20"></path><path d="M53.86,170.42a.52.52,0,0,1-.37-.88c.16-.16,15.9-16.17,26.47-31.24a.51.51,0,0,1,.72-.13.52.52,0,0,1,.13.72C70.18,154,54.38,170.11,54.23,170.27A.53.53,0,0,1,53.86,170.42Z" fill="#231f20"></path><path d="M201.85,146.05a.39.39,0,0,1-.18,0,.46.46,0,0,1-.24-.6,9.46,9.46,0,0,0,0-6.43.46.46,0,0,1,.86-.34,10.33,10.33,0,0,1,0,7.13A.44.44,0,0,1,201.85,146.05Z" fill="#231f20"></path><path d="M95.78,156.47h-.07c-.16,0-4-.53-7-5.54s-1.86-15.32-1.81-15.76a.51.51,0,0,1,.51-.46h0l14.52.26a.52.52,0,0,1,.5.44c.07.37,1.49,9.25,0,13.46s-6.15,7.39-6.35,7.52A.54.54,0,0,1,95.78,156.47Zm-7.91-20.72c-.18,2.08-.73,10.58,1.71,14.65s5.33,4.85,6.08,5c.83-.59,4.53-3.39,5.78-6.89s.31-10.7,0-12.52Z" fill="#231f20"></path><path d="M322.9,89.37s6.85-14.53,17.81-4.25c9,8.44-4.72,29.07,4.72,32.32,0,0-8.73-1.46-11.06-8.56s-1.67-9.24-1.67-9.24-4.55,2.72-8.81.37S322.9,89.37,322.9,89.37Z" fill="#fff"></path><path d="M345.43,117.9h-.08c-.37-.06-9-1.59-11.42-8.87-1.56-4.77-1.8-7.36-1.77-8.6a9.54,9.54,0,0,1-8.49,0c-4.56-2.52-1.34-10.85-1.2-11.21l0,0c.13-.29,3.34-7,9-8.05,3.1-.6,6.31.63,9.53,3.65,4.74,4.44,3.45,12,2.3,18.75-1.09,6.44-2,12,2.26,13.48a.46.46,0,0,1-.15.89ZM332.7,99.18a.42.42,0,0,1,.28.1.46.46,0,0,1,.16.49s-.56,2.19,1.66,9c1.42,4.32,5.38,6.49,8.06,7.49-2.17-2.71-1.32-7.67-.44-12.85,1.11-6.48,2.36-13.83-2-17.93-3-2.81-5.93-4-8.74-3.42-5.1,1-8.18,7.19-8.34,7.52s-3,8,.79,10.06c4,2.2,8.31-.34,8.36-.36A.39.39,0,0,1,332.7,99.18Z" fill="#231f20"></path><path d="M331.57,98a3,3,0,0,1-2.18,2.44c-1.58.36-3.7-.53-5.07-1.74a11.79,11.79,0,0,1-2.77-4.13c-1.15-2.54-4.92-12.13,1.9-9.32C329.39,87.69,332.53,94,331.57,98Z" fill="#231f20"></path><path d="M328.62,101A7.47,7.47,0,0,1,324,99a12,12,0,0,1-2.88-4.27c-.82-1.81-3.33-7.85-1.41-9.84.76-.79,2.07-.82,3.88-.07,6,2.48,9.39,9,8.38,13.27h0a3.38,3.38,0,0,1-2.51,2.76A4.28,4.28,0,0,1,328.62,101Zm-7.26-15.78a1.32,1.32,0,0,0-1,.34c-1.13,1.18,0,5.42,1.58,8.87a11.29,11.29,0,0,0,2.67,4c1.19,1.07,3.19,2,4.67,1.64a2.51,2.51,0,0,0,1.85-2.11h0c.93-3.87-2.23-9.93-7.86-12.25A5.57,5.57,0,0,0,321.36,85.18Z" fill="#231f20"></path><path d="M296.47,86.93s-6.85-14.53-17.81-4.26c-9,8.45,4.72,29.08-4.72,32.32,0,0,8.73-1.46,11.06-8.56s1.67-9.24,1.67-9.24,4.55,2.73,8.81.37S296.47,86.93,296.47,86.93Z" fill="#fff"></path><path d="M273.94,115.45a.46.46,0,0,1-.44-.34.47.47,0,0,1,.29-.55c4.3-1.48,3.36-7,2.26-13.48-1.14-6.7-2.44-14.3,2.3-18.74,3.22-3,6.43-4.25,9.53-3.66,5.66,1.08,8.87,7.77,9,8v0c.14.35,3.36,8.68-1.2,11.2-3.42,1.9-7,.71-8.49,0,0,1.23-.21,3.83-1.77,8.59-2.39,7.28-11.05,8.81-11.42,8.88Zm12.43-36c-2.4,0-4.88,1.19-7.4,3.55-4.38,4.11-3.12,11.45-2,17.93.88,5.18,1.73,10.14-.43,12.85,2.68-1,6.63-3.17,8.05-7.49,2.23-6.78,1.67-9,1.66-9a.46.46,0,0,1,.68-.52s4.38,2.56,8.35.36c3.78-2.09.94-9.67.79-10s-3.25-6.56-8.34-7.53A7.51,7.51,0,0,0,286.37,79.45Z" fill="#231f20"></path><path d="M287.8,95.56A3,3,0,0,0,290,98c1.58.36,3.71-.52,5.07-1.74a11.65,11.65,0,0,0,2.77-4.13c1.15-2.53,4.93-12.13-1.9-9.32C290,85.24,286.85,91.59,287.8,95.56Z" fill="#231f20"></path><path d="M290.76,98.52a3.57,3.57,0,0,1-.87-.1,3.36,3.36,0,0,1-2.52-2.76h0c-1-4.22,2.36-10.79,8.38-13.27,1.81-.74,3.12-.72,3.88.08,1.92,2-.59,8-1.41,9.83a11.93,11.93,0,0,1-2.88,4.28A7.52,7.52,0,0,1,290.76,98.52ZM298,82.73a5.43,5.43,0,0,0-1.92.48c-5.63,2.31-8.79,8.37-7.86,12.24h0a2.51,2.51,0,0,0,1.85,2.11c1.49.34,3.48-.57,4.68-1.64a11.39,11.39,0,0,0,2.66-4c1.56-3.44,2.72-7.69,1.58-8.86A1.32,1.32,0,0,0,298,82.73Z" fill="#231f20"></path><path d="M299.9,81.57c-5.5,2.79-10.29,6.53-10.78,14.64-.52,8.5-1,18.94,6,24.34a23,23,0,0,0,24.23,2,23.54,23.54,0,0,0,12.18-21.12C331,83.5,312.79,75.05,299.9,81.57Z" fill="#fff"></path><path d="M308.92,125.53a23.13,23.13,0,0,1-14.06-4.62c-7.35-5.68-6.68-16.69-6.2-24.73.53-8.57,5.87-12.4,11-15a22.31,22.31,0,0,1,21.24,1A22.72,22.72,0,0,1,332,101.42,23.93,23.93,0,0,1,319.58,123,22.91,22.91,0,0,1,308.92,125.53Zm-9-44,.21.41c-5.18,2.62-10,6.16-10.53,14.26-.48,7.83-1.13,18.56,5.84,23.94a22.61,22.61,0,0,0,23.73,2,23,23,0,0,0,11.94-20.7,21.83,21.83,0,0,0-10.63-18.52,21.37,21.37,0,0,0-20.35-1Z" fill="#231f20"></path><path d="M244.83,135.42a48.1,48.1,0,0,0-3.74-15.89c-.32-.76-1-1.65-1.77-1.27q.63,3.48,1.27,7a41.43,41.43,0,0,1-11-10.68,3,3,0,0,0-1-1.07,1,1,0,0,0-1.31.36,1.43,1.43,0,0,0,.24,1.18,41.68,41.68,0,0,0,4.41,6.44c-2.14-3.15-4.4-6.42-7.74-8.26a19.41,19.41,0,0,0,4,10l-5.34-5.94c-.48-.54-1.29-1.12-1.86-.66s-.19,1.33.21,1.92l3.7,5.54q-2.82-2.47-5.87-4.7c.35,3.37,2.93,6.08,5.68,8.06s5.84,3.58,8.09,6.11a26.82,26.82,0,0,1,3.44,5.39" fill="#fff"></path><path d="M236.15,139.39a.45.45,0,0,1-.4-.25,27.22,27.22,0,0,0-3.38-5.3,26.94,26.94,0,0,0-5.53-4.35c-.82-.54-1.67-1.1-2.49-1.69-3.58-2.59-5.56-5.41-5.87-8.38a.45.45,0,0,1,.23-.44.47.47,0,0,1,.5,0q1.74,1.27,3.43,2.64l-1.91-2.85c-.72-1.07-.76-2-.11-2.54s1.61-.26,2.48.72l2.23,2.47a19.84,19.84,0,0,1-1.64-6.2.45.45,0,0,1,.2-.43.47.47,0,0,1,.47,0,14.53,14.53,0,0,1,2.4,1.68,1.29,1.29,0,0,1,.05-.82,1.23,1.23,0,0,1,.69-.65,1.64,1.64,0,0,1,1.23.06,3.24,3.24,0,0,1,1.21,1.2,41.35,41.35,0,0,0,10,10q-.54-2.94-1.07-5.89a.46.46,0,0,1,.24-.48,1.18,1.18,0,0,1,1-.07,2.78,2.78,0,0,1,1.41,1.56,48.57,48.57,0,0,1,3.78,16,.47.47,0,0,1-.43.49.46.46,0,0,1-.48-.43,47.51,47.51,0,0,0-3.71-15.74,2,2,0,0,0-.81-1c.39,2.15.78,4.31,1.18,6.46a.45.45,0,0,1-.2.46.42.42,0,0,1-.5,0,41.44,41.44,0,0,1-11.13-10.8,2.64,2.64,0,0,0-.87-.91.65.65,0,0,0-.51,0,.28.28,0,0,0-.18.15c-.08.19.08.51.22.78.4.72.83,1.44,1.28,2.14,1.15,1.38,2.16,2.86,3.11,4.26a.46.46,0,0,1-.11.62.44.44,0,0,1-.62-.07,41.9,41.9,0,0,1-3.12-4.26,16.87,16.87,0,0,0-3.7-3.41,19.08,19.08,0,0,0,3.75,8.86.46.46,0,0,1-.7.59l-5.34-5.94c-.33-.38-.94-.86-1.23-.62s0,.83.3,1.32l3.7,5.53a.46.46,0,0,1-.07.6.47.47,0,0,1-.61,0c-1.58-1.39-3.23-2.72-4.92-4,.62,2.31,2.39,4.53,5.3,6.63.79.58,1.64,1.13,2.46,1.67a27.41,27.41,0,0,1,5.7,4.51,27.29,27.29,0,0,1,3.5,5.47.46.46,0,0,1-.4.68Z" fill="#231f20"></path><path d="M279.74,134.93c-3.64,3.39-11.77,16.19-19.17,29.61L245.24,132.4l-12.46,3.71s11.27,59.44,22.39,61.91,26.27-24.08,26.27-24.08l17-46.66S285.18,129.83,279.74,134.93Z" fill="#1ca7ec"></path><path d="M322.41,203.47c.59,6.71,1.17,12.43,1.54,15.92l-1.35-1.94H281.86c-1-9.2-2.66-25.41-3.07-39.22-.25-8-.09-15.13.82-19.69,2.19-11,10.52-18.82,15.74-22.8a43,43,0,0,1,3.69-2.56l.61-.37h.05a11.59,11.59,0,0,1,1.81-1.66c5.37-4,11.95-1.75,16.44.13l.57.25c.84.37,1.6.7,2.25,1l.87.32c3.94,1.28,4.06,4.89,0,17.83-1.7,5.42-1.51,19-.7,32.92C321.33,190.4,321.88,197.35,322.41,203.47Z" fill="#fff"></path><path d="M300.21,130.82a18.17,18.17,0,0,1-.55,2h0c-.2.61-.46,1.28-.76,2-.12.28-.24.57-.38.86-2.27,10.42-4.37,34.22-5,42.43-.19,2.63-.64,7-1.17,12.66-.11,1.1-.22,2.27-.32,3.47a.53.53,0,0,0,0,.12q-.18,1.89-.36,3.93c0,.07,0,.13,0,.2-.09,1-.18,2-.26,3,0,0,0,0,0,0-.08.87-.16,1.76-.23,2.67-.34,4.11-.67,8.54-1,13.25H271.54c.78-7.65,1.55-15.44,2.28-22.9.37-3.67.72-7.26,1.06-10.72,1.66-16.75,3-30.26,3.8-34.09.31-1.53.65-3,1-4.27h0c2.88-9.87,7.83-14.42,12.15-16.5h0c.34-.17.67-.31,1-.45a17.13,17.13,0,0,1,5.38-1.2h.14c.49,0,.88,0,1.17,0h.09a3.37,3.37,0,0,1,.5,0,2.67,2.67,0,0,1,.26,1.27A8.38,8.38,0,0,1,300.21,130.82Z" fill="#1ca7ec"></path><path d="M300.05,122.3,298.86,135s.66,7.2,8.57,5.71a16,16,0,0,0,11-8.19l1-22a40,40,0,0,1-.23-11.88c-9.36-1-16.12-8.69-16.12-8.69s-3.64,4.56-5.18,6a19.54,19.54,0,0,0-3.23,3.57c-1.52,2.33-1.73,5.38-1.91,8.08a54.34,54.34,0,0,0,.12,9.63C293.68,123.23,300.05,122.3,300.05,122.3Z" fill="#fff"></path><path d="M305.39,141.35a6.84,6.84,0,0,1-4.24-1.3,7.71,7.71,0,0,1-2.74-5l1.14-12.22a7.52,7.52,0,0,1-4.81-1.33,6,6,0,0,1-2.22-4.27,53,53,0,0,1-.12-9.72c.17-2.6.38-5.85,2-8.3a19.66,19.66,0,0,1,3.3-3.65c1.49-1.37,5.1-5.87,5.14-5.91a.46.46,0,0,1,.34-.18.52.52,0,0,1,.36.16c.06.08,6.75,7.6,15.81,8.54a.45.45,0,0,1,.41.5,36.7,36.7,0,0,0,.11,10.75,5.68,5.68,0,0,1,.13,1.11h0s0,.37-1.05,22a.61.61,0,0,1-.05.18,16.3,16.3,0,0,1-11.37,8.44A11.44,11.44,0,0,1,305.39,141.35ZM299.32,135a6.1,6.1,0,0,0,8,5.22A15.68,15.68,0,0,0,318,132.38c.07-1.56,1-21.79,1.05-21.93a7.32,7.32,0,0,0-.12-.91A36.9,36.9,0,0,1,318.78,99c-8.07-1-14.06-6.79-15.58-8.39-.95,1.16-3.61,4.42-4.9,5.6a18.79,18.79,0,0,0-3.16,3.48c-1.46,2.25-1.66,5.23-1.83,7.86a52.06,52.06,0,0,0,.11,9.55,5.17,5.17,0,0,0,1.88,3.66,7,7,0,0,0,4.69,1.1.47.47,0,0,1,.38.12.49.49,0,0,1,.14.38L299.32,135Z" fill="#231f20"></path><path d="M299.58,128.54s5.13.67,8.74-2.46,3.42-6.64,3.42-6.64-5.89,3.24-11.69,2.86Z" fill="#231f20"></path><path d="M300.83,129a10.54,10.54,0,0,1-1.31-.07.43.43,0,0,1-.38-.47l.48-6.23a.43.43,0,0,1,.46-.41c5.61.37,11.39-2.77,11.45-2.81a.44.44,0,0,1,.65.37c0,.15.16,3.75-3.57,7A12,12,0,0,1,300.83,129Zm-.78-.9c1.26.07,5.14.07,8-2.4a9,9,0,0,0,3.22-5.56,24.67,24.67,0,0,1-10.79,2.59Z" fill="#231f20"></path><path d="M306.14,104.48s-4.61,5.74-3.73,6.88,3.65.68,3.65.68" fill="#fff"></path><path d="M304.81,112.58a3.49,3.49,0,0,1-2.76-1c-1-1.28,2.29-5.62,3.75-7.42a.43.43,0,0,1,.62-.07.44.44,0,0,1,.07.62c-2.29,2.84-4.06,5.86-3.73,6.33.58.76,2.57.62,3.23.51a.45.45,0,0,1,.14.88A8.88,8.88,0,0,1,304.81,112.58Z" fill="#231f20"></path><ellipse cx="297.91" cy="102.7" rx="1.32" ry="0.7" transform="matrix(0.13, -0.99, 0.99, 0.13, 158.35, 385.22)" fill="#231f20"></ellipse><ellipse cx="309.49" cy="102.72" rx="1.32" ry="0.7" transform="translate(168.45 396.73) rotate(-82.73)" fill="#231f20"></ellipse><path d="M302.43,115l3.31-.55s.25,4.8-1.61,5S302.43,115,302.43,115Z" fill="#fff"></path><path d="M304,119.93a1.36,1.36,0,0,1-.92-.37c-1.17-1-1.09-4.25-1.08-4.61a.45.45,0,0,1,.37-.42l3.32-.55a.45.45,0,0,1,.35.09.42.42,0,0,1,.16.33c0,.53.21,5.21-2,5.51Zm-1.12-4.59c0,1.23.2,3,.79,3.57a.5.5,0,0,0,.42.13c1-.14,1.25-2.57,1.24-4.1Z" fill="#231f20"></path><path d="M315.86,103.6c1-2.15,3.94-2.73,6.06-2.11a3.66,3.66,0,0,1,2.72,3,6.89,6.89,0,0,1-.21,2.63,13.77,13.77,0,0,1-2,4.46,4.86,4.86,0,0,1-1.73,1.7,2.48,2.48,0,0,1-2.8-.43" fill="#fff"></path><path d="M319.66,114a3.24,3.24,0,0,1-2-.79.46.46,0,0,1,.58-.71,2.08,2.08,0,0,0,2.3.38,4.45,4.45,0,0,0,1.56-1.55A13.23,13.23,0,0,0,324,107a6.21,6.21,0,0,0,.19-2.46,3.19,3.19,0,0,0-2.39-2.64c-2-.58-4.59,0-5.52,1.87a.46.46,0,1,1-.82-.4c1.13-2.34,4.24-3,6.6-2.35a4.09,4.09,0,0,1,3,3.39,7.24,7.24,0,0,1-.22,2.81,14,14,0,0,1-2.05,4.61,5.36,5.36,0,0,1-1.9,1.85A2.76,2.76,0,0,1,319.66,114Z" fill="#231f20"></path><path d="M341.22,244.33l-15.56-22.46L324,219.39l-1.35-1.94h-18c.58-4.87,1.22-9.79,1.89-14.68.36-2.65.73-5.3,1.1-7.92q.48-3.36,1-6.65c.14-.94.27-1.87.41-2.8,3.36-22.39,6.84-42.16,8.49-51.17.09-.57.19-1.09.27-1.57s.19-1,.25-1.39c.27-1.44.42-2.22.42-2.22l.27,0a82.35,82.35,0,0,1,8.46,2.47c4.2,1.5,8.48,3.56,9.23,5.94,2.63,8.29,2.22,43.66,2.69,64.74.1,4.9.26,9,.52,11.87.18,1.95.46,4.14.76,7.75C340.66,226.37,341,233.09,341.22,244.33Z" fill="#1ca7ec"></path><path d="M315.1,190.28c-3.86-.67-7.39-2.46-11-4-1.44-.61-2.93-1.16-4.42-1.63-1.77-.54-3.45-1.59-5.35-1.64-1.16,0-.86,1.62-.43,2.23a6.39,6.39,0,0,0,1.61,1.36c1.1.75,3.43,2.13,3.83,3.46a25.33,25.33,0,0,1-4.44.35q-2.38.27-4.74.72c-1.53.3-3.06.67-4.56,1.09a24.08,24.08,0,0,0-4,1.08c-.3.15-.63.38-.65.72-.07,1.19,2.61,1.05,3.28,1l12.36-1.25a77.52,77.52,0,0,0-12.81,2.31,1.73,1.73,0,0,0-1,.59c-1,1.58,3.37,1.66,3.87,1.68q3.42.07,6.84-.18l-5.56.92c-1.24.21-2.49.42-3.71.73a3.74,3.74,0,0,0-1.84.89.35.35,0,0,0-.12.24c0,.13.14.21.25.26a7.89,7.89,0,0,0,3.3.59,41.13,41.13,0,0,0,6.92-.46l-6.86.73a2.53,2.53,0,0,0-1.67.61.93.93,0,0,0,.41,1.07,2.63,2.63,0,0,0,1.17.36,62,62,0,0,0,7.59,0,63.13,63.13,0,0,0,8.25-.52A49,49,0,0,0,317.2,199" fill="#fff"></path><path d="M288.48,204.72a21.16,21.16,0,0,1-2.74-.15,3,3,0,0,1-1.37-.43,1.4,1.4,0,0,1-.58-1.62.38.38,0,0,1,.09-.13,1.48,1.48,0,0,1,.26-.24,6.47,6.47,0,0,1-1.8-.51.76.76,0,0,1-.51-.67.8.8,0,0,1,.24-.57,4.17,4.17,0,0,1,2.06-1c.91-.24,1.84-.41,2.76-.57h-.23c-2.5-.06-4-.47-4.36-1.22a1.1,1.1,0,0,1,.12-1.16,2.09,2.09,0,0,1,1.3-.78l.65-.17h0c-.43,0-2.6.22-3.44-.58a1.11,1.11,0,0,1-.35-.89,1.36,1.36,0,0,1,.91-1.1,11.24,11.24,0,0,1,2.67-.79c.47-.09.94-.19,1.38-.31,1.52-.43,3.07-.8,4.61-1.1s3.18-.56,4.77-.73c.57-.06,1.14-.07,1.7-.08a13.38,13.38,0,0,0,2.13-.14,11.58,11.58,0,0,0-2.93-2.43l-.66-.45a5.75,5.75,0,0,1-1.56-1.36,2.55,2.55,0,0,1-.3-2.34,1.19,1.19,0,0,1,1.11-.61,10.56,10.56,0,0,1,3.78,1c.58.24,1.13.46,1.69.64a46.91,46.91,0,0,1,4.47,1.64l2,.87a39.43,39.43,0,0,0,8.88,3.08.45.45,0,0,1,.37.52.48.48,0,0,1-.53.38,39.06,39.06,0,0,1-9.08-3.15l-2-.85a45.21,45.21,0,0,0-4.38-1.62c-.6-.19-1.2-.43-1.77-.67a10,10,0,0,0-3.45-1c-.22,0-.25.08-.28.13a1.74,1.74,0,0,0,.23,1.38,5.3,5.3,0,0,0,1.33,1.13l.66.45c1.32.87,3.12,2.07,3.51,3.37a.47.47,0,0,1,0,.35.44.44,0,0,1-.28.22,10.94,10.94,0,0,1-2.89.31c-.57,0-1.1,0-1.62.07-1.57.17-3.15.41-4.7.71s-3,.66-4.53,1.08c-.46.14-.95.24-1.44.34a10.63,10.63,0,0,0-2.46.71c-.29.14-.39.27-.4.34a.2.2,0,0,0,.08.17,4.52,4.52,0,0,0,2.71.33l12.32-1.24h0a.46.46,0,0,1,.5.4.47.47,0,0,1-.41.51h0A76.9,76.9,0,0,0,284,196.53a1.41,1.41,0,0,0-.78.4c-.05.08-.1.18-.07.23.17.32,1.35.69,3.55.74s4.56,0,6.81-.17a.44.44,0,0,1,.49.4.45.45,0,0,1-.38.5l-5.55.92c-1.23.21-2.48.41-3.68.72a4,4,0,0,0-1.45.61,8.07,8.07,0,0,0,2.94.47c1.08,0,2.16,0,3.24-.07l3.62-.38a.45.45,0,0,1,.5.39.46.46,0,0,1-.38.51c-1.21.19-2.44.32-3.66.39l-3.22.35a2.43,2.43,0,0,0-1.32.39.58.58,0,0,0,.27.46,2.17,2.17,0,0,0,1,.27,30.85,30.85,0,0,0,5,.09c.84,0,1.69-.06,2.53-.06h.19a59.74,59.74,0,0,0,8-.52A48.37,48.37,0,0,0,317,198.56a.44.44,0,0,1,.61.2.46.46,0,0,1-.2.61,49.37,49.37,0,0,1-15.7,4.71,59.67,59.67,0,0,1-8.32.52c-.87,0-1.67,0-2.5.06S289.3,204.72,288.48,204.72Z" fill="#231f20"></path><path d="M336.32,137.5s32.27,58.71,20.7,62.66c-4.74,1.62-47.15,4.11-47.15,4.11L305.37,186l31.8-4.92Z" fill="#1ca7ec"></path><path d="M297.93,110.14c-.22,0-.45,0-.67,0a7.47,7.47,0,1,1,6.37-12.24,7.47,7.47,0,0,1-5.7,12.27Zm0-14a6.55,6.55,0,1,0,6.53,7.12h0a6.55,6.55,0,0,0-5.95-7.09Z" fill="#231f20"></path><path d="M312.46,110.21l-.67,0a7.47,7.47,0,1,1,8.09-6.79h0a7.46,7.46,0,0,1-7.42,6.82Zm0-14a6.55,6.55,0,1,0,4.22,11.57,6.48,6.48,0,0,0,2.31-4.45h0a6.49,6.49,0,0,0-1.5-4.78A6.57,6.57,0,0,0,313,96.21Z" fill="#231f20"></path><path d="M305.37,186.41a.47.47,0,0,1-.45-.39.45.45,0,0,1,.38-.52l31.31-4.84-7.54-32.55a.46.46,0,1,1,.89-.21l7.66,33a.51.51,0,0,1-.07.36.46.46,0,0,1-.31.19l-31.8,4.92Z" fill="#231f20"></path><path d="M273.82,195h-.05a.46.46,0,0,1-.4-.51c.06-.48,5.85-48.41,5.91-49.11l.45,0,.1-.46c.42.09.42.09-.55,8.18l-5,41.46A.45.45,0,0,1,273.82,195Z" fill="#231f20"></path><path d="M266.67,176.05a.46.46,0,0,1-.41-.25l-19-38.09a.47.47,0,0,1,.2-.62.47.47,0,0,1,.62.21l19,38.09a.47.47,0,0,1-.2.62A.52.52,0,0,1,266.67,176.05Z" fill="#231f20"></path><path d="M332.7,100.1a.46.46,0,0,1-.44-.35.45.45,0,0,1,.32-.55s1.61-.47,4.5-3.32a.47.47,0,0,1,.65,0,.45.45,0,0,1,0,.64c-3.12,3.07-4.84,3.53-4.91,3.55Z" fill="#231f20"></path><path d="M221.06,210.72,226,197.31l-11.68,10.84A56.08,56.08,0,0,0,198.73,206c-19.6,0-35.49,9.44-35.49,21.09s15.89,21.1,35.49,21.1,35.5-9.44,35.5-21.1C234.23,220.5,229.09,214.59,221.06,210.72Z" fill="#fff"></path><path d="M198.73,248.72c-19.85,0-36-9.69-36-21.6s16.14-21.59,36-21.59a56.56,56.56,0,0,1,15.41,2.06l11.47-10.65a.5.5,0,0,1,.62-.05.5.5,0,0,1,.19.59l-4.74,13c8.3,4.12,13,10.17,13,16.65C234.73,239,218.58,248.72,198.73,248.72Zm0-42.19c-19.29,0-35,9.24-35,20.59s15.7,20.6,35,20.6,35-9.24,35-20.6c0-6.19-4.7-12-12.89-16a.5.5,0,0,1-.25-.62l4.18-11.46-10.16,9.43a.5.5,0,0,1-.48.11A55.2,55.2,0,0,0,198.73,206.53Z" fill="#d1d3d4"></path><path d="M176,84.08l-4.21,11.56,10.06-9.34a48.35,48.35,0,0,0,13.38,1.83C212.11,88.13,225.8,80,225.8,70s-13.69-18.17-30.58-18.17S164.64,59.92,164.64,70C164.64,75.66,169.07,80.75,176,84.08Z" fill="#fff"></path><path d="M171.78,96.14a.54.54,0,0,1-.28-.08.5.5,0,0,1-.19-.59l4.06-11.14c-7.14-3.55-11.23-8.77-11.23-14.38,0-10.29,13.94-18.67,31.08-18.67S226.3,59.66,226.3,70s-13.94,18.68-31.08,18.68A49,49,0,0,1,182,86.86L172.12,96A.5.5,0,0,1,171.78,96.14Zm23.44-43.86c-16.58,0-30.08,7.93-30.08,17.67,0,5.31,4,10.3,11.07,13.68a.5.5,0,0,1,.25.62L173,93.86l8.54-7.93a.5.5,0,0,1,.48-.11,47.59,47.59,0,0,0,13.24,1.81c16.59,0,30.08-7.93,30.08-17.68S211.81,52.28,195.22,52.28Z" fill="#d1d3d4"></path><path d="M222.27,219.89H175.19a.5.5,0,0,1,0-1h47.08a.5.5,0,0,1,0,1Z" fill="#d1d3d4"></path><path d="M222.27,228H175.19a.51.51,0,0,1-.5-.5.5.5,0,0,1,.5-.5h47.08a.5.5,0,0,1,.5.5A.5.5,0,0,1,222.27,228Z" fill="#d1d3d4"></path><path d="M208,236H175.19a.51.51,0,0,1-.5-.5.5.5,0,0,1,.5-.5H208a.5.5,0,0,1,.5.5A.5.5,0,0,1,208,236Z" fill="#d1d3d4"></path><path d="M218.19,65.34H177.63a.5.5,0,0,1-.5-.5.5.5,0,0,1,.5-.5h40.56a.5.5,0,0,1,.5.5A.51.51,0,0,1,218.19,65.34Z" fill="#d1d3d4"></path><path d="M205.79,74.21H177.63a.5.5,0,0,1,0-1h28.16a.5.5,0,0,1,0,1Z" fill="#d1d3d4"></path></g></svg>