<svg xmlns="http://www.w3.org/2000/svg" viewBox="0 0 400 300" width="406" height="306" class="illustration styles_illustrationTablet__1DWOa"><g id="_77_marketing" data-name="#77_marketing"><path d="M348,254.8H60.18a.5.5,0,0,1,0-1H348a.5.5,0,0,1,0,1Z" fill="#d1d3d4"></path><rect x="48.74" y="48.35" width="302.43" height="166.31" rx="12.57" fill="#fff"></rect><path d="M338.6,215.18H61.31a13.1,13.1,0,0,1-13.09-13.09V60.92A13.1,13.1,0,0,1,61.31,47.83H338.6a13.1,13.1,0,0,1,13.09,13.09V202.09A13.1,13.1,0,0,1,338.6,215.18ZM61.31,48.86A12.06,12.06,0,0,0,49.26,60.92V202.09a12.06,12.06,0,0,0,12.05,12H338.6a12.06,12.06,0,0,0,12-12V60.92a12.06,12.06,0,0,0-12-12.06Z" fill="#231f20"></path><rect x="48.74" y="67.27" width="302.43" height="128.46" fill="#fff"></rect><path d="M351.17,196.25H48.74a.51.51,0,0,1-.52-.51V67.27a.51.51,0,0,1,.52-.51H351.17a.51.51,0,0,1,.52.51V195.74A.51.51,0,0,1,351.17,196.25Zm-301.91-1H350.65V67.79H49.26Z" fill="#231f20"></path><polygon points="252.83 251.1 147.08 251.1 159.04 214.66 240.87 214.66 252.83 251.1" fill="#fff"></polygon><path d="M252.83,251.62H147.08a.49.49,0,0,1-.41-.22.5.5,0,0,1-.08-.46l12-36.44a.52.52,0,0,1,.49-.36h81.83a.52.52,0,0,1,.49.36l12,36.44a.5.5,0,0,1-.08.46A.49.49,0,0,1,252.83,251.62Zm-105-1H252.11l-11.61-35.4H159.41Z" fill="#231f20"></path><rect x="133.22" y="251.1" width="133.47" height="10.26" rx="5.13" fill="#fff"></rect><path d="M261.56,261.88H138.35a5.65,5.65,0,0,1,0-11.3H261.56a5.65,5.65,0,0,1,0,11.3ZM138.35,251.62a4.61,4.61,0,1,0,0,9.22H261.56a4.61,4.61,0,0,0,0-9.22Z" fill="#231f20"></path><path d="M150.62,241.44c1.71-.9,93.25-17.63,93.25-17.63l-3-9.15H159Z" fill="#231f20"></path><path d="M150.64,241.93a.52.52,0,0,1-.34-.12.51.51,0,0,1-.15-.52l8.41-26.78a.5.5,0,0,1,.48-.35h81.83a.51.51,0,0,1,.48.34l3,9.15a.49.49,0,0,1,0,.41.5.5,0,0,1-.34.24c-31.39,5.74-91.26,16.8-93.12,17.59A.45.45,0,0,1,150.64,241.93Zm8.76-26.77-8,25.57c9.36-2.21,80.81-15.29,91.85-17.31l-2.71-8.26Z" fill="#231f20"></path><path d="M243.82,92.45s-59.65-14.62-78.18,0-37.32,30.9-37.32,30.9l14.8,28.86L166,133.38l-10,49.88,78.54,1.14,4.43-45.3s8.1,26.91,16.84,28,23.8-10.74,15.56-30S243.82,92.45,243.82,92.45Z" fill="#1ca7ec"></path><path d="M290.7,124.7a9.44,9.44,0,0,1,1,5,13.68,13.68,0,0,1-1.49,4.65c-3.84,8.41-7.69,16.81-12,25-2.54,4.83-6.87,10.38-12.82,10.92-5.14.48-13.81-4.37-15-9.6-1.58-7,7.61-15.29,11.48-20.38,5.2-6.83,10.37-14.19,16.37-20.35,3.29-3.37,4.4-3.69,8.07-.5A17.77,17.77,0,0,1,290.7,124.7Z" fill="#fff"></path><path d="M264.57,170.83c-6.28,0-13.62-5.58-14.62-10-1.31-5.8,4.2-12.16,8.62-17.27,1.11-1.28,2.15-2.49,2.95-3.54,1-1.35,2.06-2.73,3.1-4.11a163.2,163.2,0,0,1,13.31-16.29c3.44-3.53,4.83-4,8.78-.53a18,18,0,0,1,4.45,5.42,10.06,10.06,0,0,1,1.1,5.28,14.55,14.55,0,0,1-1.54,4.83c-3.78,8.28-7.69,16.83-12,25-2.06,3.92-6.52,10.58-13.24,11.2A9.1,9.1,0,0,1,264.57,170.83Zm17.84-53.08c-1.1,0-2.1.87-3.74,2.55a162,162,0,0,0-13.23,16.19l-3.1,4.12c-.82,1.07-1.87,2.29-3,3.58-4.27,4.94-9.59,11.09-8.4,16.37,1.1,4.88,9.56,9.64,14.44,9.2,6.23-.57,10.45-6.92,12.42-10.65,4.29-8.16,8.19-16.7,12-25a13.42,13.42,0,0,0,1.45-4.49,9,9,0,0,0-1-4.74h0a16.77,16.77,0,0,0-4.2-5.1C284.41,118.42,283.37,117.75,282.41,117.75Z" fill="#231f20"></path><path d="M262.48,109.58,278,139.66c1.39,2.68,4.3,3.74,6.7,2.42L292,138c2.57-1.41,3.61-5,2.31-8l-10-23,5.37-6.66S264.52,108.09,262.48,109.58Z" fill="#fff"></path><path d="M282.49,143.16a5.36,5.36,0,0,1-1.48-.22,6,6,0,0,1-3.5-3.05L262,109.82a.53.53,0,0,1,.16-.66c2-1.49,24.81-8.46,27.4-9.25a.49.49,0,0,1,.57.2.51.51,0,0,1,0,.61L285,107.14l9.88,22.71c1.4,3.22.26,7.09-2.54,8.63l-7.37,4.05A5,5,0,0,1,282.49,143.16Zm-19.32-33.38,15.26,29.64a4.91,4.91,0,0,0,2.88,2.53,4,4,0,0,0,3.12-.33l7.37-4c2.34-1.29,3.27-4.57,2.08-7.32l-10-23a.53.53,0,0,1,.07-.53l4.32-5.35C280.84,103.67,266,108.34,263.17,109.78Z" fill="#231f20"></path><path d="M251.8,82l-7.07,2.25s-3,19.5,10.33,26.51l6.83-2.41Z" fill="#231f20"></path><path d="M255.06,111.29a.46.46,0,0,1-.23-.06c-13.45-7.09-10.62-26.82-10.59-27a.5.5,0,0,1,.34-.4l7.07-2.26a.49.49,0,0,1,.61.3l10.1,26.36a.49.49,0,0,1-.3.64l-6.83,2.41A.47.47,0,0,1,255.06,111.29Zm-9.88-26.63c-.29,2.47-1.79,19.22,9.93,25.59l6.14-2.17L251.5,82.64Z" fill="#231f20"></path><path d="M330.12,40.34s-10.25,14.17-31.23,23.59c-18.18,8.16-48.55,16.15-48.55,16.15s-6.74,19.56,9.77,31c0,0,28.08-7.59,40.9-9.78,16.49-2.82,49.35,5,49.35,5Z" fill="#fff"></path><path d="M260.11,111.61a.53.53,0,0,1-.29-.1c-16.65-11.53-10-31.4-10-31.6a.52.52,0,0,1,.36-.33c.3-.08,30.54-8.07,48.47-16.12,20.61-9.26,30.92-23.28,31-23.42a.53.53,0,0,1,.51-.21.52.52,0,0,1,.41.36l20.23,65.91a.53.53,0,0,1-.11.51.55.55,0,0,1-.5.15c-.33-.08-32.94-7.71-49.14-4.94-12.65,2.16-40.57,9.69-40.85,9.77ZM250.75,80.5c-.7,2.32-5.29,19.63,9.46,30,2.74-.74,28.63-7.66,40.72-9.73,14.89-2.55,43.33,3.55,48.67,4.75L329.92,41.44a86,86,0,0,1-30.82,23C282,72.07,253.84,79.68,250.75,80.5Z" fill="#231f20"></path><path d="M352.28,106c-5.71,1.67-13.13-5.55-18.76-17.22a81.94,81.94,0,0,1-4.7-12.37,79.34,79.34,0,0,1-2.65-12.62c-1.64-13,.71-23.25,6.47-24.94,7.53-2.2,18,11,23.45,29.58S359.81,103.82,352.28,106Z" fill="#231f20"></path><path d="M350.61,106.76c-5.52,0-12.19-6.66-17.53-17.73a82,82,0,0,1-4.74-12.45,80.66,80.66,0,0,1-2.67-12.7c-1.73-13.76.95-23.76,6.83-25.48,7.92-2.32,18.49,10.84,24.07,29.92,5.5,18.77,3.64,35.9-4.15,38.19h0A6.43,6.43,0,0,1,350.61,106.76Zm1.67-.73h0Zm-17.91-66.9a5.61,5.61,0,0,0-1.59.23c-5.3,1.55-7.76,11.35-6.12,24.39A78.54,78.54,0,0,0,329.3,76.3,81,81,0,0,0,334,88.6c5.63,11.67,12.94,18.48,18.17,17h0c7.26-2.13,8.82-18.7,3.47-36.95C350.66,51.66,341.47,39.13,334.37,39.13Z" fill="#231f20"></path><path d="M250.34,80.08s-6.74,19.56,9.77,31c0,0,18.9-5.11,32.76-8.15-2.83-2.88-6.3-8.09-8-17.2a56,56,0,0,1-1-15.91C267.54,75.55,250.34,80.08,250.34,80.08Z" fill="#fff"></path><path d="M260.11,111.61a.53.53,0,0,1-.29-.1c-16.65-11.53-10-31.4-10-31.6a.52.52,0,0,1,.36-.33c.17,0,17.37-4.59,33.43-10.23a.51.51,0,0,1,.49.08.52.52,0,0,1,.19.45,55.73,55.73,0,0,0,1,15.76c1.75,9.14,5.26,14.26,7.9,16.94a.53.53,0,0,1,.13.51.5.5,0,0,1-.38.35c-13.7,3-32.55,8.1-32.74,8.15ZM250.75,80.5c-.7,2.32-5.29,19.63,9.46,30,2.17-.58,18.87-5,31.67-7.9-2.65-2.93-5.89-8.11-7.56-16.8a58.44,58.44,0,0,1-1.1-15.25C268.46,75.73,253,79.91,250.75,80.5Z" fill="#231f20"></path><path d="M343.54,84.94l-10,3.87a81.94,81.94,0,0,1-4.7-12.37,79.34,79.34,0,0,1-2.65-12.62L337,62.33Z" fill="#fff"></path><path d="M333.52,89.33a.52.52,0,0,1-.46-.29,83,83,0,0,1-4.74-12.45,80.77,80.77,0,0,1-2.67-12.71.52.52,0,0,1,.45-.57l10.81-1.49a.51.51,0,0,1,.57.37L344,84.79a.53.53,0,0,1-.31.63l-10,3.87A.41.41,0,0,1,333.52,89.33Zm-6.78-25.07a80.34,80.34,0,0,0,2.57,12,81.59,81.59,0,0,0,4.47,11.86l9.13-3.53-6.3-21.73Z" fill="#231f20"></path><ellipse cx="340.26" cy="73.63" rx="3.45" ry="11.77" transform="translate(-7.03 97.82) rotate(-16.19)" fill="#fff"></ellipse><path d="M343.25,85.5c-1,0-2.22-1-3.44-2.92a31.44,31.44,0,0,1-3.36-7.84c-1.66-5.72-2.09-12.19.39-12.9,1.14-.34,2.48.65,3.88,2.84a31.53,31.53,0,0,1,3.35,7.85c1.66,5.72,2.09,12.18-.38,12.9A1.68,1.68,0,0,1,343.25,85.5Zm-6-22.69a.41.41,0,0,0-.16,0c-1.17.34-1.62,4.93.33,11.62A30.27,30.27,0,0,0,340.68,82c1.27,2,2.24,2.55,2.72,2.41,1.18-.34,1.62-4.93-.32-11.62h0a30.11,30.11,0,0,0-3.23-7.58C338.7,63.44,337.8,62.81,337.28,62.81Z" fill="#231f20"></path><path d="M282.05,113.59a5.69,5.69,0,0,0-3.26,1.14c-.86.8-1,2.44,0,3a2.56,2.56,0,0,0,1.06.27,15,15,0,0,0,4.59-.26,8.66,8.66,0,0,0-3.29,2.71,1.2,1.2,0,0,0-.3.81c.07.56.76.76,1.31.78a9.37,9.37,0,0,0,4.09-.73,5.81,5.81,0,0,0-2.38,1.12c-1.81,1.67-.16,3,1.44,2.85,2.71-.29,8.13,2.67,8.13,2.67s1.42-2.9,1.31-4.37a22.31,22.31,0,0,0-1.05-4.54c-.83-2.89-1.89-6.2-3.93-8.49-3-3.36-12.55-3.34-12.59,2.46A11.89,11.89,0,0,0,282.05,113.59Z" fill="#fff"></path><path d="M293.45,128.49a.47.47,0,0,1-.25-.07c-.05,0-5.31-2.87-7.83-2.61a2.6,2.6,0,0,1-2.65-1.25,1.87,1.87,0,0,1,.35-2c-.31,0-.61,0-.92,0-1,0-1.72-.52-1.8-1.23a1.62,1.62,0,0,1,.4-1.18,8.87,8.87,0,0,1,1.47-1.59,14.93,14.93,0,0,1-2.41,0,2.93,2.93,0,0,1-1.27-.33,2,2,0,0,1-1-1.52,2.89,2.89,0,0,1,.84-2.33,5.19,5.19,0,0,1,.46-.36,9.4,9.4,0,0,1-1.88-.48.51.51,0,0,1-.33-.49,4.86,4.86,0,0,1,3.48-4.66c3.32-1.26,8-.38,10,1.86s3.19,5.73,4,8.7l.18.62a20.32,20.32,0,0,1,.89,4c.11,1.57-1.21,4.33-1.37,4.64a.51.51,0,0,1-.3.26A.45.45,0,0,1,293.45,128.49Zm-7.75-3.73c2.42,0,6.17,1.81,7.51,2.5a10.37,10.37,0,0,0,1-3.63,18.38,18.38,0,0,0-.85-3.79l-.18-.64c-.82-2.86-1.87-6.09-3.83-8.29-1.72-1.93-5.94-2.69-8.86-1.59a3.93,3.93,0,0,0-2.8,3.35,11.76,11.76,0,0,0,4.29.4.52.52,0,0,1,.09,1,5.22,5.22,0,0,0-3,1,1.79,1.79,0,0,0-.52,1.45.93.93,0,0,0,.44.74,2,2,0,0,0,.85.21,14.72,14.72,0,0,0,4.44-.25.51.51,0,0,1,.32,1,8,8,0,0,0-3.09,2.54c-.06.08-.23.32-.21.45s.39.31.83.33a9.06,9.06,0,0,0,2.64-.28,11.35,11.35,0,0,1,1.27-.44.54.54,0,0,1,.64.32.52.52,0,0,1-.29.65,9.85,9.85,0,0,1-1.29.45,3.22,3.22,0,0,0-.94.58c-.3.28-.78.83-.57,1.3a1.62,1.62,0,0,0,1.6.66A3.15,3.15,0,0,1,285.7,124.76Z" fill="#231f20"></path><polygon points="221.2 106.64 202.41 153.37 196.69 99.78 221.2 106.64" fill="#231f20"></polygon><path d="M202.41,153.87h-.07a.51.51,0,0,1-.43-.44l-5.72-53.6a.5.5,0,0,1,.18-.43.47.47,0,0,1,.45-.1l24.52,6.86a.5.5,0,0,1,.31.26.53.53,0,0,1,0,.41l-18.8,46.73A.5.5,0,0,1,202.41,153.87Zm-5.15-53.42,5.43,50.89L220.53,107Z" fill="#231f20"></path><path d="M201.07,44.07a5.9,5.9,0,0,1,5.92,3,5.49,5.49,0,0,1,3.08-4.64,14,14,0,0,1,5.66-1.33,22.77,22.77,0,0,1,8.11.55c6.79,2,10.95,8.92,13,15.7,1.08,3.61,1.91,8.6-.33,12-2.06,3.13-8,5.27-11.33,6.75-4.82,2.12-10,3.65-15.29,3.29-13.91-.94-21.05-15.2-16.69-27.73,1-2.94,2.89-5.78,5.74-7A6.59,6.59,0,0,1,201.07,44.07Z" fill="#fff"></path><path d="M211.4,79.92c-.52,0-1.05,0-1.57,0A19,19,0,0,1,195,71.28a22.61,22.61,0,0,1-2.26-19.8c1.24-3.57,3.38-6.18,6-7.34a7.45,7.45,0,0,1,2.32-.57h0a6.71,6.71,0,0,1,5.64,2.12,6.43,6.43,0,0,1,3.15-3.7,14.31,14.31,0,0,1,5.86-1.39,23.53,23.53,0,0,1,8.3.57c5.94,1.77,10.79,7.61,13.31,16,1.11,3.71,1.94,8.88-.39,12.4-1.87,2.83-6.6,4.83-10.06,6.29l-1.49.64A34.82,34.82,0,0,1,211.4,79.92ZM201.11,44.57a6.06,6.06,0,0,0-2,.49c-3.21,1.41-4.81,4.83-5.47,6.74a21.58,21.58,0,0,0,2.15,18.93,18,18,0,0,0,14.1,8.14c4.47.31,9.4-.76,15.06-3.24.46-.21,1-.42,1.51-.65,3.33-1.41,7.9-3.34,9.61-5.92,2.11-3.2,1.31-8.06.26-11.57-1.15-3.83-4.67-13-12.64-15.36a22.32,22.32,0,0,0-7.94-.53,13.47,13.47,0,0,0-5.45,1.27,5,5,0,0,0-2.82,4.19.49.49,0,0,1-.39.49.49.49,0,0,1-.56-.27c-1-2.09-3.43-2.87-5.43-2.71Z" fill="#231f20"></path><path d="M220.59,91.91l.61,14.73s-5.93,8.33-15,4.48-9.49-11.34-9.49-11.34l2.92-28.08s7.64-2.58,8.09-18.17a47.54,47.54,0,0,0,24,7.49S233.3,78.26,231,85.4,220.59,91.91,220.59,91.91Z" fill="#fff"></path><path d="M210.92,112.63a12.74,12.74,0,0,1-4.94-1c-9.27-3.93-9.77-11.46-9.79-11.78l2.92-28.15a.5.5,0,0,1,.34-.42c.07,0,7.31-2.72,7.75-17.71a.49.49,0,0,1,.28-.43.49.49,0,0,1,.51,0,47.45,47.45,0,0,0,23.76,7.39.5.5,0,0,1,.48.45c.07.71,1.55,17.43-.81,24.59-2.07,6.3-8.38,6.84-10.31,6.86l.59,14.2a.44.44,0,0,1-.09.31C221.56,107,217.46,112.63,210.92,112.63ZM200.07,72.05l-2.88,27.78c0,.21.51,7.15,9.18,10.83,8.09,3.42,13.51-3.1,14.33-4.17l-.61-14.56a.54.54,0,0,1,.15-.38.52.52,0,0,1,.39-.14c.32,0,7.64.51,9.84-6.16,2.09-6.34,1-21,.8-23.75a49.2,49.2,0,0,1-23.1-7.06C207.52,67.87,201.53,71.39,200.07,72.05Z" fill="#231f20"></path><path d="M203.56,79.11a7.65,7.65,0,0,1-5.8-.83A8.24,8.24,0,0,1,194,71.17a7,7,0,0,1,.52-3,3.65,3.65,0,0,1,2.23-2,5.87,5.87,0,0,1,3.65.59c1.73.68,1.84,1.63,2.92,2.93-.12-.12-.23-.47-.34-.59" fill="#fff"></path><path d="M201.67,79.85a8.16,8.16,0,0,1-4.16-1.14,8.69,8.69,0,0,1-4-7.53,7.37,7.37,0,0,1,.57-3.27,4.17,4.17,0,0,1,2.55-2.32,6.35,6.35,0,0,1,4,.61A4.47,4.47,0,0,1,203,68.27l.19.28a.45.45,0,0,1,.17.11,1.48,1.48,0,0,1,.27.43,1.19,1.19,0,0,0,.08.16l0,0A.5.5,0,0,1,203,70l-.08-.09c-.31-.38-.54-.72-.75-1a3.56,3.56,0,0,0-1.93-1.7,5.41,5.41,0,0,0-3.32-.57A3.15,3.15,0,0,0,195,68.33a6.4,6.4,0,0,0-.48,2.83A7.72,7.72,0,0,0,198,77.85a7.24,7.24,0,0,0,5.42.78.5.5,0,1,1,.25,1A8.1,8.1,0,0,1,201.67,79.85Z" fill="#231f20"></path><path d="M220.91,99.65a10.36,10.36,0,0,1-8.67-4.25c-3.5-4.71-2.62-8-2.62-8s4.56,4.76,11,4.54Z" fill="#231f20"></path><path d="M220.5,100.17a10.87,10.87,0,0,1-8.66-4.47c-3.6-4.85-2.74-8.31-2.7-8.45a.49.49,0,0,1,.35-.36A.52.52,0,0,1,210,87s4.49,4.55,10.59,4.38a.47.47,0,0,1,.52.48l.32,7.74a.5.5,0,0,1-.45.52S220.76,100.17,220.5,100.17ZM210,88.43a11.54,11.54,0,0,0,2.62,6.68,9.89,9.89,0,0,0,7.75,4.06l-.28-6.76A16.17,16.17,0,0,1,210,88.43Z" fill="#231f20"></path><path d="M219.41,68.53s4,8.08,2.67,9.22-4.56-.14-4.56-.14" fill="#fff"></path><path d="M220.44,78.73a9.12,9.12,0,0,1-3.1-.66.5.5,0,1,1,.37-.92c.81.32,3.13,1,4,.22.56-.47-.75-4.5-2.8-8.62a.5.5,0,1,1,.89-.45c1.27,2.54,4,8.58,2.55,9.83A2.94,2.94,0,0,1,220.44,78.73Z" fill="#231f20"></path><ellipse cx="213.47" cy="67.22" rx="1.75" ry="1.24" transform="translate(102.57 261.62) rotate(-77.77)" fill="#231f20"></ellipse><ellipse cx="225.12" cy="68.79" rx="1.24" ry="1.75" transform="translate(-5.06 19.51) rotate(-4.91)" fill="#231f20"></ellipse><path d="M219.87,88.92a5.18,5.18,0,0,1-1-.1,7.05,7.05,0,0,1-4.93-3.75,11.09,11.09,0,0,1-1.19-5h0a.49.49,0,0,1,.17-.38c.22-.19.31-.28,11.59,1a.5.5,0,0,1,.44.47c0,.18.25,4.56-2.24,6.79A4.28,4.28,0,0,1,219.87,88.92Zm-6.12-8.37a9.65,9.65,0,0,0,1.06,4A6.08,6.08,0,0,0,219,87.84a3.59,3.59,0,0,0,3-.62c1.74-1.55,1.93-4.49,1.93-5.57C220.43,81.24,215.32,80.67,213.75,80.55Z" fill="#231f20"></path><path d="M214.36,84.84c2,3.78,6.21,4.32,8,2.76-.58-1.47-1.53-2.95-3.05-3.37A7.2,7.2,0,0,0,214.36,84.84Z" fill="#231f20"></path><path d="M219.88,88.91a6.06,6.06,0,0,1-1-.09,7.06,7.06,0,0,1-4.92-3.75.48.48,0,0,1,0-.39.5.5,0,0,1,.26-.29,7.78,7.78,0,0,1,5.27-.64c1.44.39,2.58,1.63,3.38,3.67a.48.48,0,0,1-.13.55A4.24,4.24,0,0,1,219.88,88.91Zm-4.8-3.84A5.94,5.94,0,0,0,219,87.84a3.78,3.78,0,0,0,2.7-.4,4.31,4.31,0,0,0-2.57-2.73A6.51,6.51,0,0,0,215.08,85.07Z" fill="#231f20"></path><path d="M143.12,152.21s-11.07,4.89-21-2.25S87.06,86,87.06,86L97.92,80l30.4,43.32Z" fill="#fff"></path><path d="M134.37,154.34a21.16,21.16,0,0,1-12.55-4c-9.93-7.13-34.2-61.89-35.23-64.22a.52.52,0,0,1,.22-.66l10.86-5.92a.52.52,0,0,1,.67.16l30.4,43.32L143.58,152a.53.53,0,0,1,0,.41.46.46,0,0,1-.27.29A24.61,24.61,0,0,1,134.37,154.34ZM87.72,86.18c2.36,5.28,25.45,56.72,34.7,63.36,8.37,6,17.72,3.22,20,2.4l-14.54-28.35L97.76,80.71Z" fill="#231f20"></path><path d="M101,85.71a98.09,98.09,0,0,0,1.29-19.66c0-1.35-.7-3.17-2-2.89-.68.15-1.09.85-1.37,1.49a23.8,23.8,0,0,0-2,9.73Q95,69.55,93.18,64.74c-.38-1-2.68-8.57-3.82-5.25-.54,1.54.18,3.94.37,5.51q.39,3.19,1,6.37c-.24-1.5-2.51-12.5-4.55-11-1.7,1.29-.23,4.26.09,5.87.46,2.31.59,5.15,1.47,7.34-1.13-2.69-2.36-5.33-3.72-7.9-.34-.66-1.18-3-1.91-3.26s-1.63.94-1.71,1.64c-.17,1.53.93,4.08,1.32,5.6.52,2,1.23,4,1.94,6-.58-1.63-2-3.06-2.8-4.56-.69-1.23-1.18-3-2.52-3.74a1.65,1.65,0,0,0-2.36.77,2.3,2.3,0,0,0,.22,1.36,89.71,89.71,0,0,0,16,26.79" fill="#fff"></path><path d="M92.12,96.85a.56.56,0,0,1-.39-.17,89.63,89.63,0,0,1-16-26.94,2.78,2.78,0,0,1-.24-1.67,1.73,1.73,0,0,1,1-1.17,2.46,2.46,0,0,1,2.09.06,5.88,5.88,0,0,1,2.25,3c.16.35.31.68.48,1s.25.43.39.65c-.17-.57-.33-1.15-.48-1.72-.11-.42-.27-.92-.45-1.45A11.81,11.81,0,0,1,79.85,64,2.81,2.81,0,0,1,81,62.19,1.45,1.45,0,0,1,82.21,62c.73.2,1.29,1.36,1.93,2.85.12.27.22.51.3.66.58,1.1,1.13,2.21,1.67,3.34v-.07c-.12-.84-.23-1.63-.38-2.37a10.79,10.79,0,0,0-.31-1.16c-.51-1.69-1.2-4,.42-5.22A1.11,1.11,0,0,1,87,59.83a4.6,4.6,0,0,1,1.79,2.48,6.61,6.61,0,0,1,.11-3c.27-.79.67-1.18,1.19-1.18h0c1,0,1.93,1.57,3.4,5.82.09.27.16.48.21.59.93,2.41,1.85,4.85,2.74,7.28a24.5,24.5,0,0,1,2-7.39,2.69,2.69,0,0,1,1.74-1.78,1.64,1.64,0,0,1,1.4.32A4.29,4.29,0,0,1,102.75,66a97.72,97.72,0,0,1-1.29,19.77.5.5,0,0,1-.59.42.51.51,0,0,1-.42-.6,97,97,0,0,0,1.27-19.55,3.38,3.38,0,0,0-.83-2.28.63.63,0,0,0-.56-.12c-.47.09-.79.69-1,1.19a23.5,23.5,0,0,0-2,9.52.52.52,0,0,1-.43.51.51.51,0,0,1-.58-.33c-1.16-3.2-2.37-6.45-3.61-9.63,0-.13-.12-.35-.22-.63-1.44-4.2-2.13-5-2.42-5.13a3.61,3.61,0,0,0-.22.48A8.9,8.9,0,0,0,90,63.58c.09.49.17,1,.22,1.36.26,2.08.57,4.19.94,6.25a.64.64,0,0,0,0,.09h0a.52.52,0,0,1-1,.17c0-.24-.08-.48-.13-.72-.6-3.2-2.25-9.47-3.46-9.95,0,0-.06,0-.13,0-1,.79-.5,2.63-.06,4.1.13.46.26.89.33,1.25.16.78.27,1.58.39,2.43a22,22,0,0,0,1,4.82.51.51,0,0,1-1,.39c-1.11-2.65-2.35-5.3-3.69-7.85-.09-.16-.2-.43-.34-.73-.25-.58-.91-2.12-1.27-2.27a.41.41,0,0,0-.37.09,1.81,1.81,0,0,0-.68,1.11,11.73,11.73,0,0,0,.84,3.9c.18.55.35,1.07.47,1.51.53,2.09,1.28,4.15,1.93,6h0a.52.52,0,1,1-1,.35h0a12.43,12.43,0,0,0-1.6-2.71,20,20,0,0,1-1.17-1.77c-.18-.32-.35-.69-.52-1.06a5.07,5.07,0,0,0-1.79-2.48,1.45,1.45,0,0,0-1.19,0,.75.75,0,0,0-.43.47,2,2,0,0,0,.2,1.06A88.54,88.54,0,0,0,92.51,96a.51.51,0,0,1-.05.73A.54.54,0,0,1,92.12,96.85Z" fill="#231f20"></path><path d="M91.71,86.47a.51.51,0,0,1-.49-.37C89,78.25,96.47,74,96.55,73.93a.52.52,0,0,1,.5.91c-.28.15-6.87,3.92-4.84,11a.52.52,0,0,1-.35.64Z" fill="#231f20"></path><polygon points="155.94 183.26 151.69 195.74 234.48 195.74 234.48 184.4 155.94 183.26" fill="#fff"></polygon><path d="M234.48,196.25H151.69a.54.54,0,0,1-.42-.21.52.52,0,0,1-.06-.47l4.24-12.47a.47.47,0,0,1,.5-.35l78.54,1.13a.53.53,0,0,1,.51.52v11.34A.52.52,0,0,1,234.48,196.25Zm-82.07-1H234V184.91l-77.65-1.13Z" fill="#231f20"></path><path d="M235.94,168.94h0a.5.5,0,0,1-.47-.56l4.69-54.55a.5.5,0,0,1,.56-.47.51.51,0,0,1,.47.55l-4.69,54.56A.52.52,0,0,1,235.94,168.94Z" fill="#231f20"></path><path d="M149.08,147.81a.53.53,0,0,1-.41-.19.51.51,0,0,1,.08-.72l23.72-19.33a.52.52,0,0,1,.65.8L149.4,147.7A.5.5,0,0,1,149.08,147.81Z" fill="#231f20"></path><path d="M73.18,156.7h1.76a1.06,1.06,0,0,0,.19.06,14.55,14.55,0,0,1,7.39,2.5,15.14,15.14,0,0,1,6.93,14.59,14.48,14.48,0,0,1-4.22,9.1,15.18,15.18,0,0,1-12.83,4.7,14.52,14.52,0,0,1-6.93-2.49,15.34,15.34,0,0,1-6.78-10.69c-.07-.45-.12-.9-.18-1.34v-1.76l.06-.33c.09-.65.14-1.32.28-2a15.51,15.51,0,0,1,13-12.19C72.26,156.81,72.72,156.76,73.18,156.7ZM85.4,180.87a14.18,14.18,0,0,0,2.89-8H82.14c-.1,1.1-.16,2.19-.31,3.27s-.36,2.13-.55,3.15Zm-25.62-8a14.18,14.18,0,0,0,2.89,8l4.16-1.62a27.65,27.65,0,0,1-.85-6.4Zm28.49-1.25c.12-2.29-1.54-6.82-2.89-8l-4.14,1.6a28.44,28.44,0,0,1,.86,6.4Zm-21.44-6.39-4.14-1.61c-1.5,1.58-3.15,6.11-2.87,8H66A27.64,27.64,0,0,1,66.83,165.21Zm7.83,13.2c.91.07,1.8.12,2.68.22s1.77.25,2.67.39c0-.08,0-.16.07-.25a26,26,0,0,0,.76-5.62c0-.26-.06-.32-.31-.32h-5.6l-.27,0Zm-7.43-5.57A25.18,25.18,0,0,0,68,179l5.35-.61v-5.52Zm13.62-1.25a25.63,25.63,0,0,0-.82-6.1l-5.37.61v5.49ZM68,165.49a25.33,25.33,0,0,0-.81,6.1H73.4V166.1Zm11.61-1.28a14.29,14.29,0,0,0-1.83-3.79,6.31,6.31,0,0,0-2.09-2c-.33-.18-.69-.29-1.07-.45v6.79A27,27,0,0,0,79.65,164.21Zm-5,15.48v6.72a4,4,0,0,0,2-1,10.67,10.67,0,0,0,2.61-4c.14-.35.27-.71.41-1.1A26.4,26.4,0,0,0,74.67,179.69Zm-1.27,6.74v-6.75a26.83,26.83,0,0,0-5,.58c.29.71.55,1.4.86,2.06a9.17,9.17,0,0,0,2.27,3.14A4.13,4.13,0,0,0,73.4,186.43Zm-5.05-22.24a26.7,26.7,0,0,0,5.05.58V158a3.5,3.5,0,0,0-1.42.62,7.62,7.62,0,0,0-2.38,2.82C69.15,162.34,68.78,163.26,68.35,164.19Zm16.17,17.72a17.42,17.42,0,0,0-3.63-1.37,14.53,14.53,0,0,1-3,5.44A14.3,14.3,0,0,0,84.52,181.91ZM70.2,158.53c-1.55.06-5.83,2.68-6.64,4.1L67.11,164c.45-1,.84-2,1.29-2.89A10.18,10.18,0,0,1,70.2,158.53Zm-6.65,23.38A14.41,14.41,0,0,0,70.26,186a14.15,14.15,0,0,1-3.06-5.47A17.33,17.33,0,0,0,63.55,181.91Zm14.38-23.37a11.23,11.23,0,0,1,1.74,2.54c.44.93.84,1.87,1.26,2.83a16.76,16.76,0,0,0,3.59-1.37A13.88,13.88,0,0,0,77.93,158.54Z" fill="#d1d3d4"></path><path d="M311.31,190.22H274.43a.5.5,0,0,1-.5-.5V169.4a.51.51,0,0,1,.5-.5h36.88a.5.5,0,0,1,.5.5v20.32A.5.5,0,0,1,311.31,190.22Zm-36.38-1h35.88V169.9H274.93Z" fill="#d1d3d4"></path><path d="M292.88,182.58a.47.47,0,0,1-.28-.09l-18.45-12.68a.5.5,0,1,1,.57-.82l18.16,12.48L311,169a.5.5,0,1,1,.57.82l-18.44,12.68A.47.47,0,0,1,292.88,182.58Z" fill="#d1d3d4"></path><path d="M274.43,190.22a.5.5,0,0,1-.28-.91l14.78-10.16a.5.5,0,1,1,.57.82l-14.78,10.16A.52.52,0,0,1,274.43,190.22Z" fill="#d1d3d4"></path><path d="M311.31,190.22a.51.51,0,0,1-.28-.09L296.26,180a.5.5,0,1,1,.57-.82l14.77,10.16a.5.5,0,0,1-.29.91Z" fill="#d1d3d4"></path><path d="M325.66,142.35a15.78,15.78,0,1,1,15.77-15.77A15.8,15.8,0,0,1,325.66,142.35Zm0-30.55a14.78,14.78,0,1,0,14.77,14.78A14.8,14.8,0,0,0,325.66,111.8Z" fill="#d1d3d4"></path><path d="M330.09,141.69a.51.51,0,0,1-.48-.35l-4.43-14.62a.47.47,0,0,1,.07-.43l8.87-12.43a.5.5,0,0,1,.7-.12.51.51,0,0,1,.11.7l-8.72,12.23L330.57,141a.51.51,0,0,1-.33.63Z" fill="#d1d3d4"></path><path d="M325.65,127.08a.53.53,0,0,1-.23-.06l-13.5-7.14a.5.5,0,1,1,.47-.89l13.5,7.14a.51.51,0,0,1,.21.68A.51.51,0,0,1,325.65,127.08Z" fill="#d1d3d4"></path><path d="M114.8,184.11h-5.24a.5.5,0,0,1-.5-.5v-24a.5.5,0,0,1,.5-.5h5.24a.5.5,0,0,1,.5.5v24A.5.5,0,0,1,114.8,184.11Zm-4.74-1h4.24v-23h-4.24Z" fill="#d1d3d4"></path><path d="M126.26,184.11H121a.5.5,0,0,1-.5-.5V167a.5.5,0,0,1,.5-.5h5.24a.5.5,0,0,1,.5.5v16.64A.5.5,0,0,1,126.26,184.11Zm-4.74-1h4.24V167.47h-4.24Z" fill="#d1d3d4"></path><path d="M137.72,184.11h-5.24a.5.5,0,0,1-.5-.5V172.93a.5.5,0,0,1,.5-.5h5.24a.5.5,0,0,1,.5.5v10.68A.5.5,0,0,1,137.72,184.11Zm-4.74-1h4.24v-9.68H133Z" fill="#d1d3d4"></path><path d="M142.05,184.11H104.46a.5.5,0,0,1-.5-.5.5.5,0,0,1,.5-.5h37.59a.5.5,0,0,1,.5.5A.5.5,0,0,1,142.05,184.11Z" fill="#d1d3d4"></path><path d="M85.51,123.46H63.38a4.67,4.67,0,0,1-4.67-4.67V106.2a4.67,4.67,0,0,1,4.67-4.67H85.51a4.67,4.67,0,0,1,4.67,4.67v12.59A4.67,4.67,0,0,1,85.51,123.46ZM63.38,102.53a3.67,3.67,0,0,0-3.67,3.67v12.59a3.68,3.68,0,0,0,3.67,3.67H85.51a3.67,3.67,0,0,0,3.67-3.67V106.2a3.67,3.67,0,0,0-3.67-3.67Z" fill="#d1d3d4"></path><path d="M69.36,119.38a.42.42,0,0,1-.26-.08.49.49,0,0,1-.24-.42V106.11a.52.52,0,0,1,.24-.43.48.48,0,0,1,.48,0L82.72,112a.5.5,0,0,1,0,.91l-13.14,6.38A.54.54,0,0,1,69.36,119.38Zm.5-12.47v11.17l11.5-5.58Z" fill="#d1d3d4"></path><path d="M153.39,95.8H121.68a.5.5,0,0,1-.5-.5V73.15a.5.5,0,0,1,.5-.5h31.71a.5.5,0,0,1,.5.5V95.3A.5.5,0,0,1,153.39,95.8Zm-31.21-1h30.71V73.65H122.18Z" fill="#d1d3d4"></path><path d="M121.68,95.8a.49.49,0,0,1-.3-.1.51.51,0,0,1-.1-.7L133.8,78.14a.5.5,0,0,1,.78,0l9.8,11.61a.5.5,0,0,1-.77.65l-9.39-11.13L122.08,95.6A.51.51,0,0,1,121.68,95.8Z" fill="#d1d3d4"></path><path d="M141.31,87.37a.52.52,0,0,1-.29-.09.5.5,0,0,1-.12-.69L146,79.26a.49.49,0,0,1,.37-.21.5.5,0,0,1,.4.15l7,7.33a.49.49,0,0,1,0,.7.5.5,0,0,1-.71,0l-6.59-6.89-4.72,6.83A.49.49,0,0,1,141.31,87.37Z" fill="#d1d3d4"></path><path d="M141.86,80.05a2.46,2.46,0,1,1,2.46-2.46A2.46,2.46,0,0,1,141.86,80.05Zm0-3.92a1.46,1.46,0,1,0,1.46,1.46A1.46,1.46,0,0,0,141.86,76.13Z" fill="#d1d3d4"></path><path d="M314.65,149.68h-18.2a.5.5,0,0,1-.5-.5.5.5,0,0,1,.5-.5h18.2a.5.5,0,0,1,.5.5A.5.5,0,0,1,314.65,149.68Z" fill="#d1d3d4"></path><path d="M314.65,153.6h-18.2a.5.5,0,0,1-.5-.5.5.5,0,0,1,.5-.5h18.2a.5.5,0,0,1,.5.5A.5.5,0,0,1,314.65,153.6Z" fill="#d1d3d4"></path><path d="M309.12,157.53H296.45a.5.5,0,0,1-.5-.5.5.5,0,0,1,.5-.5h12.67a.5.5,0,0,1,.5.5A.5.5,0,0,1,309.12,157.53Z" fill="#d1d3d4"></path><path d="M94.33,134H63.51a.5.5,0,1,1,0-1H94.33a.5.5,0,0,1,0,1Z" fill="#d1d3d4"></path><path d="M94.33,137.91H63.51a.5.5,0,0,1-.5-.5.5.5,0,0,1,.5-.5H94.33a.51.51,0,0,1,.5.5A.5.5,0,0,1,94.33,137.91Z" fill="#d1d3d4"></path><path d="M85,141.84H63.51a.5.5,0,0,1-.5-.5.5.5,0,0,1,.5-.5H85a.5.5,0,0,1,.5.5A.5.5,0,0,1,85,141.84Z" fill="#d1d3d4"></path><path d="M331.87,166.59h-2.42v-1.48h2.72l.49-2.16h-2.43v-1.49H333l.81-3.69h2.37l-.81,3.69h2.78l.81-3.69h2.34l-.81,3.69h2.43V163h-2.75l-.46,2.16h2.43v1.48h-2.7l-.83,3.7h-2.35l.81-3.7h-2.8l-.81,3.7h-2.34ZM335,163l-.46,2.16h2.78l.46-2.16Z" fill="#d1d3d4"></path><path d="M296.05,176.37a3.44,3.44,0,0,1-1.31,1.09,3.82,3.82,0,0,1-1.67.38,3.91,3.91,0,0,1-1.46-.27,3.67,3.67,0,0,1-1.2-.74,3.58,3.58,0,0,1-.81-1.14,3.52,3.52,0,0,1-.3-1.45,3.6,3.6,0,0,1,.29-1.44,3.56,3.56,0,0,1,.8-1.14,3.76,3.76,0,0,1,1.18-.77,3.93,3.93,0,0,1,2.7-.06,3.49,3.49,0,0,1,1.1.61,3.14,3.14,0,0,1,.78,1,3,3,0,0,1,.3,1.36,2.65,2.65,0,0,1-.13.89,2,2,0,0,1-.31.64,1.57,1.57,0,0,1-.42.43,2.21,2.21,0,0,1-.48.25,2.16,2.16,0,0,1-.45.12,1.87,1.87,0,0,1-.37,0,.84.84,0,0,1-.58-.17.54.54,0,0,1-.19-.36h0a2.39,2.39,0,0,1-.49.36,1.53,1.53,0,0,1-.76.17,1.31,1.31,0,0,1-.56-.12,1.37,1.37,0,0,1-.45-.34,1.56,1.56,0,0,1-.28-.51,2,2,0,0,1-.1-.66,2.47,2.47,0,0,1,.13-.82,2.36,2.36,0,0,1,.38-.7,1.94,1.94,0,0,1,.61-.49,1.8,1.8,0,0,1,.82-.18,1.48,1.48,0,0,1,.64.13.84.84,0,0,1,.4.43h0l.08-.44h.91l-.36,1.91-.05.27a1.43,1.43,0,0,0,0,.29.6.6,0,0,0,.05.26.23.23,0,0,0,.21.09.62.62,0,0,0,.31-.08.72.72,0,0,0,.26-.26,1.56,1.56,0,0,0,.19-.45,2.91,2.91,0,0,0-.12-1.67,2,2,0,0,0-.52-.75,2.16,2.16,0,0,0-.8-.45,3.31,3.31,0,0,0-1-.15,3,3,0,0,0-1.1.2,2.38,2.38,0,0,0-.84.58,2.44,2.44,0,0,0-.55.87,3,3,0,0,0-.2,1.1,2.76,2.76,0,0,0,.22,1.14,2.49,2.49,0,0,0,.59.86,2.85,2.85,0,0,0,.91.54,3.49,3.49,0,0,0,1.14.18,3.29,3.29,0,0,0,1-.15,2.59,2.59,0,0,0,.82-.44Zm-3.17-3.13a1,1,0,0,0-.43.09,1,1,0,0,0-.33.25,1.37,1.37,0,0,0-.2.38,1.63,1.63,0,0,0-.06.45,2.2,2.2,0,0,0,0,.23.86.86,0,0,0,.09.3.71.71,0,0,0,.24.25.75.75,0,0,0,.46.11,1,1,0,0,0,.46-.1.86.86,0,0,0,.29-.28,1.16,1.16,0,0,0,.15-.38,1.9,1.9,0,0,0,0-.41,1.15,1.15,0,0,0-.17-.64A.62.62,0,0,0,292.88,173.24Z" fill="#d1d3d4"></path></g></svg>