<svg xmlns="http://www.w3.org/2000/svg" viewBox="0 0 400 300" width="406" height="306" class="illustration styles_illustrationTablet__1DWOa"><g id="_62_office_work" data-name="#62_office_work"><path d="M338.71,244.55H61.29a.5.5,0,0,1-.5-.5.5.5,0,0,1,.5-.5H338.71a.5.5,0,0,1,.5.5A.5.5,0,0,1,338.71,244.55Z" fill="#d1d3d4"></path><rect x="164.32" y="44.37" width="154.83" height="111.26" fill="#fff"></rect><path d="M319.16,156.13H164.32a.5.5,0,0,1-.5-.5V44.37a.5.5,0,0,1,.5-.5H319.16a.5.5,0,0,1,.5.5V155.63A.5.5,0,0,1,319.16,156.13Zm-154.34-1H318.66V44.87H164.82Z" fill="#d1d3d4"></path><path d="M213.52,154.7a.51.51,0,0,1-.5-.5V44.37a.5.5,0,0,1,.5-.5.5.5,0,0,1,.5.5V154.2A.5.5,0,0,1,213.52,154.7Z" fill="#d1d3d4"></path><path d="M270,154.7a.5.5,0,0,1-.5-.5V44.37a.5.5,0,0,1,1,0V154.2A.5.5,0,0,1,270,154.7Z" fill="#d1d3d4"></path><path d="M319.16,49.88H164.32a.51.51,0,0,1-.5-.5.5.5,0,0,1,.5-.5H319.16a.5.5,0,0,1,.5.5A.5.5,0,0,1,319.16,49.88Z" fill="#d1d3d4"></path><path d="M319.16,56H164.32a.5.5,0,0,1,0-1H319.16a.5.5,0,0,1,0,1Z" fill="#d1d3d4"></path><path d="M319.16,62.06H164.32a.5.5,0,0,1-.5-.5.51.51,0,0,1,.5-.5H319.16a.5.5,0,0,1,.5.5A.5.5,0,0,1,319.16,62.06Z" fill="#d1d3d4"></path><path d="M319.16,68.16H164.32a.51.51,0,0,1-.5-.5.5.5,0,0,1,.5-.5H319.16a.5.5,0,0,1,.5.5A.5.5,0,0,1,319.16,68.16Z" fill="#d1d3d4"></path><path d="M319.16,151H164.32a.5.5,0,0,1-.5-.5.51.51,0,0,1,.5-.5H319.16a.5.5,0,0,1,.5.5A.5.5,0,0,1,319.16,151Z" fill="#d1d3d4"></path><path d="M319.28,199.47a8.58,8.58,0,0,0-1-4.66,32.74,32.74,0,0,1-2.09-2.94c-.89-1.9-.27-4.12-.48-6.2a7.69,7.69,0,0,0-2.17-4.61c-1.09-1.1-2.49-1.85-3.52-3-1.7-1.88-2.19-4.52-3.16-6.86a17.12,17.12,0,0,0-6.8-8c1.86,3.73-2.37,8.47-.45,12.17.6,1.18,1.76,2,2.21,3.28,1.07,3-2.51,6.25-1.36,9.22.57,1.49,2.16,2.35,2.9,3.76,1,1.9.22,4.21.3,6.35.11,3,1.91,5.61,4.05,7.66,1.33,1.27,2.82,2.38,4.26,3.53,1.72,1.38,2.45,2.83,4,.62A19,19,0,0,0,319.28,199.47Z" fill="#231f20"></path><path d="M321.21,201.16c-.56-2.29-.95-4.77,0-6.93,1.06-2.45,3.69-4.17,4-6.82.2-1.73-.68-3.48-.34-5.19s1.75-2.88,2.9-4.14a17.32,17.32,0,0,0,4.47-10.59,26.49,26.49,0,0,1,4.26,7,9.08,9.08,0,0,1-.62,7.95,6.84,6.84,0,0,0-1.08,1.76c-.52,1.69.92,3.26,1.67,4.86a5.59,5.59,0,0,1-.53,5.74c-1.51,1.89-4.43,2.62-5.17,4.92a11.39,11.39,0,0,0-.26,2.61,7.65,7.65,0,0,1-5.51,6.57c-1.79.44-1.76-.27-2.08-1.78C322.47,205.14,321.69,203.18,321.21,201.16Z" fill="#231f20"></path><path d="M315.51,184.69c-1.27-4.4-1.78-9-3.12-13.37a74.32,74.32,0,0,0-4.17-10l5.46,2.3c1.75.74,3.65,1.61,4.47,3.32,1.44,3-1.14,6.8.37,9.74a24.21,24.21,0,0,0,2.16,2.71c1.6,2.26,1.36,5.36.48,8-.38,1.12-2,7-3.51,5.34-.6-.65-.65-3.07-.89-4C316.37,187.41,315.9,186.06,315.51,184.69Z" fill="#231f20"></path><path d="M318.46,243.15c-1.08-7.19-4.49-32.54-4.53-32.8l1-.13c0,.26,3.44,25.59,4.52,32.78Z" fill="#231f20"></path><path d="M319.8,249.93h-1c.06-8.54,3.63-41.19,5.68-43.44l.74.68C323.65,208.88,319.87,240.45,319.8,249.93Z" fill="#231f20"></path><path d="M321.65,248.31l-1-.05c.81-18.4-3.09-57.07-3.13-57.45l1-.1C318.56,191.09,322.47,229.83,321.65,248.31Z" fill="#231f20"></path><path d="M309.14,222.54h20.32L328,245.61c-.24,4-3.2,7.08-6.77,7.08h-3.93c-3.56,0-6.52-3.09-6.77-7.08Z" fill="#fff"></path><path d="M321.26,253.21h-3.93c-3.82,0-7-3.33-7.28-7.57l-1.42-23.07a.52.52,0,0,1,.14-.39.51.51,0,0,1,.37-.16h20.32a.51.51,0,0,1,.51.55l-1.42,23.07C328.29,249.88,325.09,253.21,321.26,253.21Zm-11.57-30.16,1.39,22.52c.23,3.71,3,6.61,6.25,6.61h3.93c3.28,0,6-2.9,6.26-6.61l1.39-22.52Z" fill="#231f20"></path><path d="M139.6,171.48c-1,2.05.52,3.86,4.32,3.86h10.4c1.55,0,5.43-4.63,3.49-7S140.61,169.44,139.6,171.48Z" fill="#231f20"></path><path d="M154.32,175.84h-10.4c-2.32,0-4-.65-4.74-1.84a2.73,2.73,0,0,1,0-2.74c.83-1.68,8-3.52,12.54-4,3.54-.4,5.73-.13,6.49.81s.86,2.46.09,4.09S155.58,175.84,154.32,175.84Zm.19-7.8a24.61,24.61,0,0,0-2.7.18c-5.38.61-11.28,2.51-11.76,3.48a1.79,1.79,0,0,0,0,1.77c.54.87,2,1.37,3.89,1.37h10.4c.62,0,2.24-1.41,3.06-3.15.34-.73.81-2.09,0-3C157.15,168.32,156.24,168,154.51,168Z" fill="#231f20"></path><path d="M167.84,162.81a46.28,46.28,0,0,1-9.92,1.3c-2.43,0-4.63-.72-7-.28a14.9,14.9,0,0,0-6.49,2.89c-.26.21-.54.5-.45.82a.7.7,0,0,0,.38.41c1,.51,2-.11,2.92-.36a12,12,0,0,1,2.93-.4,9.39,9.39,0,0,1,5.89,1.64,1.3,1.3,0,0,1,.55.68,1,1,0,0,1-.32.87,2.91,2.91,0,0,1-.84.48l-3.18,1.38c-.17.07-.38.22-.31.4s.14.14.23.18c3.15,1.15,6.49-1,9.5-1.65a65,65,0,0,1,10-1.44,9.2,9.2,0,0,1-1.05-6.84" fill="#fff"></path><path d="M154.17,173.61a6.11,6.11,0,0,1-2.13-.36.8.8,0,0,1-.51-.45c-.12-.31,0-.74.56-1l3.18-1.38a2.36,2.36,0,0,0,.7-.39.53.53,0,0,0,.19-.44c0-.15-.22-.3-.37-.41a9,9,0,0,0-5.61-1.55,11.31,11.31,0,0,0-2.82.38,4.82,4.82,0,0,0-.61.2,3.2,3.2,0,0,1-2.65.12,1.16,1.16,0,0,1-.6-.68c-.13-.45.08-.89.61-1.3a13.79,13.79,0,0,1,11.22-2.93,24.4,24.4,0,0,0,2.6.22,46.39,46.39,0,0,0,9.82-1.3.45.45,0,1,1,.18.89,47.75,47.75,0,0,1-10,1.32,25.88,25.88,0,0,1-2.7-.22,14.16,14.16,0,0,0-4.26-.07,14.47,14.47,0,0,0-6.29,2.8c-.27.22-.29.34-.29.34h0s0,.05.16.12a2.39,2.39,0,0,0,1.9-.17l.67-.22a12.69,12.69,0,0,1,3-.42,9.87,9.87,0,0,1,6.17,1.73,1.68,1.68,0,0,1,.72.94,1.39,1.39,0,0,1-.45,1.31,3.28,3.28,0,0,1-1,.57l-2.85,1.24c2,.51,4.05-.22,6.05-.93a24.33,24.33,0,0,1,2.76-.86,62.92,62.92,0,0,1,9.36-1.4,9.58,9.58,0,0,1-.75-6.55.45.45,0,0,1,.55-.34.46.46,0,0,1,.33.55,8.73,8.73,0,0,0,1,6.51.43.43,0,0,1,0,.44.46.46,0,0,1-.38.25,62.86,62.86,0,0,0-9.93,1.43,22.81,22.81,0,0,0-2.65.83A15.49,15.49,0,0,1,154.17,173.61Z" fill="#231f20"></path><rect x="211.78" y="199.58" width="11.71" height="9.42" fill="#fff"></rect><path d="M223.49,209.45H211.78a.45.45,0,0,1-.45-.46v-9.41a.45.45,0,0,1,.45-.46h11.71a.46.46,0,0,1,.46.46V209A.46.46,0,0,1,223.49,209.45Zm-11.25-.91H223V200H212.24Z" fill="#231f20"></path><rect x="214.07" y="208.91" width="7.13" height="42.17" fill="#231f20"></rect><path d="M221.2,251.57h-7.13a.5.5,0,0,1-.5-.5V208.91a.5.5,0,0,1,.5-.5h7.13a.5.5,0,0,1,.5.5v42.16A.5.5,0,0,1,221.2,251.57Zm-6.63-1h6.13V209.41h-6.13Z" fill="#231f20"></path><path d="M239.69,254.3a72,72,0,0,0-42.65,0Z" fill="#231f20"></path><path d="M239.69,254.8H197a.49.49,0,0,1-.49-.42.5.5,0,0,1,.34-.56,72.58,72.58,0,0,1,43,0,.51.51,0,0,1,.34.56A.5.5,0,0,1,239.69,254.8Zm-39.1-1h35.55a72,72,0,0,0-35.55,0Z" fill="#231f20"></path><path d="M149.81,243.5a5.91,5.91,0,0,1-2.43,2.8c-1.34.61-17.18,4.12-16.93,6.39s1.88,2.76,6.09,2.92c5.64.21,23.62-1.31,23.62-1.31v-9.58Z" fill="#fff"></path><path d="M137.81,256.09l-1.29,0c-4.28-.17-6.24-.69-6.53-3.34-.19-1.76,4.81-3.45,14.11-6,1.5-.4,2.79-.75,3.09-.89a5.55,5.55,0,0,0,2.19-2.53.45.45,0,0,1,.49-.3l10.35,1.21a.46.46,0,0,1,.4.46v9.58a.45.45,0,0,1-.42.45C159.52,254.81,144.4,256.09,137.81,256.09ZM150.09,244a6.16,6.16,0,0,1-2.53,2.73c-.34.15-1.34.43-3.23.94-9,2.43-13.52,4.1-13.43,5,.2,1.83,1.36,2.35,5.65,2.51,5.08.2,20.42-1.05,23.16-1.27v-8.76Z" fill="#231f20"></path><path d="M192.2,245.69s-17.1,5.87-17.83,7,.57,2.42,5.12,2.83,24-.65,24-.65.24-5.28-1-8S192.2,245.69,192.2,245.69Z" fill="#fff"></path><path d="M182.74,256.07c-1.39,0-2.54,0-3.29-.1-3.12-.28-5-1-5.58-2.09a1.39,1.39,0,0,1,.12-1.44c.76-1.17,14-5.79,18.06-7.18l.08,0c1-.15,9.51-1.43,10.83,1.48,1.25,2.75,1,7.95,1,8.17a.46.46,0,0,1-.44.43C202.88,255.36,189.72,256.07,182.74,256.07Zm9.57-9.93c-8,2.76-16.92,6.08-17.57,6.81a.52.52,0,0,0-.05.54c.28.57,1.7,1.29,4.84,1.57,4.09.36,20.68-.48,23.54-.63,0-1.28,0-5.21-.94-7.33C201.35,245.38,195.71,245.6,192.31,246.14Z" fill="#231f20"></path><path d="M260.19,127.06H212.45s-3.57,42.74-5.85,52.76-11.52,12.94-18.34,12.77-24.36-2.09-25,0,1.14,6.16,8.6,8.11,52.82,1.63,52.82,1.63,15.87-5,24.64-15.92S262.63,137.36,260.19,127.06Z" fill="#fff"></path><path d="M217.08,202.82c-13.28,0-39.7-.19-45.34-1.67s-7.64-3.94-8.4-5.3a4.47,4.47,0,0,1-.53-3.38c.5-1.63,5.79-1.55,18.24-.73,2.78.18,5.4.35,7.22.4,7.25.17,15.75-3,17.89-12.43,2.24-9.87,5.8-52.26,5.83-52.69a.47.47,0,0,1,.46-.42h47.74a.45.45,0,0,1,.44.36c2.45,10.33-1.92,48.5-11,59.75-8.76,10.89-24.71,16-24.87,16.06a.3.3,0,0,1-.13,0C224.22,202.8,221.32,202.82,217.08,202.82Zm-48.52-10.74c-2.66,0-4.64.17-4.88.66a3.55,3.55,0,0,0,.46,2.66c.69,1.24,2.62,3.51,7.83,4.87,7.19,1.88,50.59,1.62,52.62,1.61,1.11-.36,16.06-5.41,24.36-15.74,8.61-10.71,13-48.17,10.87-58.62H212.87c-.38,4.46-3.69,43-5.82,52.4-1.48,6.53-7.2,13.39-18.81,13.13-1.83,0-4.46-.22-7.25-.4C177.55,192.42,172.36,192.08,168.56,192.08Z" fill="#231f20"></path><path d="M241,187.48s13.95-34.87,12.48-52.06-12.72-18.25-16.62-18.49-24.6-3-32.15,6.25S199.13,177,199.13,177Z" fill="#1ca7ec"></path><path d="M192.2,179.93s-14.83-2.47-21.17,3.13S148.47,244,148.47,244s3.41,5.36,12.42,2.68l36.54-58.22S200.09,179.73,192.2,179.93Z" fill="#231f20"></path><path d="M156.1,247.92c-5.63,0-7.93-3.48-8-3.66a.5.5,0,0,1-.06-.41c.67-2.27,16.34-55.53,22.71-61.17s20.44-3.43,21.53-3.25c2.27-.05,4,.61,5,2,2,2.67.74,7,.69,7.2a.34.34,0,0,1-.06.12l-36.53,58.21a.6.6,0,0,1-.28.22A17.5,17.5,0,0,1,156.1,247.92Zm-7.08-4c.67.88,4,4.52,11.55,2.34l36.4-58c.14-.51,1.06-4.14-.54-6.25-.84-1.09-2.26-1.63-4.22-1.57h-.09c-.15,0-14.68-2.37-20.76,3S150.18,240,149,243.9Z" fill="#231f20"></path><path d="M241,187.48s-27.28-11.94-35.56-13.15c0,0-15.35-2.93-21.44,8.28s8.17,63.08,8.17,63.08a16,16,0,0,0,11.08,1.95L208,197S242,199.41,241,187.48Z" fill="#231f20"></path><path d="M200.32,248.42a16.24,16.24,0,0,1-8.4-2.31.5.5,0,0,1-.2-.29c-.59-2.12-14.24-52.2-8.13-63.45,6.2-11.4,21.81-8.56,22-8.54,8.23,1.21,34.55,12.7,35.67,13.19a.5.5,0,0,1,.3.42,5.93,5.93,0,0,1-1.82,4.83c-6.39,6.47-27.7,5.51-31.31,5.3l-4.63,50.12a.49.49,0,0,1-.4.44A15.77,15.77,0,0,1,200.32,248.42Zm-7.69-3a15.69,15.69,0,0,0,10.18,1.85L207.45,197a.52.52,0,0,1,.54-.45c.24,0,24.49,1.62,31-5a5,5,0,0,0,1.55-3.76c-2.92-1.26-27.48-11.86-35.15-13-.18,0-15.09-2.72-20.93,8C178.73,193.41,191.7,241.93,192.63,245.37Z" fill="#231f20"></path><path d="M204.74,123.18s-5.59,10.74-8.89,16.26-10.44,13.44-10.44,13.44-25.33,9-25.49,9.49,2.4,9,2.4,9,26.58-1.91,31-4,13.31-12.31,13.31-12.31Z" fill="#1ca7ec"></path><path d="M233.1,87.92a3.91,3.91,0,0,0-2.63-1.09,1.82,1.82,0,0,0-1.75,1.9,8.88,8.88,0,0,0-7.23-3.63,20.65,20.65,0,0,0-8.15,1.81,56.51,56.51,0,0,1-7.9,2.86,16,16,0,0,0,6.16,10.41,31.91,31.91,0,0,0,5,2.87l3.63,1.82c3.71,1.86,8.79,3.46,12.84,1.46,3.54-1.74,4.19-8,3.72-11.38A11.2,11.2,0,0,0,233.1,87.92Z" fill="#fff"></path><path d="M228.81,107.76a20.61,20.61,0,0,1-8.83-2.44l-3.63-1.82a31.63,31.63,0,0,1-5-2.92,16.54,16.54,0,0,1-6.36-10.74.51.51,0,0,1,.38-.56,38.41,38.41,0,0,0,6-2.1c.6-.25,1.2-.5,1.8-.73a21.55,21.55,0,0,1,8.35-1.85,9.65,9.65,0,0,1,7,3,1.26,1.26,0,0,1,.19-.28,2.5,2.5,0,0,1,1.79-1,4.26,4.26,0,0,1,3,1.2h0a11.56,11.56,0,0,1,3.83,7.34c.54,3.86-.34,10.1-4,11.9A10,10,0,0,1,228.81,107.76ZM206,90.15a15.49,15.49,0,0,0,5.91,9.63,32.1,32.1,0,0,0,4.88,2.83l3.64,1.81c3.47,1.74,8.44,3.41,12.39,1.46,3.17-1.56,3.93-7.4,3.44-10.86a10.61,10.61,0,0,0-3.48-6.71h0a3.36,3.36,0,0,0-2.27-1,1.58,1.58,0,0,0-1.08.58.93.93,0,0,0-.22.73.5.5,0,0,1-.91.36,8.41,8.41,0,0,0-6.83-3.4,20.47,20.47,0,0,0-7.95,1.78c-.6.23-1.19.48-1.78.72A43,43,0,0,1,206,90.15Z" fill="#231f20"></path><path d="M216.4,115.57v9.3a6.82,6.82,0,0,0,8.27,3.57c6.08-1.55,6.82-5.92,6.82-5.92l-.27-17.21s-4.55-2.36-3.34-12.2a30.19,30.19,0,0,1-15.83,2.39s-2.64,10.69-1.84,15.41S216.4,115.57,216.4,115.57Z" fill="#fff"></path><path d="M222.48,129.23a7.34,7.34,0,0,1-6.54-4.17.65.65,0,0,1,0-.19V116c-1.43-.13-5.49-.87-6.19-5.05-.8-4.77,1.75-15.17,1.86-15.61a.49.49,0,0,1,.54-.37,30,30,0,0,0,15.54-2.34.49.49,0,0,1,.52,0,.52.52,0,0,1,.21.47c-1.15,9.32,3,11.67,3.07,11.7a.49.49,0,0,1,.27.43l.27,17.21c0,.29-.88,4.8-7.2,6.41A9.09,9.09,0,0,1,222.48,129.23Zm-5.58-4.47c.32.66,2.42,4.52,7.64,3.19,5.67-1.44,6.43-5.35,6.46-5.52l-.28-16.84c-1-.67-4.19-3.53-3.43-11.66a31.24,31.24,0,0,1-14.85,2.12c-.47,2-2.42,10.74-1.74,14.77.71,4.25,5.5,4.25,5.7,4.25a.39.39,0,0,1,.36.15.5.5,0,0,1,.14.35Z" fill="#231f20"></path><path d="M227.64,105.05A4,4,0,0,1,229,102.9a7.13,7.13,0,0,1,2.12-1.1,2.9,2.9,0,0,1,1.29-.24,2.38,2.38,0,0,1,.87.3,3.12,3.12,0,0,1,1.49,1.53,3.78,3.78,0,0,1,.1,1.74,7.43,7.43,0,0,1-.45,1.86,4.84,4.84,0,0,1-6.37,2.6" fill="#fff"></path><path d="M229.92,110.47a5.3,5.3,0,0,1-2.1-.43.5.5,0,1,1,.4-.91,4.33,4.33,0,0,0,5.71-2.33,6.88,6.88,0,0,0,.41-1.73,3.32,3.32,0,0,0-.07-1.51A2.65,2.65,0,0,0,233,102.3a1.88,1.88,0,0,0-.69-.25,2.72,2.72,0,0,0-1.06.22,6.73,6.73,0,0,0-2,1,3.45,3.45,0,0,0-1.16,1.87.5.5,0,0,1-1-.22,4.45,4.45,0,0,1,1.5-2.42,7.41,7.41,0,0,1,2.27-1.19,3.33,3.33,0,0,1,1.51-.27,2.88,2.88,0,0,1,1,.36,3.52,3.52,0,0,1,1.72,1.79,4.08,4.08,0,0,1,.13,2,7.44,7.44,0,0,1-.48,2,5.34,5.34,0,0,1-2.91,2.9A5.42,5.42,0,0,1,229.92,110.47Z" fill="#231f20"></path><path d="M219.08,101.41s-3.31,4.69-2.57,5.54,2.88.35,2.88.35" fill="#fff"></path><path d="M218.09,108a2.55,2.55,0,0,1-2-.67c-.83-1,.92-3.87,2.53-6.16a.5.5,0,0,1,.7-.12.51.51,0,0,1,.12.7c-1.53,2.17-2.74,4.48-2.58,5,.39.43,1.76.29,2.37.15a.5.5,0,1,1,.22,1A7.29,7.29,0,0,1,218.09,108Z" fill="#231f20"></path><ellipse cx="222.94" cy="101.16" rx="0.79" ry="1.11" transform="translate(-5.8 13.91) rotate(-3.53)" fill="#231f20"></ellipse><ellipse cx="215.46" cy="101.03" rx="1.11" ry="0.79" transform="translate(66.59 286.68) rotate(-76.4)" fill="#231f20"></ellipse><path d="M219.57,112.78a12.6,12.6,0,0,1-7.2-2.41.5.5,0,0,1,.62-.79s5.06,3.87,10.73,1.28a.49.49,0,0,1,.66.25.5.5,0,0,1-.25.66A10.92,10.92,0,0,1,219.57,112.78Z" fill="#231f20"></path><path d="M212.67,106.65a6,6,0,0,1-3.43-1.09,6,6,0,0,1,2.41-10.79,6,6,0,0,1,6.92,4.86h0a6,6,0,0,1-4.86,6.93A6.18,6.18,0,0,1,212.67,106.65Zm0-11a5.1,5.1,0,0,0-.87.07,5,5,0,0,0-2,9,5,5,0,0,0,6.94-1.21,5,5,0,0,0-4.07-7.85Z" fill="#231f20"></path><path d="M224.17,106.2a6,6,0,1,1,1-.09A6,6,0,0,1,224.17,106.2Zm0-11a5.19,5.19,0,0,0-.87.07,5,5,0,0,0,1.72,9.82,5,5,0,0,0,4.05-5.76h0a5,5,0,0,0-4.9-4.12Z" fill="#231f20"></path><path d="M216.4,115.57s5.79,1.34,9.2-.61c0,0-3.77,7.8-9.2,7Z" fill="#231f20"></path><path d="M217.21,122.5a6.62,6.62,0,0,1-.88-.06.51.51,0,0,1-.43-.5v-6.37a.49.49,0,0,1,.19-.39.55.55,0,0,1,.43-.1s5.63,1.27,8.83-.55a.5.5,0,0,1,.7.65C225.89,115.49,222.44,122.5,217.21,122.5Zm-.31-1c3.5.2,6.28-3.47,7.53-5.48a17.09,17.09,0,0,1-7.53.17Z" fill="#231f20"></path><path d="M217.18,195.78s2.13,6.07,7.49,6.56,24.69-.47,31-18.76c7.45-21.71,9.75-52.85,6.82-55.53s-4.71.24-4.71,7c0,5.13-3.58,31.38-5.84,42.63C248.6,194.09,224.5,197.51,217.18,195.78Z" fill="#fff"></path><path d="M227.08,202.9c-.88,0-1.7,0-2.46-.11-5.58-.51-7.78-6.6-7.87-6.85a.45.45,0,0,1,.09-.46.43.43,0,0,1,.44-.14c5,1.18,16.82-.08,25.16-5.44,5-3.19,8-7.34,9-12.34,2.24-11.12,5.84-37.36,5.84-42.54,0-3.28.42-7.37,2.42-8.25.91-.4,1.93-.08,3,.94,3.23,3,.77,34.26-6.69,56C250.82,199,236,202.9,227.08,202.9Zm-9.14-6.5c.76,1.59,2.89,5.13,6.77,5.48.23,0,23.52,1.9,30.5-18.45,7.48-21.78,9.58-52.63,6.94-55.05-.82-.75-1.52-1-2.06-.78-1.18.52-1.88,3.29-1.88,7.42,0,5.21-3.61,31.57-5.85,42.72-1.06,5.25-4.23,9.6-9.43,12.93C234.83,195.87,223.48,197.3,217.94,196.4Z" fill="#231f20"></path><path d="M247.91,121.13c4.72.84,23.88,45.12,17.32,50.18-10.23,7.89-45.84-.09-45.84-.09l2.9-13.73s22.9.63,23.22-4.07S232.2,127,234,123.71,247.91,121.13,247.91,121.13Z" fill="#1ca7ec"></path><path d="M184.59,209.41a.51.51,0,0,1-.46-.31c-4.81-11.56,1-28.58,1.25-29.3a.5.5,0,1,1,.94.33c-.06.17-5.93,17.38-1.27,28.59a.49.49,0,0,1-.27.65A.58.58,0,0,1,184.59,209.41Z" fill="#fff"></path><path d="M236.72,175.84h-.09l-11.12-1.91a.5.5,0,0,1-.41-.48l-.36-13.32a.5.5,0,0,1,.45-.51l20-2.06-8.8-30.35a.5.5,0,1,1,1-.28l9,30.92a.51.51,0,0,1-.07.42.48.48,0,0,1-.36.22l-20.16,2.08.34,12.44,10.71,1.84a.51.51,0,0,1,.41.58A.49.49,0,0,1,236.72,175.84Z" fill="#231f20"></path><path d="M224.75,162.09a52.2,52.2,0,0,1-11.38-.55,34.57,34.57,0,0,0-8.51-1,32.16,32.16,0,0,0-11,2.5.94.94,0,0,0-.37.25c-.33.47.47.93,1,.94a15,15,0,0,0,4.47-.56,43,43,0,0,0-10.13,5.38c-.35.25-.74.66-.57,1.06s.9.33,1.37.12l8.18-3.75a20.47,20.47,0,0,0-5.81,3.53c-.25.22-.51.51-.44.83.12.55.93.44,1.44.19a48.26,48.26,0,0,0,7.11-4.34l-5.06,3.87c-.06.41.38.76.79.78a2.29,2.29,0,0,0,1.17-.41l5.63-3.26-3.51,2.47c-.55.38-1.18,1-.91,1.62s1.4.51,2.12.18a42.86,42.86,0,0,1,9.05-2.78,14,14,0,0,1,3.35-.68,29,29,0,0,1,5.14,1.12c2.55.57,5.09,1.16,7.64,1.75" fill="#fff"></path><path d="M199.18,172.73a1.66,1.66,0,0,1-.62-.11,1.21,1.21,0,0,1-.68-.65,1.28,1.28,0,0,1,0-.94l-.54.31a2.63,2.63,0,0,1-1.41.47,1.35,1.35,0,0,1-1-.47,1.11,1.11,0,0,1-.26-.6c-.46.25-.92.49-1.39.72a2,2,0,0,1-1.59.14.92.92,0,0,1-.5-.65,1.17,1.17,0,0,1,.37-1l-1.66.76a2,2,0,0,1-1.44.16,1,1,0,0,1-.54-.51c-.23-.53,0-1.11.73-1.61a42.83,42.83,0,0,1,6.79-4h-.89a1.8,1.8,0,0,1-1.47-.79.83.83,0,0,1,.07-.87,1.28,1.28,0,0,1,.56-.41,32.42,32.42,0,0,1,11.13-2.54,30.16,30.16,0,0,1,7.57.79l1,.2a52.48,52.48,0,0,0,11.29.54.47.47,0,0,1,.47.44.46.46,0,0,1-.44.48,53.84,53.84,0,0,1-11.49-.57l-1-.19a29.67,29.67,0,0,0-7.36-.78,31.55,31.55,0,0,0-10.81,2.47.69.69,0,0,0-.17.1,1.66,1.66,0,0,0,.68.22,14.49,14.49,0,0,0,4.34-.55.46.46,0,0,1,.56.29.48.48,0,0,1-.28.58,42.44,42.44,0,0,0-10,5.32c-.35.25-.44.45-.42.5a1,1,0,0,0,.75-.11l6.34-2.9c.61-.31,1.23-.6,1.88-.86a.46.46,0,0,1,.35.84l-1.83.84a19.86,19.86,0,0,0-3.87,2.63c-.32.27-.3.38-.3.38a1.07,1.07,0,0,0,.8-.12,47.33,47.33,0,0,0,7-4.3.46.46,0,0,1,.55.73l-4.83,3.7a.46.46,0,0,0,.3.13,1.69,1.69,0,0,0,.92-.35l5.64-3.25a.44.44,0,0,1,.61.15.46.46,0,0,1-.12.62l-3.52,2.46c-.45.32-.89.77-.75,1.07a.26.26,0,0,0,.17.17,2.07,2.07,0,0,0,1.35-.23,43.09,43.09,0,0,1,9.14-2.81c.36-.08.72-.18,1.08-.28a7.71,7.71,0,0,1,2.38-.41,16,16,0,0,1,3.66.73c.53.14,1.06.29,1.56.4,2.55.58,5.1,1.16,7.64,1.76a.45.45,0,0,1,.34.55.47.47,0,0,1-.55.34c-2.54-.6-5.09-1.18-7.63-1.76-.52-.11-1.06-.26-1.6-.41a15.4,15.4,0,0,0-3.45-.69,7.09,7.09,0,0,0-2.1.37c-.38.11-.76.21-1.15.29a42,42,0,0,0-8.95,2.76A3.76,3.76,0,0,1,199.18,172.73Z" fill="#231f20"></path><path d="M209.55,128.73s-4.19,17.1-8,29.25" fill="#fff"></path><path d="M201.59,158.44l-.14,0a.45.45,0,0,1-.3-.57c3.73-12,7.91-29.06,8-29.23a.45.45,0,1,1,.88.22c0,.17-4.23,17.25-8,29.28A.46.46,0,0,1,201.59,158.44Z" fill="#231f20"></path><path d="M198.64,174.94h-37a2.71,2.71,0,0,1,.66-3.57h35.59Z" fill="#fff"></path><path d="M198.64,175.39h-37a.44.44,0,0,1-.39-.22A3.12,3.12,0,0,1,162,171a.47.47,0,0,1,.28-.09h35.59a.45.45,0,0,1,.45.36l.72,3.56a.43.43,0,0,1-.09.38A.46.46,0,0,1,198.64,175.39Zm-36.7-.91h36.14l-.54-2.65H162.48A2.18,2.18,0,0,0,161.94,174.48Z" fill="#231f20"></path><path d="M211.68,173.66s-12.84-3.16-13.85-2.15-.67,3.29.81,3.43,1.81-1.82,1.81-1.82l11.23,2.22Z" fill="#fff"></path><path d="M211.68,175.79h-.09l-10.8-2.14a2.18,2.18,0,0,1-2.19,1.74A1.91,1.91,0,0,1,197,174a2.79,2.79,0,0,1,.54-2.86c1-1,9.39.83,14.28,2a.46.46,0,0,1,.34.45v1.68a.48.48,0,0,1-.16.35A.46.46,0,0,1,211.68,175.79Zm-11.23-3.12h.09l10.68,2.11V174c-5.9-1.44-12.32-2.63-13.09-2.17a2,2,0,0,0-.31,1.88,1.07,1.07,0,0,0,.86.75c1,.1,1.32-1.42,1.32-1.44a.44.44,0,0,1,.19-.29A.42.42,0,0,1,200.45,172.67Z" fill="#231f20"></path><polygon points="116.92 255.19 109.19 255.19 118.89 180.06 132.73 180.06 116.92 255.19" fill="#fff"></polygon><path d="M116.92,255.65h-7.73a.46.46,0,0,1-.35-.16.52.52,0,0,1-.11-.36L118.44,180a.45.45,0,0,1,.45-.4h13.84a.43.43,0,0,1,.35.17.45.45,0,0,1,.1.38l-15.81,75.13A.47.47,0,0,1,116.92,255.65Zm-7.22-.92h6.85l15.62-74.21H119.29Z" fill="#231f20"></path><polygon points="275.17 255.19 282.91 255.19 273.2 180.06 259.36 180.06 275.17 255.19" fill="#fff"></polygon><path d="M282.91,255.65h-7.74a.45.45,0,0,1-.44-.37l-15.82-75.13a.48.48,0,0,1,.1-.38.43.43,0,0,1,.35-.17H273.2a.45.45,0,0,1,.45.4l9.71,75.13a.44.44,0,0,1-.11.36A.46.46,0,0,1,282.91,255.65Zm-7.37-.92h6.85l-9.59-74.21H259.92Z" fill="#231f20"></path><rect x="241.74" y="213.4" width="31.62" height="5.68" fill="#fff"></rect><path d="M273.37,219.54H241.74a.47.47,0,0,1-.46-.46V213.4a.47.47,0,0,1,.46-.46h31.63a.46.46,0,0,1,.45.46v5.68A.46.46,0,0,1,273.37,219.54Zm-31.17-.92h30.71v-4.76H242.2Z" fill="#231f20"></path><polygon points="245.78 255.19 253.51 255.19 243.81 180.06 229.97 180.06 245.78 255.19" fill="#fff"></polygon><path d="M253.51,255.65h-7.73a.46.46,0,0,1-.45-.37l-15.81-75.13a.48.48,0,0,1,.09-.38.46.46,0,0,1,.36-.17h13.84a.45.45,0,0,1,.45.4L254,255.13a.52.52,0,0,1-.11.36A.46.46,0,0,1,253.51,255.65Zm-7.36-.92H253l-9.58-74.21H230.53Z" fill="#231f20"></path><rect x="89.33" y="213.4" width="31.62" height="5.68" transform="translate(210.29 432.48) rotate(-180)" fill="#fff"></rect><path d="M121,219.54H89.33a.46.46,0,0,1-.45-.46V213.4a.46.46,0,0,1,.45-.46H121a.46.46,0,0,1,.45.46v5.68A.46.46,0,0,1,121,219.54Zm-31.17-.92H120.5v-4.76H89.79Z" fill="#231f20"></path><polygon points="87.53 255.19 79.79 255.19 89.5 180.06 103.34 180.06 87.53 255.19" fill="#fff"></polygon><path d="M87.53,255.65H79.79a.46.46,0,0,1-.34-.16.44.44,0,0,1-.11-.36L89,180a.46.46,0,0,1,.46-.4h13.84a.43.43,0,0,1,.35.17.48.48,0,0,1,.1.38L88,255.28A.45.45,0,0,1,87.53,255.65Zm-7.22-.92h6.85l15.62-74.21H89.9Z" fill="#231f20"></path><rect x="88.05" y="98.87" width="85.91" height="62.89" transform="translate(262.02 260.64) rotate(-180)" fill="#fff"></rect><path d="M174,162.22H88.05a.45.45,0,0,1-.45-.46V98.87a.45.45,0,0,1,.45-.45H174a.46.46,0,0,1,.46.45v62.89A.46.46,0,0,1,174,162.22Zm-85.46-.91h85v-62h-85Z" fill="#231f20"></path><polygon points="139.6 135.42 139.6 161.76 125.86 161.76 139.6 135.42" fill="#231f20"></polygon><path d="M139.6,162.22H125.86a.44.44,0,0,1-.39-.22.45.45,0,0,1,0-.45L139.2,135.2a.46.46,0,0,1,.86.22v26.34A.45.45,0,0,1,139.6,162.22Zm-13-.91h12.54v-24Z" fill="#231f20"></path><path d="M121.85,135.42H139.6l-9.73,37.8h17.85a1.06,1.06,0,0,1,0,2.12h-34.2a1.41,1.41,0,0,1-1.41-1.41v-.71Z" fill="#fff"></path><path d="M147.72,175.79h-34.2a1.87,1.87,0,0,1-1.87-1.86v-.71a.5.5,0,0,1,0-.12l9.74-37.8a.45.45,0,0,1,.44-.34H139.6a.43.43,0,0,1,.36.18.45.45,0,0,1,.09.39l-9.59,37.23h17.26a1.52,1.52,0,1,1,0,3Zm-35.15-2.51v.65a1,1,0,0,0,1,.95h34.2a.6.6,0,0,0,0-1.2H129.87a.45.45,0,0,1-.36-.18.48.48,0,0,1-.09-.4L139,135.87H122.2Z" fill="#231f20"></path><rect x="167.36" y="154.32" width="1.17" height="3.67" rx="0.58" transform="translate(335.88 312.3) rotate(-180)" fill="#231f20"></rect><path d="M167.94,158.44a1,1,0,0,1-1-1v-2.5a1,1,0,1,1,2.08,0v2.5A1,1,0,0,1,167.94,158.44Zm0-3.67a.13.13,0,0,0-.13.13v2.5c0,.14.26.14.26,0v-2.5A.13.13,0,0,0,167.94,154.77Z" fill="#231f20"></path><rect x="164.3" y="154.32" width="1.17" height="3.67" rx="0.58" transform="translate(329.78 312.3) rotate(180)" fill="#231f20"></rect><path d="M164.89,158.44a1,1,0,0,1-1-1v-2.5a1,1,0,0,1,2.08,0v2.5A1,1,0,0,1,164.89,158.44Zm0-3.67a.13.13,0,0,0-.13.13v2.5c0,.14.26.14.26,0v-2.5A.13.13,0,0,0,164.89,154.77Z" fill="#231f20"></path><rect x="161.25" y="154.32" width="1.17" height="3.67" rx="0.58" transform="translate(323.67 312.3) rotate(180)" fill="#231f20"></rect><path d="M161.83,158.44a1,1,0,0,1-1-1v-2.5a1,1,0,0,1,2.09,0v2.5A1,1,0,0,1,161.83,158.44Zm0-3.67a.12.12,0,0,0-.12.13v2.5c0,.14.25.14.25,0v-2.5A.13.13,0,0,0,161.83,154.77Z" fill="#231f20"></path><rect x="158.2" y="154.32" width="1.17" height="3.67" rx="0.58" transform="translate(317.56 312.3) rotate(-180)" fill="#231f20"></rect><path d="M158.78,158.44a1,1,0,0,1-1-1v-2.5a1,1,0,0,1,2.08,0v2.5A1,1,0,0,1,158.78,158.44Zm0-3.67a.12.12,0,0,0-.12.13v2.5c0,.14.25.14.25,0v-2.5A.13.13,0,0,0,158.78,154.77Z" fill="#231f20"></path><rect x="155.15" y="154.32" width="1.17" height="3.67" rx="0.58" transform="translate(311.46 312.3) rotate(180)" fill="#231f20"></rect><path d="M155.73,158.44a1,1,0,0,1-1-1v-2.5a1,1,0,0,1,2.08,0v2.5A1,1,0,0,1,155.73,158.44Zm0-3.67a.13.13,0,0,0-.13.13v2.5c0,.14.26.14.26,0v-2.5A.13.13,0,0,0,155.73,154.77Z" fill="#231f20"></path><rect x="152.09" y="154.32" width="1.17" height="3.67" rx="0.58" transform="translate(305.35 312.3) rotate(-180)" fill="#231f20"></rect><path d="M152.68,158.44a1,1,0,0,1-1-1v-2.5a1,1,0,0,1,2.08,0v2.5A1,1,0,0,1,152.68,158.44Zm0-3.67a.13.13,0,0,0-.13.13v2.5c0,.14.25.14.25,0v-2.5A.12.12,0,0,0,152.68,154.77Z" fill="#231f20"></path><rect x="78.38" y="175.34" width="209.15" height="7.72" fill="#fff"></rect><path d="M287.52,183.52H78.38a.46.46,0,0,1-.46-.46v-7.72a.45.45,0,0,1,.46-.46H287.52a.45.45,0,0,1,.46.46v7.72A.46.46,0,0,1,287.52,183.52ZM78.83,182.6H287.07v-6.81H78.83Z" fill="#231f20"></path><circle cx="123.98" cy="67.66" r="18.11" fill="#fff"></circle><path d="M124,86.27a18.61,18.61,0,1,1,18.61-18.61A18.63,18.63,0,0,1,124,86.27Zm0-36.22a17.61,17.61,0,1,0,17.61,17.61A17.63,17.63,0,0,0,124,50.05Z" fill="#d1d3d4"></path><path d="M124,68.16a.78.78,0,0,1-.21,0,.5.5,0,0,1-.29-.46V55.77a.5.5,0,0,1,.5-.5.51.51,0,0,1,.5.5V66.52l4.67-4.3a.5.5,0,1,1,.68.73L124.31,68A.51.51,0,0,1,124,68.16Z" fill="#d1d3d4"></path></g></svg>