<svg xmlns="http://www.w3.org/2000/svg" viewBox="0 0 400 300" width="406" height="306" class="illustration styles_illustrationTablet__1DWOa"><g id="_91_focused_working" data-name="#91_focused_working"><path d="M325,221.66H75a.5.5,0,0,1-.5-.5.5.5,0,0,1,.5-.5H325a.5.5,0,0,1,.5.5A.5.5,0,0,1,325,221.66Z" fill="#d1d3d4"></path><path d="M325,163.33H75a.5.5,0,0,1-.5-.5v-131a.5.5,0,0,1,.5-.5H325a.5.5,0,0,1,.5.5v131A.5.5,0,0,1,325,163.33Zm-249.52-1h249v-130h-249Z" fill="#d1d3d4"></path><path d="M200,162.08a.5.5,0,0,1-.5-.5V31.82a.5.5,0,1,1,1,0V161.58A.5.5,0,0,1,200,162.08Z" fill="#d1d3d4"></path><path d="M136.34,162.08a.5.5,0,0,1-.5-.5V31.82a.5.5,0,0,1,.5-.5.5.5,0,0,1,.5.5V161.58A.51.51,0,0,1,136.34,162.08Z" fill="#d1d3d4"></path><path d="M261.07,162.08a.5.5,0,0,1-.5-.5V31.82a.5.5,0,1,1,1,0V161.58A.5.5,0,0,1,261.07,162.08Z" fill="#d1d3d4"></path><path d="M325,76.39H75a.5.5,0,0,1-.5-.5.5.5,0,0,1,.5-.5H325a.5.5,0,0,1,.5.5A.5.5,0,0,1,325,76.39Z" fill="#d1d3d4"></path><path d="M325,119.26H75a.5.5,0,0,1-.5-.5.5.5,0,0,1,.5-.5H325a.5.5,0,0,1,.5.5A.5.5,0,0,1,325,119.26Z" fill="#d1d3d4"></path><path d="M238.6,57.85a.48.48,0,0,1-.3-.11l-6.17-4.69a.5.5,0,0,1-.09-.7.51.51,0,0,1,.7-.1L238.9,57a.5.5,0,0,1-.3.9Z" fill="#d1d3d4"></path><path d="M299.07,51.28a.49.49,0,0,1-.32-.12l-5.07-4.32a.5.5,0,1,1,.65-.76l5.07,4.31a.51.51,0,0,1,.05.71A.49.49,0,0,1,299.07,51.28Z" fill="#d1d3d4"></path><path d="M307.61,139.94a.51.51,0,0,1-.34-.14l-4.36-4.07a.5.5,0,1,1,.68-.73l4.36,4.07a.5.5,0,0,1,0,.71A.49.49,0,0,1,307.61,139.94Z" fill="#d1d3d4"></path><path d="M303.25,142.41a.49.49,0,0,1-.34-.14l-2.68-2.46a.5.5,0,0,1,.68-.74l2.68,2.47a.51.51,0,0,1,0,.71A.54.54,0,0,1,303.25,142.41Z" fill="#d1d3d4"></path><path d="M108.13,52.45a.48.48,0,0,1-.4-.2L105.33,49a.5.5,0,0,1,.81-.6l2.39,3.24a.5.5,0,0,1-.11.7A.45.45,0,0,1,108.13,52.45Z" fill="#d1d3d4"></path><path d="M105.73,59.21a.51.51,0,0,1-.43-.25l-2.39-4.08a.51.51,0,0,1,.18-.69.49.49,0,0,1,.68.18l2.4,4.08a.51.51,0,0,1-.18.69A.59.59,0,0,1,105.73,59.21Z" fill="#d1d3d4"></path><path d="M108.63,153.14s-2.4,24.35,2.39,31.46l10.5-3.15s-3.39-20.4,0-31.66Z" fill="#231f20"></path><path d="M111,185.1a.49.49,0,0,1-.41-.22c-4.84-7.17-2.58-30.78-2.48-31.78a.5.5,0,0,1,.37-.44l12.9-3.35a.48.48,0,0,1,.48.13.51.51,0,0,1,.12.5c-3.32,11,0,31.23,0,31.43a.48.48,0,0,1-.34.56l-10.5,3.15Zm-1.93-31.56c-.26,2.94-1.93,23.7,2.15,30.47L121,181.1c-.47-3-2.94-20-.16-30.61Z" fill="#231f20"></path><rect x="261.07" y="155.95" width="7.96" height="72.67" fill="#fff"></rect><path d="M269,229.12h-8a.5.5,0,0,1-.5-.5V156a.5.5,0,0,1,.5-.5h8a.5.5,0,0,1,.5.5v72.67A.5.5,0,0,1,269,229.12Zm-7.46-1h7V156.45h-7Z" fill="#231f20"></path><polygon points="197.45 123.1 184.11 155.78 293.09 155.78 259.07 123.1 197.45 123.1" fill="#fff"></polygon><path d="M293.09,156.28h-109a.51.51,0,0,1-.42-.22.49.49,0,0,1,0-.47L197,122.91a.49.49,0,0,1,.46-.31h61.62a.49.49,0,0,1,.34.14l34,32.68a.5.5,0,0,1-.35.86Zm-108.24-1h107l-33-31.68H197.78Z" fill="#231f20"></path><path d="M183.23,121.8s4.3,6.8,4.66,6.31,23.72-9.58,26.24-8.5,9.94,6.66,9.58,7.46-7.79,2.6-10.42,1.88-9.7.79-12,2.79-23.41,14.69-24.46,13.61-8.69-14.85-8.69-14.85" fill="#fff"></path><path d="M177,145.92a.59.59,0,0,1-.52-.22c-1.07-1.09-8-13.54-8.77-14.95a.5.5,0,1,1,.87-.49c3,5.35,7.6,13.5,8.54,14.66,2.25-.07,21.6-11.58,23.84-13.56,2.49-2.17,9.75-3.63,12.44-2.9,2.4.66,8.6-.86,9.73-1.55-.81-1.22-6.77-5.8-9.22-6.84-2.12-.91-24.25,7.49-25.7,8.41a.62.62,0,0,1-.41.16c-.27,0-.88,0-5-6.57a.5.5,0,0,1,.84-.54,55.4,55.4,0,0,0,4.22,6c1.77-.94,9.11-3.68,12.17-4.77,12.48-4.43,13.84-3.85,14.28-3.65,2.23.95,9.24,6,9.84,7.55a.71.71,0,0,1,0,.58c-.58,1.28-8.49,2.83-11,2.15s-9.33.77-11.52,2.69a144.52,144.52,0,0,1-12.77,8C180.45,145,177.92,145.92,177,145.92Zm10.67-18.25a.43.43,0,0,0-.19.14A.75.75,0,0,1,187.69,127.67Z" fill="#231f20"></path><path d="M172.61,102.54l13.26,19.27s-14.73,10.69-15,9-12.46-19.66-10.78-24.43S172.61,102.54,172.61,102.54Z" fill="#1ca7ec"></path><path d="M101.83,107s34.58-6.54,36.18-2.7.81,31.63-1.67,36.89S99.22,164,96.79,157.09,101.83,107,101.83,107Z" fill="#fff"></path><path d="M100.17,159.19H99.7c-1.83-.1-3-.75-3.38-1.93-2.45-7,4.71-48.58,5-50.35a.49.49,0,0,1,.4-.4c5.84-1.11,35.06-6.41,36.73-2.41s.86,31.91-1.68,37.3C134.44,146.38,109.4,159.19,100.17,159.19Zm2.09-51.77c-.69,4.08-7.25,43.08-5,49.5q.4,1.14,2.49,1.26c9,.5,34.12-12.94,36.13-17.21,2.4-5.08,3.25-32.69,1.66-36.49C136.65,102.33,119,104.28,102.26,107.42Z" fill="#231f20"></path><rect x="132.58" y="197.28" width="7.52" height="38.49" fill="#231f20"></rect><path d="M140.09,236.27h-7.51a.5.5,0,0,1-.5-.5V197.28a.5.5,0,0,1,.5-.5h7.51a.5.5,0,0,1,.5.5v38.49A.5.5,0,0,1,140.09,236.27Zm-7-1h6.51V197.78h-6.51Z" fill="#231f20"></path><path d="M126.47,203.72q13,1,26.13.78c4.45-.07,9.07-.3,13-2.39a21.66,21.66,0,0,0,6-5.06,41,41,0,0,0,7.74-13.11,8.52,8.52,0,0,0,.64-4.88c-.52-2.08-2.35-3.54-4.15-4.71-15-9.79-64.18-.9-68.44,3.54s-4.72,7.48-4.2,13.22c.55,5.93,2.09,8.07,7.8,10C116,202.78,121.27,203.32,126.47,203.72Z" fill="#fff"></path><path d="M148,205c-7.19,0-14.42-.28-21.56-.82-5.07-.39-10.45-.91-15.57-2.64-5.81-2-7.56-4.2-8.13-10.43-.54-5.85-.06-9,4.33-13.61,2.33-2.43,16.31-5.75,30.51-7.25,10.61-1.12,29.73-2.14,38.57,3.64,1.84,1.2,3.79,2.73,4.36,5a9,9,0,0,1-.66,5.17A41.41,41.41,0,0,1,172,197.38a22.23,22.23,0,0,1-6.18,5.18c-4,2.12-8.53,2.36-13.22,2.44C151.07,205,149.53,205,148,205Zm4.71-34.61a144.45,144.45,0,0,0-15,.85c-15.23,1.61-28,5-29.89,6.95-4.06,4.24-4.6,7.05-4.07,12.83s2,7.73,7.46,9.57c5,1.69,10.32,2.21,15.32,2.59h0c8.65.66,17.42.92,26.09.78,4.57-.08,9-.31,12.77-2.33a20.88,20.88,0,0,0,5.89-4.95,40.51,40.51,0,0,0,7.65-12.95,8.11,8.11,0,0,0,.62-4.59c-.48-1.94-2.25-3.32-3.93-4.42C171.23,171.91,163.2,170.43,152.7,170.43Z" fill="#231f20"></path><path d="M111.73,175.52a9.72,9.72,0,0,0-4.31,2.37c-3,3.19-.68,7.2,2.59,9a21.18,21.18,0,0,0,6.55,1.89,247,247,0,0,0,42.58,3.55c2.79,0,5.72-.1,8.15-1.47a16.8,16.8,0,0,0,4.25-3.87c1.43-1.64,3-3.62,2.56-5.76-.44-2.4-3-3.69-5.31-4.52a87,87,0,0,0-44.45-3.84A105.06,105.06,0,0,0,111.73,175.52Z" fill="#fff"></path><path d="M158.29,192.79a248.16,248.16,0,0,1-41.81-3.56,21.49,21.49,0,0,1-6.7-1.94,7.85,7.85,0,0,1-4.19-5.32,5.1,5.1,0,0,1,1.47-4.43,10.34,10.34,0,0,1,4.52-2.5h0a94.89,94.89,0,0,1,11.64-2.52l1-.19a87.79,87.79,0,0,1,15-1.3h.18A86.76,86.76,0,0,1,169,176.2c2.18.78,5.13,2.15,5.63,4.9.42,2.26-1,4.31-2.67,6.18a17.68,17.68,0,0,1-4.38,4c-2.49,1.39-5.39,1.51-8.4,1.53ZM111.88,176a9.36,9.36,0,0,0-4.09,2.23,4.06,4.06,0,0,0-1.21,3.58,6.93,6.93,0,0,0,3.67,4.6,21,21,0,0,0,6.4,1.84,246,246,0,0,0,42.49,3.54c2.87,0,5.63-.13,7.91-1.41a16.59,16.59,0,0,0,4.11-3.75c1.37-1.58,2.8-3.41,2.45-5.35-.42-2.25-3.05-3.44-5-4.14A85.75,85.75,0,0,0,139.49,172a87.65,87.65,0,0,0-15.06,1.29l-1,.18a95.32,95.32,0,0,0-11.51,2.5Z" fill="#231f20"></path><polygon points="206.07 127.47 203.41 136.62 242.11 136.62 234.45 128.44 206.07 127.47" fill="#231f20"></polygon><path d="M242.11,137.12h-38.7a.51.51,0,0,1-.4-.2.53.53,0,0,1-.08-.44l2.66-9.15a.48.48,0,0,1,.5-.36l28.37,1a.51.51,0,0,1,.35.15l7.66,8.18a.49.49,0,0,1,.1.54A.51.51,0,0,1,242.11,137.12Zm-38-1H241l-6.74-7.18-27.77-1Z" fill="#231f20"></path><path d="M216.24,231.06a4.55,4.55,0,0,0-1.75,3.36,32.32,32.32,0,0,0,.83,5.58,53.66,53.66,0,0,0,23.12,5.27c12.77-.16,21.87-2.55,18.36-5.75s-24.12-7.42-27-11.33S216.24,231.06,216.24,231.06Z" fill="#231f20"></path><path d="M237.89,245.78a55,55,0,0,1-22.81-5.33.52.52,0,0,1-.25-.33,33.1,33.1,0,0,1-.84-5.7,5,5,0,0,1,2-3.76l0,0c.45-.29,11.13-7,14.24-2.75,1.47,2,8.48,4.29,14.66,6.3,5.44,1.77,10.58,3.44,12.26,5a2.06,2.06,0,0,1,.81,2.32c-1.14,3-11.22,4.2-19.51,4.3Zm-22.14-6.12a53.68,53.68,0,0,0,22.68,5.11c11.34-.14,17.93-1.94,18.58-3.65.05-.14.21-.54-.55-1.23-1.51-1.37-6.79-3.09-11.89-4.75-6.63-2.16-13.49-4.39-15.16-6.66-2.12-2.89-10,1.17-12.88,3a4.07,4.07,0,0,0-1.54,2.95A30.16,30.16,0,0,0,215.75,239.66Z" fill="#231f20"></path><path d="M212.25,219.73l3.39,12.93s5.87,2.23,12.26-2.56L225,212.54Z" fill="#fff"></path><path d="M219.16,233.69a11.43,11.43,0,0,1-3.7-.56.52.52,0,0,1-.31-.34l-3.38-12.94a.49.49,0,0,1,.24-.56l12.77-7.19a.53.53,0,0,1,.46,0,.51.51,0,0,1,.28.37L228.39,230a.49.49,0,0,1-.19.48A14.89,14.89,0,0,1,219.16,233.69Zm-3.11-1.42a13.26,13.26,0,0,0,11.31-2.39l-2.71-16.55L212.83,220Z" fill="#231f20"></path><path d="M163,155.78s52.61,7.39,53.89,9.72,11.66,52.63,11.66,52.63-10.06,15.65-22.67.64-7.83-43-7.83-43L150.78,170Z" fill="#231f20"></path><path d="M217.07,225.78c-4,0-7.86-2.25-11.59-6.69-11.67-13.88-8.58-38.93-8-42.84l-46.75-5.75a.54.54,0,0,1-.41-.32.52.52,0,0,1,.09-.51l12.21-14.22a.51.51,0,0,1,.45-.17c12.4,1.75,53,7.61,54.26,10S228.6,216,229,218a.53.53,0,0,1-.07.37c-.18.28-4.53,6.93-11.22,7.36Zm-65.3-56.16,46.33,5.7a.5.5,0,0,1,.34.2.48.48,0,0,1,.09.38c0,.28-4.6,27.89,7.72,42.55,3.72,4.43,7.57,6.54,11.42,6.31C223.3,224.4,227.3,219,228,218c-2.92-14.12-10.55-50.43-11.57-52.28-1.52-1.62-33.35-6.63-53.25-9.43Z" fill="#231f20"></path><path d="M202,239.68a4.55,4.55,0,0,0-1.75,3.36,32.5,32.5,0,0,0,.83,5.59,53.74,53.74,0,0,0,23.12,5.26c12.77-.16,21.87-2.55,18.36-5.74s-24.12-7.43-27-11.34S202,239.68,202,239.68Z" fill="#231f20"></path><path d="M223.68,254.4a55,55,0,0,1-22.81-5.33.52.52,0,0,1-.25-.33,32.92,32.92,0,0,1-.84-5.7,5,5,0,0,1,2-3.76l0,0c.45-.29,11.13-7,14.24-2.75,1.47,2,8.48,4.29,14.66,6.3,5.44,1.77,10.58,3.45,12.25,5a2,2,0,0,1,.82,2.31c-1.14,3-11.22,4.2-19.51,4.3Zm-22.14-6.12a53.59,53.59,0,0,0,22.68,5.11c11.34-.14,17.93-1.94,18.58-3.65,0-.14.21-.54-.55-1.22-1.51-1.38-6.79-3.1-11.89-4.76-6.64-2.16-13.49-4.39-15.16-6.65-2.12-2.9-10,1.16-12.88,3a4,4,0,0,0-1.54,2.94A30.16,30.16,0,0,0,201.54,248.28Z" fill="#231f20"></path><path d="M198,228.35l3.39,12.93s5.87,2.24,12.26-2.55l-2.88-17.57Z" fill="#fff"></path><path d="M205,242.31a11.43,11.43,0,0,1-3.7-.56.52.52,0,0,1-.31-.34l-3.38-12.94a.49.49,0,0,1,.24-.56l12.77-7.18a.5.5,0,0,1,.46,0,.51.51,0,0,1,.28.37l2.87,17.57a.5.5,0,0,1-.19.48A14.93,14.93,0,0,1,205,242.31Zm-3.11-1.42a13.23,13.23,0,0,0,11.31-2.39L210.44,222l-11.82,6.64Z" fill="#231f20"></path><path d="M114.38,174.5s1.27,7.7,22.67,12.17,51.67,3.2,51.67,3.2l7.43,43.27s11.79,1,17.22-5.11c0,0-2.87-57.84-7.35-62.53s-43-9.72-43-9.72S120.44,171,114.38,174.5Z" fill="#231f20"></path><path d="M198,233.7c-1.1,0-1.81,0-1.92-.06a.51.51,0,0,1-.46-.42l-7.35-42.84c-3.82.14-31.54.92-51.35-3.22-21.49-4.49-23-12.25-23.07-12.58a.5.5,0,0,1,.24-.51c6-3.54,47-18.14,48.7-18.76a.47.47,0,0,1,.23,0c1.59.21,38.8,5.11,43.34,9.88s7.36,60.47,7.48,62.84a.49.49,0,0,1-.13.36C209.49,233.11,201.66,233.7,198,233.7Zm-1.46-1c2,.09,11.58.24,16.29-4.81-.81-16.19-3.65-58.28-7.2-62S176.36,158,163,156.29c-2.4.86-41.18,14.73-48.07,18.45.57,1.48,4,7.64,22.18,11.45,21.09,4.4,51.25,3.19,51.55,3.18a.49.49,0,0,1,.51.41ZM114.38,174.5h0Z" fill="#231f20"></path><path d="M163.59,134.94s6.76,15.33,10.63,17,27.73-13.65,33.4-21a16.31,16.31,0,0,0,7.87.92s6.46,4.91,7.42,3.71-2.28-4.39-2.28-4.39,6.47,4.63,6.79,2.63-4-4.39-4-4.39,7.34,5.27,6.31,2.8-2.56-5.51-8.79-7-10.69-2.59-12.69-1.95c-1.57.5-25.87,9.5-25.87,9.5l-2.09-4Z" fill="#fff"></path><path d="M174.9,152.56a2.24,2.24,0,0,1-.88-.15c-4-1.74-10.6-16.63-10.88-17.27a.48.48,0,0,1,0-.39.53.53,0,0,1,.29-.28l16.7-6.18a.5.5,0,0,1,.62.24l1.89,3.63c3.31-1.22,24-8.88,25.48-9.35,2.15-.69,6.68.42,13,2s8,4.57,9.13,7.31c.28.67.08,1-.14,1.19s-.54.43-2.3-.44a2.08,2.08,0,0,1,.15,1.12,1,1,0,0,1-.62.82c-.89.37-2.69-.46-4.28-1.39.54.93.83,1.89.29,2.56-1.08,1.35-5.37-1.55-8-3.5a17.12,17.12,0,0,1-7.57-.84C202.07,138.57,180.83,152.56,174.9,152.56Zm-10.63-17.33c2,4.53,7.23,15,10.15,16.26,3.49,1.51,27.1-13.46,32.81-20.81a.5.5,0,0,1,.59-.15,16.08,16.08,0,0,0,7.6.88.5.5,0,0,1,.37.1c3,2.3,6.19,4.07,6.75,3.78.38-.48-.88-2.34-2.26-3.71a.49.49,0,0,1,0-.67.51.51,0,0,1,.68-.09c2.67,1.92,5.53,3.36,6,3,.12-.73-.64-1.65-1.6-2.46-.63-.42-1.35-.91-2.17-1.5a.5.5,0,0,1,.53-.84,14.83,14.83,0,0,1,2.16,1.46,18.86,18.86,0,0,0,3.41,1.88c-.87-2.07-2.23-5.15-8.4-6.65-5.89-1.44-10.54-2.57-12.43-2-1.54.5-25.6,9.41-25.85,9.5A.5.5,0,0,1,182,133l-1.89-3.64Z" fill="#231f20"></path><path d="M169.05,94.33a4.56,4.56,0,0,1-.86-3.27,53.4,53.4,0,0,1,3.27-13.39,16.9,16.9,0,0,1,2.31-4.8c1.52-1.92,2.52-1.9,4.45-.7-1.52-1,3.59-3.52,3.86-3.62,3.57-1.25,7.29-1,11-.37,2.74.47,7.65,2.47,10.3,1a1.93,1.93,0,0,0,.88-2.64c3.5,5,4.8,11.27,1.47,16.71-1.83,3-5.75,6.55-9.54,5.53-1.92-.51-3.27-1.5-5.34-.81a9.66,9.66,0,0,0-4.06,3.21,18.53,18.53,0,0,1-3.6,3.69c-2.9,2-6.93,1.5-10.25,1.24A5.24,5.24,0,0,1,169.05,94.33Z" fill="#fff"></path><path d="M177.21,96.87c-1.24,0-2.48-.1-3.67-.2l-.68,0a5.71,5.71,0,0,1-4.2-2h0a5,5,0,0,1-1-3.62A54.76,54.76,0,0,1,171,77.5a17.54,17.54,0,0,1,2.39-4.94c1.5-1.9,2.68-2.06,4.19-1.33.72-1.47,4.3-3.14,4.34-3.15,4-1.39,8.08-.94,11.21-.4.71.13,1.55.34,2.43.58,2.56.66,5.73,1.49,7.55.5a1.78,1.78,0,0,0,.84-1.11,1,1,0,0,0-.13-.82.5.5,0,0,1,.82-.57c4,5.73,4.6,12.19,1.49,17.26-2.15,3.5-6.23,6.8-10.1,5.76-.52-.14-1-.31-1.45-.48a5,5,0,0,0-3.6-.35,9.23,9.23,0,0,0-3.83,3.06l-.32.39a17.28,17.28,0,0,1-3.39,3.39A10.67,10.67,0,0,1,177.21,96.87ZM169.44,94a4.77,4.77,0,0,0,3.5,1.6l.68,0c3.14.26,6.69.55,9.25-1.2a16.29,16.29,0,0,0,3.17-3.2l.33-.4a10.07,10.07,0,0,1,4.28-3.37,6,6,0,0,1,4.26.36c.43.16.88.32,1.37.45,3.61,1,7.35-2.65,9-5.32,2.63-4.29,2.42-9.67-.5-14.67a2.76,2.76,0,0,1-1.19,1.31c-2.16,1.19-5.55.3-8.28-.41-.86-.22-1.68-.44-2.35-.55-3-.53-7-1-10.71.35-.83.34-3.74,2.07-3.8,2.69l.05,0a.51.51,0,0,1,.16.69.49.49,0,0,1-.69.16h0c-1.73-1.08-2.44-1.13-3.79.59a16.36,16.36,0,0,0-2.24,4.65,53.74,53.74,0,0,0-3.24,13.27,4,4,0,0,0,.75,2.92Z" fill="#231f20"></path><path d="M193.69,93s.46,7.51-.94,8.21-3.43-1.47-3.43-1.47" fill="#fff"></path><path d="M192.14,101.86c-1.47,0-3-1.56-3.19-1.77a.5.5,0,1,1,.73-.68c.46.49,2,1.8,2.85,1.37.59-.3.89-3.91.66-7.74a.49.49,0,0,1,.47-.53.5.5,0,0,1,.53.47c.14,2.35.31,7.93-1.21,8.69A1.78,1.78,0,0,1,192.14,101.86Z" fill="#231f20"></path><path d="M199.48,80.38c1.22,3.19-4.14,11.75-5.64,14.31q-3.18,5.4-6.59,10.65c-1.44,2.22-7.41-1.16-8.06-2.45l-7.59,8.73-3.51-5a43.75,43.75,0,0,1-5.1-9.46l8.62-6.9s3.91,2.29,8.92-1,9.05-10.57,9.05-10.57S198.3,77.26,199.48,80.38Z" fill="#fff"></path><path d="M171.6,112.12h0a.49.49,0,0,1-.38-.21l-3.51-5a43.34,43.34,0,0,1-5.16-9.58.5.5,0,0,1,.16-.56l8.62-6.9a.5.5,0,0,1,.56,0c.16.09,3.72,2.08,8.39-1,4.85-3.22,8.86-10.32,8.9-10.39a.51.51,0,0,1,.35-.25c.94-.15,9.16-1.38,10.45,2h0c1.06,2.79-2.07,8.67-5.27,14l-.41.69c-2.11,3.59-4.33,7.18-6.6,10.67a2.38,2.38,0,0,1-2.32,1,11.66,11.66,0,0,1-6.18-2.9L172,112A.52.52,0,0,1,171.6,112.12Zm-8-14.77a44.56,44.56,0,0,0,4.91,9l3.14,4.45,7.17-8.24a.51.51,0,0,1,.83.1c.35.7,3.55,2.78,5.77,2.9a1.46,1.46,0,0,0,1.42-.51c2.26-3.47,4.47-7,6.58-10.63l.41-.69c1.7-2.86,6.23-10.47,5.2-13.19h0c-.82-2.15-6.77-1.76-9.12-1.42-.73,1.25-4.46,7.45-9.09,10.53-4.46,3-8.07,1.7-9.14,1.21Z" fill="#231f20"></path><path d="M188.72,102.59a6.91,6.91,0,0,1-4.09-6.22" fill="#fff"></path><path d="M188.72,103.09a.43.43,0,0,1-.19,0,7.46,7.46,0,0,1-4.4-6.68.5.5,0,0,1,1,0,6.35,6.35,0,0,0,3.78,5.76.49.49,0,0,1,.27.65A.5.5,0,0,1,188.72,103.09Z" fill="#231f20"></path><path d="M185.42,91.32a5.66,5.66,0,0,0,.42-3.06,8.07,8.07,0,0,0-.37-2.4,2.74,2.74,0,0,0-1.6-1.72,2.58,2.58,0,0,0-2.07.31A4.81,4.81,0,0,0,180.32,86a9,9,0,0,0-.39,9l-.08-.33" fill="#fff"></path><path d="M179.93,95.43a.5.5,0,0,1-.44-.27,9.5,9.5,0,0,1,.41-9.45A5,5,0,0,1,181.55,84a3,3,0,0,1,2.47-.35,3.17,3.17,0,0,1,1.92,2,8.55,8.55,0,0,1,.4,2.54,6.18,6.18,0,0,1-.48,3.34.5.5,0,0,1-.68.19.51.51,0,0,1-.2-.68,5.24,5.24,0,0,0,.36-2.8A7.66,7.66,0,0,0,185,86a2.22,2.22,0,0,0-1.29-1.41,2,2,0,0,0-1.65.26,4.24,4.24,0,0,0-1.32,1.37,8.53,8.53,0,0,0-.63,7.92.48.48,0,0,1,.23.32l.08.33a.49.49,0,0,1-.32.57A.33.33,0,0,1,179.93,95.43Z" fill="#231f20"></path><path d="M179.19,102.89s-2.52-2.73-2.74-5.66c0,0-4.12,4.88-.33,9.19Z" fill="#231f20"></path><path d="M176.12,106.92a.48.48,0,0,1-.37-.17c-4-4.58.27-9.79.32-9.84a.49.49,0,0,1,.53-.16.52.52,0,0,1,.35.44c.2,2.72,2.58,5.34,2.61,5.36a.5.5,0,0,1,0,.67l-3.07,3.53a.49.49,0,0,1-.38.17Zm0-8.41c-.87,1.47-2.07,4.38,0,7.13l2.39-2.75A12.28,12.28,0,0,1,176.16,98.51Z" fill="#231f20"></path><ellipse cx="193.07" cy="89.31" rx="1.49" ry="0.59" transform="translate(1.22 181.22) rotate(-50.42)" fill="#231f20"></ellipse><line x1="194.75" y1="88.92" x2="192.9" y2="86.3" fill="#fff"></line><path d="M194.75,89.42a.51.51,0,0,1-.41-.21l-1.85-2.62a.5.5,0,0,1,.12-.7.51.51,0,0,1,.7.12l1.85,2.62a.5.5,0,0,1-.12.7A.52.52,0,0,1,194.75,89.42Z" fill="#231f20"></path><path d="M172.65,117.53c4.4-5-.79-24.41-11.57-28s-52.93,12-46.7,85L163,155.78s-2.87-13.57.72-22.91S168.25,122.56,172.65,117.53Z" fill="#1ca7ec"></path><path d="M172.61,102.54l8.95,25.91-15.44,12.73s-9.58-13.78-11.25-18.89S172.61,102.54,172.61,102.54Z" fill="#1ca7ec"></path><path d="M166.12,141.68a.48.48,0,0,1-.41-.21c-.5-.72-12.22-17.65-15.4-26.23a.5.5,0,1,1,.94-.35c3.13,8.46,15.16,25.83,15.28,26a.49.49,0,0,1-.13.69A.47.47,0,0,1,166.12,141.68Z" fill="#231f20"></path><path d="M213.69,225.2a.52.52,0,0,1-.5-.45c-1.68-17.42-5.55-51.33-8.21-55s-29.38-8.23-39.42-9.62a.49.49,0,0,1-.42-.56.48.48,0,0,1,.56-.42c1.49.2,36.57,5.11,40.09,10s8.19,53.44,8.39,55.51a.49.49,0,0,1-.44.54Z" fill="#fff"></path><path d="M235.24,245.77a.36.36,0,0,1-.14,0c-5-1.51-19.11-8.21-19.71-8.49a.5.5,0,0,1,.43-.9c.14.07,14.61,6.95,19.57,8.44a.5.5,0,0,1-.15,1Z" fill="#fff"></path><path d="M188.72,190.37a.52.52,0,0,1-.43-.24.51.51,0,0,1,.17-.69,13.52,13.52,0,0,0,4.66-5.05.49.49,0,1,1,.9.41,14.14,14.14,0,0,1-5,5.49A.5.5,0,0,1,188.72,190.37Z" fill="#fff"></path><polygon points="203.41 136.62 204.62 138.69 241.15 138.69 242.11 136.62 203.41 136.62" fill="#fff"></polygon><path d="M241.15,139.19H204.62a.5.5,0,0,1-.43-.24L203,136.87a.5.5,0,0,1,0-.5.48.48,0,0,1,.43-.25h38.7a.5.5,0,0,1,.45.71l-.95,2.07A.51.51,0,0,1,241.15,139.19Zm-36.24-1h35.92l.5-1.07H204.28Z" fill="#231f20"></path><polygon points="242.11 136.62 254.24 107 243.23 106.42 234.45 128.44 242.11 136.62" fill="#fff"></polygon><path d="M242.11,137.12a.52.52,0,0,1-.37-.16l-7.66-8.17a.51.51,0,0,1-.1-.53l8.78-22a.51.51,0,0,1,.49-.32l11,.58a.5.5,0,0,1,.44.69l-12.14,29.62a.48.48,0,0,1-.37.3ZM235,128.33l6.91,7.38,11.57-28.25-9.95-.52Z" fill="#231f20"></path><path d="M94.36,150.14c.29,2.63.84,5.5,2.43,7s3.88.89,5.4-.8,2.42-4.23,3.07-6.79c1.56-6.19,1.91-12.83,2.1-19.39.15-5.22-1.87-32.29-9.44-20-2.54,4.13-2.92,13.7-3.46,18.91A99.79,99.79,0,0,0,94.36,150.14Z" fill="#fff"></path><path d="M98.92,158.43a3.6,3.6,0,0,1-2.47-1c-1.76-1.6-2.31-4.72-2.59-7.26A99.08,99.08,0,0,1,94,129c.08-.86.17-1.84.26-2.89.46-5.35,1.08-12.68,3.26-16.23,1.65-2.68,3.18-3.77,4.66-3.33,5,1.48,5.77,21.36,5.71,23.57-.18,6.08-.5,13.11-2.11,19.5-.84,3.3-1.85,5.53-3.19,7a5.17,5.17,0,0,1-3.46,1.8Zm2.61-51c-1.13,0-2.34,1.56-3.19,2.94-2,3.35-2.67,10.54-3.12,15.8-.09,1.06-.17,2-.26,2.9a98.38,98.38,0,0,0-.1,21c.26,2.36.75,5.25,2.26,6.63a2.65,2.65,0,0,0,1.93.71,4.15,4.15,0,0,0,2.77-1.47c1.22-1.36,2.16-3.45,3-6.59,1.59-6.29,1.91-13.25,2.08-19.28.15-5.2-1.38-21.5-5-22.58A1.33,1.33,0,0,0,101.53,107.46Z" fill="#231f20"></path><path d="M132.58,235.77s-13.41,4.71-14.85,7.59a11.86,11.86,0,0,0-1.12,5.9h3.67a5.94,5.94,0,0,1,1.6-5.42c2.39-2.4,9.59-5,14.46-5.06s14.12,2.5,14.44,4.26.8,6.22.8,6.22l3.67-.95s.8-4.63-1.6-7.83-13.56-4.71-13.56-4.71Z" fill="#231f20"></path><path d="M120.28,249.76h-3.67a.5.5,0,0,1-.5-.44,12.47,12.47,0,0,1,1.17-6.19c1.49-3,13.74-7.34,15.13-7.83a.51.51,0,0,1,.17,0h7.51c.54.07,11.47,1.59,14,4.91s1.73,8,1.69,8.21a.49.49,0,0,1-.36.4l-3.68,1a.49.49,0,0,1-.62-.43s-.48-4.48-.79-6.19c-.21-1.16-8.71-3.87-13.95-3.85-4.61.05-11.73,2.53-14.11,4.91a5.41,5.41,0,0,0-1.46,4.95.51.51,0,0,1-.09.43A.51.51,0,0,1,120.28,249.76Zm-3.2-1h2.61a6.37,6.37,0,0,1,1.84-5.28c2.57-2.57,9.9-5.14,14.8-5.2h.13c4.38,0,14.39,2.34,14.81,4.67.26,1.39.6,4.41.74,5.68l2.79-.72c.12-1.07.34-4.61-1.55-7.13s-10.18-4.1-13.22-4.51h-7.37c-3.73,1.32-13.39,5.12-14.48,7.31A11.45,11.45,0,0,0,117.08,248.76Z" fill="#231f20"></path><circle cx="117.89" cy="252.38" r="5.75" fill="#231f20"></circle><path d="M117.89,258.63a6.25,6.25,0,1,1,6.25-6.25A6.26,6.26,0,0,1,117.89,258.63Zm0-11.5a5.25,5.25,0,1,0,5.25,5.25A5.26,5.26,0,0,0,117.89,247.13Z" fill="#231f20"></path><circle cx="154.76" cy="252.38" r="5.75" fill="#231f20"></circle><path d="M154.76,258.63a6.25,6.25,0,1,1,6.25-6.25A6.26,6.26,0,0,1,154.76,258.63Zm0-11.5a5.25,5.25,0,1,0,5.25,5.25A5.25,5.25,0,0,0,154.76,247.13Z" fill="#231f20"></path><rect x="284.82" y="178.1" width="7.96" height="86.54" fill="#fff"></rect><path d="M292.78,265.14h-8a.5.5,0,0,1-.5-.5V178.1a.51.51,0,0,1,.5-.5h8a.5.5,0,0,1,.5.5v86.54A.5.5,0,0,1,292.78,265.14Zm-7.46-1h7V178.6h-7Z" fill="#231f20"></path><rect x="184.11" y="155.78" width="108.98" height="23.87" fill="#fff"></rect><path d="M293.09,180.15h-109a.5.5,0,0,1-.5-.5V155.78a.5.5,0,0,1,.5-.5h109a.5.5,0,0,1,.5.5v23.87A.5.5,0,0,1,293.09,180.15Zm-108.48-1h108V156.28h-108Z" fill="#231f20"></path><rect x="187.43" y="179.65" width="7.96" height="86.54" fill="#fff"></rect><path d="M195.4,266.69h-8a.5.5,0,0,1-.5-.5V179.65a.5.5,0,0,1,.5-.5h8a.5.5,0,0,1,.5.5v86.54A.5.5,0,0,1,195.4,266.69Zm-7.47-1h7V180.15h-7Z" fill="#231f20"></path><path d="M181.56,128.94a.48.48,0,0,1-.47-.35c-.09-.28-8.8-28.54-12.66-32.58a.5.5,0,0,1,0-.71.49.49,0,0,1,.7,0c4,4.21,12.53,31.81,12.89,33a.5.5,0,0,1-.33.62A.39.39,0,0,1,181.56,128.94Z" fill="#231f20"></path><polygon points="261.07 193.38 269.03 198.89 269.03 179.65 261.07 179.65 261.07 193.38" fill="#231f20"></polygon><path d="M269,199.39a.47.47,0,0,1-.28-.09l-8-5.51a.49.49,0,0,1-.22-.41V179.65a.5.5,0,0,1,.5-.5h8a.5.5,0,0,1,.5.5v19.24a.49.49,0,0,1-.26.44A.53.53,0,0,1,269,199.39Zm-7.46-6.27,7,4.82V180.15h-7Z" fill="#231f20"></path><ellipse cx="155.99" cy="237.24" rx="4.52" ry="5.28" fill="#231f20"></ellipse><path d="M156,243c-2.77,0-5-2.59-5-5.78s2.25-5.77,5-5.77,5,2.59,5,5.77S158.76,243,156,243Zm0-10.55c-2.22,0-4,2.14-4,4.77s1.8,4.78,4,4.78,4-2.14,4-4.78S158.21,232.47,156,232.47Z" fill="#231f20"></path><path d="M137.29,236.49s14.13-6.47,15-5.27a17.92,17.92,0,0,1,1.55,4.55l3-1.28s-1.34-6.46-3.85-6.3-16.6,5-16.6,5Z" fill="#231f20"></path><path d="M137.29,237a.52.52,0,0,1-.21,0,.53.53,0,0,1-.27-.32l-1-3.3a.51.51,0,0,1,.32-.61c.58-.2,14.18-4.87,16.73-5,2.86-.17,4.23,6,4.38,6.7a.52.52,0,0,1-.29.56l-3,1.28a.5.5,0,0,1-.43,0,.56.56,0,0,1-.26-.34,17.52,17.52,0,0,0-1.42-4.31c-1.13-.25-8.15,2.51-14.4,5.38A.52.52,0,0,1,137.29,237Zm-.34-3.48.66,2.28c9.29-4.23,14.36-5.86,15.06-4.86a15.67,15.67,0,0,1,1.5,4.15l2-.89c-.54-2.33-1.82-5.61-3.24-5.5C151.09,228.81,141.92,231.81,137,233.51Z" fill="#231f20"></path></g></svg>